<?xml version="1.0" encoding="utf-8" standalone="no"?>
<!DOCTYPE svg PUBLIC "-//W3C//DTD SVG 1.1//EN"
  "http://www.w3.org/Graphics/SVG/1.1/DTD/svg11.dtd">
<!-- Created with matplotlib (https://matplotlib.org/) -->
<svg height="535.213078pt" version="1.1" viewBox="0 0 692.393438 535.213078" width="692.393438pt" xmlns="http://www.w3.org/2000/svg" xmlns:xlink="http://www.w3.org/1999/xlink">
 <defs>
  <style type="text/css">
*{stroke-linecap:butt;stroke-linejoin:round;}
  </style>
 </defs>
 <g id="figure_1">
  <g id="patch_1">
   <path d="M 0 535.213078 
L 692.393438 535.213078 
L 692.393438 0 
L 0 0 
z
" style="fill:#ffffff;"/>
  </g>
  <g id="axes_1">
   <g id="patch_2">
    <path d="M 34.193437 507.867141 
L 685.193437 507.867141 
L 685.193437 11.379141 
L 34.193437 11.379141 
z
" style="fill:#ffffff;"/>
   </g>
   <g id="matplotlib.axis_1">
    <g id="xtick_1">
     <g id="line2d_1">
      <defs>
       <path d="M 0 0 
L 0 6 
" id="m2908d84843" style="stroke:#262626;stroke-width:1.25;"/>
      </defs>
      <g>
       <use style="fill:#262626;stroke:#262626;stroke-width:1.25;" x="92.41295" xlink:href="#m2908d84843" y="507.867141"/>
      </g>
     </g>
     <g id="text_1">
      <!-- 03/01 -->
      <defs>
       <path d="M 31.78125 66.40625 
Q 24.171875 66.40625 20.328125 58.90625 
Q 16.5 51.421875 16.5 36.375 
Q 16.5 21.390625 20.328125 13.890625 
Q 24.171875 6.390625 31.78125 6.390625 
Q 39.453125 6.390625 43.28125 13.890625 
Q 47.125 21.390625 47.125 36.375 
Q 47.125 51.421875 43.28125 58.90625 
Q 39.453125 66.40625 31.78125 66.40625 
z
M 31.78125 74.21875 
Q 44.046875 74.21875 50.515625 64.515625 
Q 56.984375 54.828125 56.984375 36.375 
Q 56.984375 17.96875 50.515625 8.265625 
Q 44.046875 -1.421875 31.78125 -1.421875 
Q 19.53125 -1.421875 13.0625 8.265625 
Q 6.59375 17.96875 6.59375 36.375 
Q 6.59375 54.828125 13.0625 64.515625 
Q 19.53125 74.21875 31.78125 74.21875 
z
" id="DejaVuSans-48"/>
       <path d="M 40.578125 39.3125 
Q 47.65625 37.796875 51.625 33 
Q 55.609375 28.21875 55.609375 21.1875 
Q 55.609375 10.40625 48.1875 4.484375 
Q 40.765625 -1.421875 27.09375 -1.421875 
Q 22.515625 -1.421875 17.65625 -0.515625 
Q 12.796875 0.390625 7.625 2.203125 
L 7.625 11.71875 
Q 11.71875 9.328125 16.59375 8.109375 
Q 21.484375 6.890625 26.8125 6.890625 
Q 36.078125 6.890625 40.9375 10.546875 
Q 45.796875 14.203125 45.796875 21.1875 
Q 45.796875 27.640625 41.28125 31.265625 
Q 36.765625 34.90625 28.71875 34.90625 
L 20.21875 34.90625 
L 20.21875 43.015625 
L 29.109375 43.015625 
Q 36.375 43.015625 40.234375 45.921875 
Q 44.09375 48.828125 44.09375 54.296875 
Q 44.09375 59.90625 40.109375 62.90625 
Q 36.140625 65.921875 28.71875 65.921875 
Q 24.65625 65.921875 20.015625 65.03125 
Q 15.375 64.15625 9.8125 62.3125 
L 9.8125 71.09375 
Q 15.4375 72.65625 20.34375 73.4375 
Q 25.25 74.21875 29.59375 74.21875 
Q 40.828125 74.21875 47.359375 69.109375 
Q 53.90625 64.015625 53.90625 55.328125 
Q 53.90625 49.265625 50.4375 45.09375 
Q 46.96875 40.921875 40.578125 39.3125 
z
" id="DejaVuSans-51"/>
       <path d="M 25.390625 72.90625 
L 33.6875 72.90625 
L 8.296875 -9.28125 
L 0 -9.28125 
z
" id="DejaVuSans-47"/>
       <path d="M 12.40625 8.296875 
L 28.515625 8.296875 
L 28.515625 63.921875 
L 10.984375 60.40625 
L 10.984375 69.390625 
L 28.421875 72.90625 
L 38.28125 72.90625 
L 38.28125 8.296875 
L 54.390625 8.296875 
L 54.390625 0 
L 12.40625 0 
z
" id="DejaVuSans-49"/>
      </defs>
      <g style="fill:#262626;" transform="translate(76.562637 525.725422)scale(0.11 -0.11)">
       <use xlink:href="#DejaVuSans-48"/>
       <use x="63.623047" xlink:href="#DejaVuSans-51"/>
       <use x="127.246094" xlink:href="#DejaVuSans-47"/>
       <use x="160.9375" xlink:href="#DejaVuSans-48"/>
       <use x="224.560547" xlink:href="#DejaVuSans-49"/>
      </g>
     </g>
    </g>
    <g id="xtick_2">
     <g id="line2d_2">
      <g>
       <use style="fill:#262626;stroke:#262626;stroke-width:1.25;" x="256.48612" xlink:href="#m2908d84843" y="507.867141"/>
      </g>
     </g>
     <g id="text_2">
      <!-- 04/01 -->
      <defs>
       <path d="M 37.796875 64.3125 
L 12.890625 25.390625 
L 37.796875 25.390625 
z
M 35.203125 72.90625 
L 47.609375 72.90625 
L 47.609375 25.390625 
L 58.015625 25.390625 
L 58.015625 17.1875 
L 47.609375 17.1875 
L 47.609375 0 
L 37.796875 0 
L 37.796875 17.1875 
L 4.890625 17.1875 
L 4.890625 26.703125 
z
" id="DejaVuSans-52"/>
      </defs>
      <g style="fill:#262626;" transform="translate(240.635808 525.725422)scale(0.11 -0.11)">
       <use xlink:href="#DejaVuSans-48"/>
       <use x="63.623047" xlink:href="#DejaVuSans-52"/>
       <use x="127.246094" xlink:href="#DejaVuSans-47"/>
       <use x="160.9375" xlink:href="#DejaVuSans-48"/>
       <use x="224.560547" xlink:href="#DejaVuSans-49"/>
      </g>
     </g>
    </g>
    <g id="xtick_3">
     <g id="line2d_3">
      <g>
       <use style="fill:#262626;stroke:#262626;stroke-width:1.25;" x="415.266608" xlink:href="#m2908d84843" y="507.867141"/>
      </g>
     </g>
     <g id="text_3">
      <!-- 05/01 -->
      <defs>
       <path d="M 10.796875 72.90625 
L 49.515625 72.90625 
L 49.515625 64.59375 
L 19.828125 64.59375 
L 19.828125 46.734375 
Q 21.96875 47.46875 24.109375 47.828125 
Q 26.265625 48.1875 28.421875 48.1875 
Q 40.625 48.1875 47.75 41.5 
Q 54.890625 34.8125 54.890625 23.390625 
Q 54.890625 11.625 47.5625 5.09375 
Q 40.234375 -1.421875 26.90625 -1.421875 
Q 22.3125 -1.421875 17.546875 -0.640625 
Q 12.796875 0.140625 7.71875 1.703125 
L 7.71875 11.625 
Q 12.109375 9.234375 16.796875 8.0625 
Q 21.484375 6.890625 26.703125 6.890625 
Q 35.15625 6.890625 40.078125 11.328125 
Q 45.015625 15.765625 45.015625 23.390625 
Q 45.015625 31 40.078125 35.4375 
Q 35.15625 39.890625 26.703125 39.890625 
Q 22.75 39.890625 18.8125 39.015625 
Q 14.890625 38.140625 10.796875 36.28125 
z
" id="DejaVuSans-53"/>
      </defs>
      <g style="fill:#262626;" transform="translate(399.416296 525.725422)scale(0.11 -0.11)">
       <use xlink:href="#DejaVuSans-48"/>
       <use x="63.623047" xlink:href="#DejaVuSans-53"/>
       <use x="127.246094" xlink:href="#DejaVuSans-47"/>
       <use x="160.9375" xlink:href="#DejaVuSans-48"/>
       <use x="224.560547" xlink:href="#DejaVuSans-49"/>
      </g>
     </g>
    </g>
    <g id="xtick_4">
     <g id="line2d_4">
      <g>
       <use style="fill:#262626;stroke:#262626;stroke-width:1.25;" x="579.339779" xlink:href="#m2908d84843" y="507.867141"/>
      </g>
     </g>
     <g id="text_4">
      <!-- 06/01 -->
      <defs>
       <path d="M 33.015625 40.375 
Q 26.375 40.375 22.484375 35.828125 
Q 18.609375 31.296875 18.609375 23.390625 
Q 18.609375 15.53125 22.484375 10.953125 
Q 26.375 6.390625 33.015625 6.390625 
Q 39.65625 6.390625 43.53125 10.953125 
Q 47.40625 15.53125 47.40625 23.390625 
Q 47.40625 31.296875 43.53125 35.828125 
Q 39.65625 40.375 33.015625 40.375 
z
M 52.59375 71.296875 
L 52.59375 62.3125 
Q 48.875 64.0625 45.09375 64.984375 
Q 41.3125 65.921875 37.59375 65.921875 
Q 27.828125 65.921875 22.671875 59.328125 
Q 17.53125 52.734375 16.796875 39.40625 
Q 19.671875 43.65625 24.015625 45.921875 
Q 28.375 48.1875 33.59375 48.1875 
Q 44.578125 48.1875 50.953125 41.515625 
Q 57.328125 34.859375 57.328125 23.390625 
Q 57.328125 12.15625 50.6875 5.359375 
Q 44.046875 -1.421875 33.015625 -1.421875 
Q 20.359375 -1.421875 13.671875 8.265625 
Q 6.984375 17.96875 6.984375 36.375 
Q 6.984375 53.65625 15.1875 63.9375 
Q 23.390625 74.21875 37.203125 74.21875 
Q 40.921875 74.21875 44.703125 73.484375 
Q 48.484375 72.75 52.59375 71.296875 
z
" id="DejaVuSans-54"/>
      </defs>
      <g style="fill:#262626;" transform="translate(563.489466 525.725422)scale(0.11 -0.11)">
       <use xlink:href="#DejaVuSans-48"/>
       <use x="63.623047" xlink:href="#DejaVuSans-54"/>
       <use x="127.246094" xlink:href="#DejaVuSans-47"/>
       <use x="160.9375" xlink:href="#DejaVuSans-48"/>
       <use x="224.560547" xlink:href="#DejaVuSans-49"/>
      </g>
     </g>
    </g>
    <g id="xtick_5">
     <g id="line2d_5">
      <path clip-path="url(#pff7e72a79c)" d="M 65.949535 507.867141 
L 65.949535 11.379141 
" style="fill:none;stroke:#1a1a1a;stroke-dasharray:1.85,0.8;stroke-dashoffset:0;stroke-opacity:0.3;stroke-width:0.5;"/>
     </g>
     <g id="line2d_6"/>
    </g>
    <g id="xtick_6">
     <g id="line2d_7">
      <path clip-path="url(#pff7e72a79c)" d="M 102.998316 507.867141 
L 102.998316 11.379141 
" style="fill:none;stroke:#1a1a1a;stroke-dasharray:1.85,0.8;stroke-dashoffset:0;stroke-opacity:0.3;stroke-width:0.5;"/>
     </g>
     <g id="line2d_8"/>
    </g>
    <g id="xtick_7">
     <g id="line2d_9">
      <path clip-path="url(#pff7e72a79c)" d="M 140.047096 507.867141 
L 140.047096 11.379141 
" style="fill:none;stroke:#1a1a1a;stroke-dasharray:1.85,0.8;stroke-dashoffset:0;stroke-opacity:0.3;stroke-width:0.5;"/>
     </g>
     <g id="line2d_10"/>
    </g>
    <g id="xtick_8">
     <g id="line2d_11">
      <path clip-path="url(#pff7e72a79c)" d="M 177.095877 507.867141 
L 177.095877 11.379141 
" style="fill:none;stroke:#1a1a1a;stroke-dasharray:1.85,0.8;stroke-dashoffset:0;stroke-opacity:0.3;stroke-width:0.5;"/>
     </g>
     <g id="line2d_12"/>
    </g>
    <g id="xtick_9">
     <g id="line2d_13">
      <path clip-path="url(#pff7e72a79c)" d="M 214.144657 507.867141 
L 214.144657 11.379141 
" style="fill:none;stroke:#1a1a1a;stroke-dasharray:1.85,0.8;stroke-dashoffset:0;stroke-opacity:0.3;stroke-width:0.5;"/>
     </g>
     <g id="line2d_14"/>
    </g>
    <g id="xtick_10">
     <g id="line2d_15">
      <path clip-path="url(#pff7e72a79c)" d="M 251.193437 507.867141 
L 251.193437 11.379141 
" style="fill:none;stroke:#1a1a1a;stroke-dasharray:1.85,0.8;stroke-dashoffset:0;stroke-opacity:0.3;stroke-width:0.5;"/>
     </g>
     <g id="line2d_16"/>
    </g>
    <g id="xtick_11">
     <g id="line2d_17">
      <path clip-path="url(#pff7e72a79c)" d="M 288.242218 507.867141 
L 288.242218 11.379141 
" style="fill:none;stroke:#1a1a1a;stroke-dasharray:1.85,0.8;stroke-dashoffset:0;stroke-opacity:0.3;stroke-width:0.5;"/>
     </g>
     <g id="line2d_18"/>
    </g>
    <g id="xtick_12">
     <g id="line2d_19">
      <path clip-path="url(#pff7e72a79c)" d="M 325.290998 507.867141 
L 325.290998 11.379141 
" style="fill:none;stroke:#1a1a1a;stroke-dasharray:1.85,0.8;stroke-dashoffset:0;stroke-opacity:0.3;stroke-width:0.5;"/>
     </g>
     <g id="line2d_20"/>
    </g>
    <g id="xtick_13">
     <g id="line2d_21">
      <path clip-path="url(#pff7e72a79c)" d="M 362.339779 507.867141 
L 362.339779 11.379141 
" style="fill:none;stroke:#1a1a1a;stroke-dasharray:1.85,0.8;stroke-dashoffset:0;stroke-opacity:0.3;stroke-width:0.5;"/>
     </g>
     <g id="line2d_22"/>
    </g>
    <g id="xtick_14">
     <g id="line2d_23">
      <path clip-path="url(#pff7e72a79c)" d="M 399.388559 507.867141 
L 399.388559 11.379141 
" style="fill:none;stroke:#1a1a1a;stroke-dasharray:1.85,0.8;stroke-dashoffset:0;stroke-opacity:0.3;stroke-width:0.5;"/>
     </g>
     <g id="line2d_24"/>
    </g>
    <g id="xtick_15">
     <g id="line2d_25">
      <path clip-path="url(#pff7e72a79c)" d="M 436.43734 507.867141 
L 436.43734 11.379141 
" style="fill:none;stroke:#1a1a1a;stroke-dasharray:1.85,0.8;stroke-dashoffset:0;stroke-opacity:0.3;stroke-width:0.5;"/>
     </g>
     <g id="line2d_26"/>
    </g>
    <g id="xtick_16">
     <g id="line2d_27">
      <path clip-path="url(#pff7e72a79c)" d="M 473.48612 507.867141 
L 473.48612 11.379141 
" style="fill:none;stroke:#1a1a1a;stroke-dasharray:1.85,0.8;stroke-dashoffset:0;stroke-opacity:0.3;stroke-width:0.5;"/>
     </g>
     <g id="line2d_28"/>
    </g>
    <g id="xtick_17">
     <g id="line2d_29">
      <path clip-path="url(#pff7e72a79c)" d="M 510.534901 507.867141 
L 510.534901 11.379141 
" style="fill:none;stroke:#1a1a1a;stroke-dasharray:1.85,0.8;stroke-dashoffset:0;stroke-opacity:0.3;stroke-width:0.5;"/>
     </g>
     <g id="line2d_30"/>
    </g>
    <g id="xtick_18">
     <g id="line2d_31">
      <path clip-path="url(#pff7e72a79c)" d="M 547.583681 507.867141 
L 547.583681 11.379141 
" style="fill:none;stroke:#1a1a1a;stroke-dasharray:1.85,0.8;stroke-dashoffset:0;stroke-opacity:0.3;stroke-width:0.5;"/>
     </g>
     <g id="line2d_32"/>
    </g>
    <g id="xtick_19">
     <g id="line2d_33">
      <path clip-path="url(#pff7e72a79c)" d="M 584.632462 507.867141 
L 584.632462 11.379141 
" style="fill:none;stroke:#1a1a1a;stroke-dasharray:1.85,0.8;stroke-dashoffset:0;stroke-opacity:0.3;stroke-width:0.5;"/>
     </g>
     <g id="line2d_34"/>
    </g>
    <g id="xtick_20">
     <g id="line2d_35">
      <path clip-path="url(#pff7e72a79c)" d="M 621.681242 507.867141 
L 621.681242 11.379141 
" style="fill:none;stroke:#1a1a1a;stroke-dasharray:1.85,0.8;stroke-dashoffset:0;stroke-opacity:0.3;stroke-width:0.5;"/>
     </g>
     <g id="line2d_36"/>
    </g>
    <g id="xtick_21">
     <g id="line2d_37">
      <path clip-path="url(#pff7e72a79c)" d="M 658.730023 507.867141 
L 658.730023 11.379141 
" style="fill:none;stroke:#1a1a1a;stroke-dasharray:1.85,0.8;stroke-dashoffset:0;stroke-opacity:0.3;stroke-width:0.5;"/>
     </g>
     <g id="line2d_38"/>
    </g>
   </g>
   <g id="matplotlib.axis_2">
    <g id="ytick_1">
     <g id="line2d_39">
      <defs>
       <path d="M 0 0 
L -6 0 
" id="mef977146d9" style="stroke:#262626;stroke-width:1.25;"/>
      </defs>
      <g>
       <use style="fill:#262626;stroke:#262626;stroke-width:1.25;" x="34.193437" xlink:href="#mef977146d9" y="507.867141"/>
      </g>
     </g>
     <g id="text_5">
      <!-- 0.1 -->
      <defs>
       <path d="M 10.6875 12.40625 
L 21 12.40625 
L 21 0 
L 10.6875 0 
z
" id="DejaVuSans-46"/>
      </defs>
      <g style="fill:#262626;" transform="translate(7.2 512.046281)scale(0.11 -0.11)">
       <use xlink:href="#DejaVuSans-48"/>
       <use x="63.623047" xlink:href="#DejaVuSans-46"/>
       <use x="95.410156" xlink:href="#DejaVuSans-49"/>
      </g>
     </g>
    </g>
    <g id="ytick_2">
     <g id="line2d_40">
      <g>
       <use style="fill:#262626;stroke:#262626;stroke-width:1.25;" x="34.193437" xlink:href="#mef977146d9" y="425.119141"/>
      </g>
     </g>
     <g id="text_6">
      <!-- 0.2 -->
      <defs>
       <path d="M 19.1875 8.296875 
L 53.609375 8.296875 
L 53.609375 0 
L 7.328125 0 
L 7.328125 8.296875 
Q 12.9375 14.109375 22.625 23.890625 
Q 32.328125 33.6875 34.8125 36.53125 
Q 39.546875 41.84375 41.421875 45.53125 
Q 43.3125 49.21875 43.3125 52.78125 
Q 43.3125 58.59375 39.234375 62.25 
Q 35.15625 65.921875 28.609375 65.921875 
Q 23.96875 65.921875 18.8125 64.3125 
Q 13.671875 62.703125 7.8125 59.421875 
L 7.8125 69.390625 
Q 13.765625 71.78125 18.9375 73 
Q 24.125 74.21875 28.421875 74.21875 
Q 39.75 74.21875 46.484375 68.546875 
Q 53.21875 62.890625 53.21875 53.421875 
Q 53.21875 48.921875 51.53125 44.890625 
Q 49.859375 40.875 45.40625 35.40625 
Q 44.1875 33.984375 37.640625 27.21875 
Q 31.109375 20.453125 19.1875 8.296875 
z
" id="DejaVuSans-50"/>
      </defs>
      <g style="fill:#262626;" transform="translate(7.2 429.298281)scale(0.11 -0.11)">
       <use xlink:href="#DejaVuSans-48"/>
       <use x="63.623047" xlink:href="#DejaVuSans-46"/>
       <use x="95.410156" xlink:href="#DejaVuSans-50"/>
      </g>
     </g>
    </g>
    <g id="ytick_3">
     <g id="line2d_41">
      <g>
       <use style="fill:#262626;stroke:#262626;stroke-width:1.25;" x="34.193437" xlink:href="#mef977146d9" y="342.371141"/>
      </g>
     </g>
     <g id="text_7">
      <!-- 0.3 -->
      <g style="fill:#262626;" transform="translate(7.2 346.550281)scale(0.11 -0.11)">
       <use xlink:href="#DejaVuSans-48"/>
       <use x="63.623047" xlink:href="#DejaVuSans-46"/>
       <use x="95.410156" xlink:href="#DejaVuSans-51"/>
      </g>
     </g>
    </g>
    <g id="ytick_4">
     <g id="line2d_42">
      <g>
       <use style="fill:#262626;stroke:#262626;stroke-width:1.25;" x="34.193437" xlink:href="#mef977146d9" y="259.623141"/>
      </g>
     </g>
     <g id="text_8">
      <!-- 0.4 -->
      <g style="fill:#262626;" transform="translate(7.2 263.802281)scale(0.11 -0.11)">
       <use xlink:href="#DejaVuSans-48"/>
       <use x="63.623047" xlink:href="#DejaVuSans-46"/>
       <use x="95.410156" xlink:href="#DejaVuSans-52"/>
      </g>
     </g>
    </g>
    <g id="ytick_5">
     <g id="line2d_43">
      <g>
       <use style="fill:#262626;stroke:#262626;stroke-width:1.25;" x="34.193437" xlink:href="#mef977146d9" y="176.875141"/>
      </g>
     </g>
     <g id="text_9">
      <!-- 0.5 -->
      <g style="fill:#262626;" transform="translate(7.2 181.054281)scale(0.11 -0.11)">
       <use xlink:href="#DejaVuSans-48"/>
       <use x="63.623047" xlink:href="#DejaVuSans-46"/>
       <use x="95.410156" xlink:href="#DejaVuSans-53"/>
      </g>
     </g>
    </g>
    <g id="ytick_6">
     <g id="line2d_44">
      <g>
       <use style="fill:#262626;stroke:#262626;stroke-width:1.25;" x="34.193437" xlink:href="#mef977146d9" y="94.127141"/>
      </g>
     </g>
     <g id="text_10">
      <!-- 0.6 -->
      <g style="fill:#262626;" transform="translate(7.2 98.306281)scale(0.11 -0.11)">
       <use xlink:href="#DejaVuSans-48"/>
       <use x="63.623047" xlink:href="#DejaVuSans-46"/>
       <use x="95.410156" xlink:href="#DejaVuSans-54"/>
      </g>
     </g>
    </g>
    <g id="ytick_7">
     <g id="line2d_45">
      <g>
       <use style="fill:#262626;stroke:#262626;stroke-width:1.25;" x="34.193437" xlink:href="#mef977146d9" y="11.379141"/>
      </g>
     </g>
     <g id="text_11">
      <!-- 0.7 -->
      <defs>
       <path d="M 8.203125 72.90625 
L 55.078125 72.90625 
L 55.078125 68.703125 
L 28.609375 0 
L 18.3125 0 
L 43.21875 64.59375 
L 8.203125 64.59375 
z
" id="DejaVuSans-55"/>
      </defs>
      <g style="fill:#262626;" transform="translate(7.2 15.558281)scale(0.11 -0.11)">
       <use xlink:href="#DejaVuSans-48"/>
       <use x="63.623047" xlink:href="#DejaVuSans-46"/>
       <use x="95.410156" xlink:href="#DejaVuSans-55"/>
      </g>
     </g>
    </g>
   </g>
   <g id="line2d_46">
    <path clip-path="url(#pff7e72a79c)" d="M 55.364169 412.171263 
L 60.656852 446.219508 
L 65.949535 298.569964 
L 71.242218 464.542678 
L 76.534901 474.9038 
L 81.827584 472.028644 
L 87.120267 446.55138 
L 92.41295 398.976378 
L 97.705633 437.878902 
L 102.998316 458.767467 
L 108.290998 440.423803 
L 113.583681 448.665099 
L 118.876364 476.929356 
L 124.169047 447.782241 
L 129.46173 428.519824 
L 134.754413 470.564393 
L 140.047096 467.397412 
L 145.339779 479.307848 
L 150.632462 459.084422 
L 155.925145 476.887212 
L 161.217828 433.304991 
L 166.510511 407.555204 
L 171.803194 432.744545 
L 177.095877 415.764389 
L 182.388559 425.031454 
L 187.681242 424.601837 
L 192.973925 413.419602 
L 198.266608 354.312961 
L 203.559291 334.562483 
L 208.851974 387.778663 
L 214.144657 379.119375 
L 219.43734 409.386103 
L 224.730023 402.941602 
L 230.022706 406.56006 
L 235.315389 383.182485 
L 240.608072 345.308382 
L 245.900755 381.013158 
L 251.193437 366.184177 
L 256.48612 379.928956 
L 261.778803 383.763478 
L 267.071486 376.351177 
L 272.364169 322.454321 
L 277.656852 297.908193 
L 282.949535 350.274871 
L 288.242218 346.5457 
L 293.534901 360.291904 
L 298.827584 366.927732 
L 304.120267 385.237678 
L 309.41295 367.790589 
L 314.705633 276.788953 
L 319.998316 351.783532 
L 325.290998 382.598963 
L 330.583681 383.44386 
L 335.876364 395.121587 
L 341.169047 407.818736 
L 346.46173 379.619506 
L 351.754413 278.98995 
L 357.047096 367.336659 
L 362.339779 402.194596 
L 367.632462 402.367637 
L 372.925145 351.65809 
L 378.217828 413.772471 
L 383.510511 394.97126 
L 388.803194 355.397549 
L 394.095877 407.578126 
L 399.388559 411.694504 
L 404.681242 393.279295 
L 409.973925 417.948021 
L 415.266608 411.233522 
L 420.559291 403.411439 
L 425.851974 372.198549 
L 431.144657 399.388427 
L 436.43734 401.528048 
L 441.730023 412.981759 
L 447.022706 412.591787 
L 452.315389 424.239837 
L 457.608072 419.365916 
L 462.900755 398.02848 
L 468.193437 417.804563 
L 473.48612 424.239631 
L 478.778803 422.574949 
L 484.071486 437.773597 
L 489.364169 440.063057 
L 494.656852 432.514898 
L 499.949535 382.608037 
L 505.242218 406.471287 
L 510.534901 416.909638 
L 515.827584 413.235515 
L 521.120267 434.795354 
L 526.41295 439.20174 
L 531.705633 426.833825 
L 536.998316 406.699599 
L 542.290998 390.090713 
L 547.583681 422.943615 
L 552.876364 426.432974 
L 558.169047 428.919781 
L 563.46173 449.621667 
L 568.754413 428.929582 
L 574.047096 401.171856 
L 579.339779 429.969213 
L 584.632462 437.670437 
L 589.925145 444.168849 
L 595.217828 440.389531 
L 600.510511 439.37051 
L 605.803194 423.488436 
L 611.095877 388.54865 
L 616.388559 430.104668 
L 621.681242 435.443206 
L 626.973925 425.880604 
L 632.266608 435.807038 
L 637.559291 430.19505 
L 642.851974 441.701287 
L 648.144657 405.067637 
L 653.43734 422.160192 
L 658.730023 422.223322 
L 664.022706 440.194277 
L 669.315389 442.244108 
" style="fill:none;stroke:#0173b2;stroke-linecap:round;stroke-width:1.5;"/>
   </g>
   <g id="line2d_47">
    <path clip-path="url(#pff7e72a79c)" d="M 55.364169 385.894745 
L 60.656852 418.847777 
L 65.949535 298.788834 
L 71.242218 442.537441 
L 76.534901 453.025095 
L 81.827584 445.96491 
L 87.120267 418.811312 
L 92.41295 369.113709 
L 97.705633 407.717544 
L 102.998316 429.906857 
L 108.290998 413.304982 
L 113.583681 430.678277 
L 118.876364 451.990983 
L 124.169047 419.974728 
L 129.46173 399.424774 
L 134.754413 441.087827 
L 140.047096 437.298254 
L 145.339779 450.183246 
L 150.632462 426.450267 
L 155.925145 444.059617 
L 161.217828 396.300768 
L 166.510511 367.780139 
L 171.803194 391.150609 
L 177.095877 372.553085 
L 182.388559 379.33006 
L 187.681242 383.29527 
L 192.973925 370.995334 
L 198.266608 317.799957 
L 203.559291 297.350273 
L 208.851974 339.925334 
L 214.144657 330.00648 
L 219.43734 366.806757 
L 224.730023 357.917714 
L 230.022706 361.948019 
L 235.315389 339.872693 
L 240.608072 304.949906 
L 245.900755 338.759805 
L 251.193437 320.790728 
L 256.48612 334.925906 
L 261.778803 336.916734 
L 267.071486 327.983299 
L 272.364169 278.281322 
L 277.656852 257.755787 
L 282.949535 300.533769 
L 288.242218 296.685248 
L 293.534901 315.673349 
L 298.827584 319.618616 
L 304.120267 340.291587 
L 309.41295 322.277146 
L 314.705633 229.730295 
L 319.998316 305.124756 
L 325.290998 333.827946 
L 330.583681 336.851373 
L 335.876364 345.233133 
L 341.169047 356.344221 
L 346.46173 334.597834 
L 351.754413 243.386577 
L 357.047096 321.351045 
L 362.339779 350.257571 
L 367.632462 356.11418 
L 372.925145 307.387705 
L 378.217828 369.525601 
L 383.510511 352.899415 
L 388.803194 312.843354 
L 394.095877 364.206336 
L 399.388559 369.546069 
L 404.681242 345.285086 
L 409.973925 376.29735 
L 415.266608 369.297199 
L 420.559291 365.547962 
L 425.851974 331.634818 
L 431.144657 355.092276 
L 436.43734 353.815658 
L 441.730023 368.160085 
L 447.022706 371.385657 
L 452.315389 377.082645 
L 457.608072 382.37592 
L 462.900755 360.091586 
L 468.193437 374.32044 
L 473.48612 386.081779 
L 478.778803 377.441157 
L 484.071486 396.229583 
L 489.364169 401.482826 
L 494.656852 398.641688 
L 499.949535 343.542388 
L 505.242218 365.657087 
L 510.534901 375.142859 
L 515.827584 374.154644 
L 521.120267 397.421908 
L 526.41295 401.838957 
L 531.705633 390.626448 
L 536.998316 369.437436 
L 542.290998 356.893969 
L 547.583681 388.031233 
L 552.876364 387.497354 
L 558.169047 390.323812 
L 563.46173 413.939569 
L 568.754413 398.221752 
L 574.047096 370.145435 
L 579.339779 392.249091 
L 584.632462 397.28363 
L 589.925145 406.789043 
L 595.217828 405.446084 
L 600.510511 405.805132 
L 605.803194 396.82342 
L 611.095877 360.690904 
L 616.388559 395.867887 
L 621.681242 395.758467 
L 626.973925 388.045544 
L 632.266608 401.238277 
L 637.559291 392.304759 
L 642.851974 407.928204 
L 648.144657 367.680184 
L 653.43734 387.046854 
L 658.730023 383.355232 
L 664.022706 406.650633 
L 669.315389 404.342533 
" style="fill:none;stroke:#de8f05;stroke-linecap:round;stroke-width:1.5;"/>
   </g>
   <g id="line2d_48">
    <path clip-path="url(#pff7e72a79c)" d="M 55.364169 359.929967 
L 60.656852 389.032822 
L 65.949535 299.131984 
L 71.242218 420.851062 
L 76.534901 427.572946 
L 81.827584 417.250197 
L 87.120267 393.065833 
L 92.41295 337.298824 
L 97.705633 380.269656 
L 102.998316 400.591398 
L 108.290998 383.286535 
L 113.583681 402.750439 
L 118.876364 424.631008 
L 124.169047 389.954828 
L 129.46173 365.965264 
L 134.754413 408.011577 
L 140.047096 402.567443 
L 145.339779 415.779397 
L 150.632462 389.941699 
L 155.925145 414.344131 
L 161.217828 361.445709 
L 166.510511 333.494521 
L 171.803194 359.085833 
L 177.095877 335.873061 
L 182.388559 344.409153 
L 187.681242 343.603881 
L 192.973925 337.656628 
L 198.266608 293.515201 
L 203.559291 264.07905 
L 208.851974 305.056166 
L 214.144657 290.544066 
L 219.43734 331.573847 
L 224.730023 317.337213 
L 230.022706 315.648353 
L 235.315389 297.249169 
L 240.608072 266.094728 
L 245.900755 298.274669 
L 251.193437 284.579608 
L 256.48612 292.122752 
L 261.778803 290.759256 
L 267.071486 285.928441 
L 272.364169 235.403993 
L 277.656852 222.64777 
L 282.949535 255.530671 
L 288.242218 257.463252 
L 293.534901 277.507461 
L 298.827584 280.176649 
L 304.120267 299.430557 
L 309.41295 285.131771 
L 314.705633 194.041176 
L 319.998316 262.633054 
L 325.290998 289.368764 
L 330.583681 291.966662 
L 335.876364 300.656531 
L 341.169047 311.275748 
L 346.46173 290.810512 
L 351.754413 209.616386 
L 357.047096 279.143753 
L 362.339779 307.625693 
L 367.632462 312.854281 
L 372.925145 268.10263 
L 378.217828 325.484056 
L 383.510511 309.72261 
L 388.803194 276.013103 
L 394.095877 321.749096 
L 399.388559 322.19007 
L 404.681242 303.495865 
L 409.973925 334.272125 
L 415.266608 322.894746 
L 420.559291 326.587013 
L 425.851974 288.760593 
L 431.144657 308.22691 
L 436.43734 315.490878 
L 441.730023 324.603595 
L 447.022706 326.950301 
L 452.315389 330.207471 
L 457.608072 341.560065 
L 462.900755 319.468823 
L 468.193437 328.442014 
L 473.48612 340.771034 
L 478.778803 333.78864 
L 484.071486 350.298965 
L 489.364169 354.191464 
L 494.656852 356.81581 
L 499.949535 305.48943 
L 505.242218 325.432019 
L 510.534901 331.594301 
L 515.827584 335.346408 
L 521.120267 355.758636 
L 526.41295 364.258181 
L 531.705633 354.942711 
L 536.998316 333.183065 
L 542.290998 318.846893 
L 547.583681 347.570176 
L 552.876364 345.750189 
L 558.169047 349.62399 
L 563.46173 375.860426 
L 568.754413 362.383561 
L 574.047096 329.521663 
L 579.339779 352.701259 
L 584.632462 359.148781 
L 589.925145 367.657022 
L 595.217828 365.036962 
L 600.510511 363.746011 
L 605.803194 361.543691 
L 611.095877 326.26085 
L 616.388559 355.875924 
L 621.681242 359.011808 
L 626.973925 346.282795 
L 632.266608 358.336231 
L 637.559291 355.928634 
L 642.851974 370.975984 
L 648.144657 328.223475 
L 653.43734 339.293191 
L 658.730023 339.570495 
L 664.022706 364.808628 
L 669.315389 363.700402 
" style="fill:none;stroke:#029e73;stroke-linecap:round;stroke-width:1.5;"/>
   </g>
   <g id="line2d_49">
    <path clip-path="url(#pff7e72a79c)" d="M 55.364169 358.959773 
L 60.656852 389.775973 
L 65.949535 285.335648 
L 71.242218 419.510006 
L 76.534901 425.522494 
L 81.827584 418.161301 
L 87.120267 390.80119 
L 92.41295 336.343017 
L 97.705633 376.382497 
L 102.998316 397.870526 
L 108.290998 379.240606 
L 113.583681 398.933327 
L 118.876364 416.686434 
L 124.169047 386.129151 
L 129.46173 355.832311 
L 134.754413 399.781184 
L 140.047096 390.768088 
L 145.339779 400.538499 
L 150.632462 383.570974 
L 155.925145 387.910636 
L 161.217828 333.846914 
L 166.510511 285.943825 
L 171.803194 299.147154 
L 177.095877 278.888679 
L 182.388559 278.796054 
L 187.681242 281.196603 
L 192.973925 272.955128 
L 198.266608 229.760409 
L 203.559291 202.578626 
L 208.851974 220.248768 
L 214.144657 215.156956 
L 219.43734 258.469367 
L 224.730023 242.267261 
L 230.022706 250.943108 
L 235.315389 239.336368 
L 240.608072 198.536094 
L 245.900755 218.587479 
L 251.193437 204.055848 
L 256.48612 212.161996 
L 261.778803 219.191374 
L 267.071486 216.059636 
L 272.364169 180.296719 
L 277.656852 159.725899 
L 282.949535 183.911051 
L 288.242218 183.044898 
L 293.534901 202.566939 
L 298.827584 204.748083 
L 304.120267 227.501056 
L 309.41295 221.784001 
L 314.705633 118.422591 
L 319.998316 189.574947 
L 325.290998 209.161047 
L 330.583681 212.817147 
L 335.876364 217.555055 
L 341.169047 236.893312 
L 346.46173 228.89798 
L 351.754413 142.396021 
L 357.047096 203.861856 
L 362.339779 227.85595 
L 367.632462 235.380495 
L 372.925145 196.763886 
L 378.217828 252.215039 
L 383.510511 250.208979 
L 388.803194 208.7697 
L 394.095877 238.366512 
L 399.388559 245.635805 
L 404.681242 219.744106 
L 409.973925 255.847557 
L 415.266608 257.488824 
L 420.559291 278.346115 
L 425.851974 226.72586 
L 431.144657 234.125981 
L 436.43734 242.108113 
L 441.730023 246.844142 
L 447.022706 250.200112 
L 452.315389 252.494728 
L 457.608072 290.455585 
L 462.900755 257.908733 
L 468.193437 252.874212 
L 473.48612 267.461545 
L 478.778803 262.694033 
L 484.071486 280.19315 
L 489.364169 298.070569 
L 494.656852 310.520059 
L 499.949535 250.179722 
L 505.242218 250.241339 
L 510.534901 270.632669 
L 515.827584 267.632375 
L 521.120267 296.562112 
L 526.41295 312.499351 
L 531.705633 311.447247 
L 536.998316 287.000106 
L 542.290998 275.411302 
L 547.583681 290.59214 
L 552.876364 280.874786 
L 558.169047 293.490354 
L 563.46173 321.627548 
L 568.754413 326.923051 
L 574.047096 287.836268 
L 579.339779 295.893075 
L 584.632462 303.755225 
L 589.925145 312.638823 
L 595.217828 314.734919 
L 600.510511 314.868993 
L 605.803194 329.362725 
L 611.095877 293.876952 
L 616.388559 306.953628 
L 621.681242 310.743688 
L 626.973925 295.186604 
L 632.266608 316.78716 
L 637.559291 318.535426 
L 642.851974 343.366359 
L 648.144657 291.040035 
L 653.43734 293.308578 
L 658.730023 294.999007 
L 664.022706 320.505592 
L 669.315389 322.437979 
" style="fill:none;stroke:#d55e00;stroke-linecap:round;stroke-width:1.5;"/>
   </g>
   <g id="line2d_50">
    <path clip-path="url(#pff7e72a79c)" d="M 55.364169 375.136634 
L 60.656852 399.632345 
L 65.949535 318.381484 
L 71.242218 417.906247 
L 76.534901 430.104363 
L 81.827584 421.567803 
L 87.120267 404.241573 
L 92.41295 344.161576 
L 97.705633 379.793378 
L 102.998316 412.602689 
L 108.290998 393.1861 
L 113.583681 410.008039 
L 118.876364 424.486303 
L 124.169047 406.310229 
L 129.46173 382.441881 
L 134.754413 411.647153 
L 140.047096 403.654446 
L 145.339779 420.910435 
L 150.632462 408.250715 
L 155.925145 414.373006 
L 161.217828 375.201249 
L 166.510511 349.877478 
L 171.803194 362.07864 
L 177.095877 341.06944 
L 182.388559 345.718904 
L 187.681242 351.092398 
L 192.973925 347.067713 
L 198.266608 317.54335 
L 203.559291 289.761422 
L 208.851974 312.000618 
L 214.144657 307.254721 
L 219.43734 338.025861 
L 224.730023 329.401374 
L 230.022706 331.263146 
L 235.315389 315.817048 
L 240.608072 287.599922 
L 245.900755 308.79146 
L 251.193437 299.383116 
L 256.48612 275.064782 
L 261.778803 280.578294 
L 267.071486 278.973257 
L 272.364169 247.713125 
L 277.656852 233.526671 
L 282.949535 256.379212 
L 288.242218 260.456265 
L 293.534901 278.21265 
L 298.827584 283.951644 
L 304.120267 297.584669 
L 309.41295 292.700066 
L 314.705633 221.878 
L 319.998316 276.397064 
L 325.290998 284.971352 
L 330.583681 290.697686 
L 335.876364 297.37461 
L 341.169047 310.272019 
L 346.46173 305.950183 
L 351.754413 238.314357 
L 357.047096 292.116679 
L 362.339779 304.970854 
L 367.632462 317.852035 
L 372.925145 281.404268 
L 378.217828 330.839308 
L 383.510511 321.804731 
L 388.803194 291.522713 
L 394.095877 321.38773 
L 399.388559 325.305652 
L 404.681242 303.193967 
L 409.973925 328.587969 
L 415.266608 288.714207 
L 420.559291 298.471951 
L 425.851974 268.182589 
L 431.144657 276.672384 
L 436.43734 277.063322 
L 441.730023 285.071758 
L 447.022706 289.465762 
L 452.315389 297.938188 
L 457.608072 308.328418 
L 462.900755 292.730911 
L 468.193437 299.45387 
L 473.48612 309.503032 
L 478.778803 299.491645 
L 484.071486 315.859687 
L 489.364169 323.954888 
L 494.656852 328.897327 
L 499.949535 281.399277 
L 505.242218 288.511472 
L 510.534901 302.881553 
L 515.827584 302.557003 
L 521.120267 322.381704 
L 526.41295 329.554705 
L 531.705633 326.586452 
L 536.998316 310.829233 
L 542.290998 301.519634 
L 547.583681 317.18074 
L 552.876364 313.409611 
L 558.169047 320.067468 
L 563.46173 340.06327 
L 568.754413 324.127263 
L 574.047096 290.251545 
L 579.339779 301.643757 
L 584.632462 318.590532 
L 589.925145 324.419356 
L 595.217828 329.855559 
L 600.510511 323.12154 
L 605.803194 328.39643 
L 611.095877 299.857852 
L 616.388559 308.815438 
L 621.681242 310.910398 
L 626.973925 301.725194 
L 632.266608 310.190169 
L 637.559291 311.914067 
L 642.851974 326.325829 
L 648.144657 282.818673 
L 653.43734 283.355633 
L 658.730023 303.971636 
L 664.022706 328.208872 
L 669.315389 328.281088 
" style="fill:none;stroke:#cc78bc;stroke-linecap:round;stroke-width:1.5;"/>
   </g>
   <g id="patch_3">
    <path d="M 34.193437 507.867141 
L 34.193437 11.379141 
" style="fill:none;stroke:#cccccc;stroke-linecap:square;stroke-linejoin:miter;stroke-width:1.25;"/>
   </g>
   <g id="patch_4">
    <path d="M 34.193437 507.867141 
L 685.193437 507.867141 
" style="fill:none;stroke:#cccccc;stroke-linecap:square;stroke-linejoin:miter;stroke-width:1.25;"/>
   </g>
  </g>
 </g>
 <defs>
  <clipPath id="pff7e72a79c">
   <rect height="496.488" width="651" x="34.193437" y="11.379141"/>
  </clipPath>
 </defs>
</svg>
