<?xml version="1.0" encoding="utf-8" standalone="no"?>
<!DOCTYPE svg PUBLIC "-//W3C//DTD SVG 1.1//EN"
  "http://www.w3.org/Graphics/SVG/1.1/DTD/svg11.dtd">
<!-- Created with matplotlib (https://matplotlib.org/) -->
<svg height="237.320278pt" version="1.1" viewBox="0 0 301.793438 237.320278" width="301.793438pt" xmlns="http://www.w3.org/2000/svg" xmlns:xlink="http://www.w3.org/1999/xlink">
 <defs>
  <style type="text/css">
*{stroke-linecap:butt;stroke-linejoin:round;}
  </style>
 </defs>
 <g id="figure_1">
  <g id="patch_1">
   <path d="M 0 237.320278 
L 301.793438 237.320278 
L 301.793438 0 
L 0 0 
z
" style="fill:#ffffff;"/>
  </g>
  <g id="axes_1">
   <g id="patch_2">
    <path d="M 34.193438 209.974341 
L 294.593438 209.974341 
L 294.593438 11.379141 
L 34.193438 11.379141 
z
" style="fill:#ffffff;"/>
   </g>
   <g id="matplotlib.axis_1">
    <g id="xtick_1">
     <g id="line2d_1">
      <defs>
       <path d="M 0 0 
L 0 6 
" id="m29c26aeb47" style="stroke:#262626;stroke-width:1.25;"/>
      </defs>
      <g>
       <use style="fill:#262626;stroke:#262626;stroke-width:1.25;" x="57.481242" xlink:href="#m29c26aeb47" y="209.974341"/>
      </g>
     </g>
     <g id="text_1">
      <!-- 03/01 -->
      <defs>
       <path d="M 31.78125 66.40625 
Q 24.171875 66.40625 20.328125 58.90625 
Q 16.5 51.421875 16.5 36.375 
Q 16.5 21.390625 20.328125 13.890625 
Q 24.171875 6.390625 31.78125 6.390625 
Q 39.453125 6.390625 43.28125 13.890625 
Q 47.125 21.390625 47.125 36.375 
Q 47.125 51.421875 43.28125 58.90625 
Q 39.453125 66.40625 31.78125 66.40625 
z
M 31.78125 74.21875 
Q 44.046875 74.21875 50.515625 64.515625 
Q 56.984375 54.828125 56.984375 36.375 
Q 56.984375 17.96875 50.515625 8.265625 
Q 44.046875 -1.421875 31.78125 -1.421875 
Q 19.53125 -1.421875 13.0625 8.265625 
Q 6.59375 17.96875 6.59375 36.375 
Q 6.59375 54.828125 13.0625 64.515625 
Q 19.53125 74.21875 31.78125 74.21875 
z
" id="DejaVuSans-48"/>
       <path d="M 40.578125 39.3125 
Q 47.65625 37.796875 51.625 33 
Q 55.609375 28.21875 55.609375 21.1875 
Q 55.609375 10.40625 48.1875 4.484375 
Q 40.765625 -1.421875 27.09375 -1.421875 
Q 22.515625 -1.421875 17.65625 -0.515625 
Q 12.796875 0.390625 7.625 2.203125 
L 7.625 11.71875 
Q 11.71875 9.328125 16.59375 8.109375 
Q 21.484375 6.890625 26.8125 6.890625 
Q 36.078125 6.890625 40.9375 10.546875 
Q 45.796875 14.203125 45.796875 21.1875 
Q 45.796875 27.640625 41.28125 31.265625 
Q 36.765625 34.90625 28.71875 34.90625 
L 20.21875 34.90625 
L 20.21875 43.015625 
L 29.109375 43.015625 
Q 36.375 43.015625 40.234375 45.921875 
Q 44.09375 48.828125 44.09375 54.296875 
Q 44.09375 59.90625 40.109375 62.90625 
Q 36.140625 65.921875 28.71875 65.921875 
Q 24.65625 65.921875 20.015625 65.03125 
Q 15.375 64.15625 9.8125 62.3125 
L 9.8125 71.09375 
Q 15.4375 72.65625 20.34375 73.4375 
Q 25.25 74.21875 29.59375 74.21875 
Q 40.828125 74.21875 47.359375 69.109375 
Q 53.90625 64.015625 53.90625 55.328125 
Q 53.90625 49.265625 50.4375 45.09375 
Q 46.96875 40.921875 40.578125 39.3125 
z
" id="DejaVuSans-51"/>
       <path d="M 25.390625 72.90625 
L 33.6875 72.90625 
L 8.296875 -9.28125 
L 0 -9.28125 
z
" id="DejaVuSans-47"/>
       <path d="M 12.40625 8.296875 
L 28.515625 8.296875 
L 28.515625 63.921875 
L 10.984375 60.40625 
L 10.984375 69.390625 
L 28.421875 72.90625 
L 38.28125 72.90625 
L 38.28125 8.296875 
L 54.390625 8.296875 
L 54.390625 0 
L 12.40625 0 
z
" id="DejaVuSans-49"/>
      </defs>
      <g style="fill:#262626;" transform="translate(41.63093 227.832622)scale(0.11 -0.11)">
       <use xlink:href="#DejaVuSans-48"/>
       <use x="63.623047" xlink:href="#DejaVuSans-51"/>
       <use x="127.246094" xlink:href="#DejaVuSans-47"/>
       <use x="160.9375" xlink:href="#DejaVuSans-48"/>
       <use x="224.560547" xlink:href="#DejaVuSans-49"/>
      </g>
     </g>
    </g>
    <g id="xtick_2">
     <g id="line2d_2">
      <g>
       <use style="fill:#262626;stroke:#262626;stroke-width:1.25;" x="123.110511" xlink:href="#m29c26aeb47" y="209.974341"/>
      </g>
     </g>
     <g id="text_2">
      <!-- 04/01 -->
      <defs>
       <path d="M 37.796875 64.3125 
L 12.890625 25.390625 
L 37.796875 25.390625 
z
M 35.203125 72.90625 
L 47.609375 72.90625 
L 47.609375 25.390625 
L 58.015625 25.390625 
L 58.015625 17.1875 
L 47.609375 17.1875 
L 47.609375 0 
L 37.796875 0 
L 37.796875 17.1875 
L 4.890625 17.1875 
L 4.890625 26.703125 
z
" id="DejaVuSans-52"/>
      </defs>
      <g style="fill:#262626;" transform="translate(107.260198 227.832622)scale(0.11 -0.11)">
       <use xlink:href="#DejaVuSans-48"/>
       <use x="63.623047" xlink:href="#DejaVuSans-52"/>
       <use x="127.246094" xlink:href="#DejaVuSans-47"/>
       <use x="160.9375" xlink:href="#DejaVuSans-48"/>
       <use x="224.560547" xlink:href="#DejaVuSans-49"/>
      </g>
     </g>
    </g>
    <g id="xtick_3">
     <g id="line2d_3">
      <g>
       <use style="fill:#262626;stroke:#262626;stroke-width:1.25;" x="186.622706" xlink:href="#m29c26aeb47" y="209.974341"/>
      </g>
     </g>
     <g id="text_3">
      <!-- 05/01 -->
      <defs>
       <path d="M 10.796875 72.90625 
L 49.515625 72.90625 
L 49.515625 64.59375 
L 19.828125 64.59375 
L 19.828125 46.734375 
Q 21.96875 47.46875 24.109375 47.828125 
Q 26.265625 48.1875 28.421875 48.1875 
Q 40.625 48.1875 47.75 41.5 
Q 54.890625 34.8125 54.890625 23.390625 
Q 54.890625 11.625 47.5625 5.09375 
Q 40.234375 -1.421875 26.90625 -1.421875 
Q 22.3125 -1.421875 17.546875 -0.640625 
Q 12.796875 0.140625 7.71875 1.703125 
L 7.71875 11.625 
Q 12.109375 9.234375 16.796875 8.0625 
Q 21.484375 6.890625 26.703125 6.890625 
Q 35.15625 6.890625 40.078125 11.328125 
Q 45.015625 15.765625 45.015625 23.390625 
Q 45.015625 31 40.078125 35.4375 
Q 35.15625 39.890625 26.703125 39.890625 
Q 22.75 39.890625 18.8125 39.015625 
Q 14.890625 38.140625 10.796875 36.28125 
z
" id="DejaVuSans-53"/>
      </defs>
      <g style="fill:#262626;" transform="translate(170.772393 227.832622)scale(0.11 -0.11)">
       <use xlink:href="#DejaVuSans-48"/>
       <use x="63.623047" xlink:href="#DejaVuSans-53"/>
       <use x="127.246094" xlink:href="#DejaVuSans-47"/>
       <use x="160.9375" xlink:href="#DejaVuSans-48"/>
       <use x="224.560547" xlink:href="#DejaVuSans-49"/>
      </g>
     </g>
    </g>
    <g id="xtick_4">
     <g id="line2d_4">
      <g>
       <use style="fill:#262626;stroke:#262626;stroke-width:1.25;" x="252.251974" xlink:href="#m29c26aeb47" y="209.974341"/>
      </g>
     </g>
     <g id="text_4">
      <!-- 06/01 -->
      <defs>
       <path d="M 33.015625 40.375 
Q 26.375 40.375 22.484375 35.828125 
Q 18.609375 31.296875 18.609375 23.390625 
Q 18.609375 15.53125 22.484375 10.953125 
Q 26.375 6.390625 33.015625 6.390625 
Q 39.65625 6.390625 43.53125 10.953125 
Q 47.40625 15.53125 47.40625 23.390625 
Q 47.40625 31.296875 43.53125 35.828125 
Q 39.65625 40.375 33.015625 40.375 
z
M 52.59375 71.296875 
L 52.59375 62.3125 
Q 48.875 64.0625 45.09375 64.984375 
Q 41.3125 65.921875 37.59375 65.921875 
Q 27.828125 65.921875 22.671875 59.328125 
Q 17.53125 52.734375 16.796875 39.40625 
Q 19.671875 43.65625 24.015625 45.921875 
Q 28.375 48.1875 33.59375 48.1875 
Q 44.578125 48.1875 50.953125 41.515625 
Q 57.328125 34.859375 57.328125 23.390625 
Q 57.328125 12.15625 50.6875 5.359375 
Q 44.046875 -1.421875 33.015625 -1.421875 
Q 20.359375 -1.421875 13.671875 8.265625 
Q 6.984375 17.96875 6.984375 36.375 
Q 6.984375 53.65625 15.1875 63.9375 
Q 23.390625 74.21875 37.203125 74.21875 
Q 40.921875 74.21875 44.703125 73.484375 
Q 48.484375 72.75 52.59375 71.296875 
z
" id="DejaVuSans-54"/>
      </defs>
      <g style="fill:#262626;" transform="translate(236.401662 227.832622)scale(0.11 -0.11)">
       <use xlink:href="#DejaVuSans-48"/>
       <use x="63.623047" xlink:href="#DejaVuSans-54"/>
       <use x="127.246094" xlink:href="#DejaVuSans-47"/>
       <use x="160.9375" xlink:href="#DejaVuSans-48"/>
       <use x="224.560547" xlink:href="#DejaVuSans-49"/>
      </g>
     </g>
    </g>
    <g id="xtick_5">
     <g id="line2d_5">
      <path clip-path="url(#pf0d582bdb6)" d="M 46.895877 209.974341 
L 46.895877 11.379141 
" style="fill:none;stroke:#1a1a1a;stroke-dasharray:1.85,0.8;stroke-dashoffset:0;stroke-opacity:0.3;stroke-width:0.5;"/>
     </g>
     <g id="line2d_6"/>
    </g>
    <g id="xtick_6">
     <g id="line2d_7">
      <path clip-path="url(#pf0d582bdb6)" d="M 61.715389 209.974341 
L 61.715389 11.379141 
" style="fill:none;stroke:#1a1a1a;stroke-dasharray:1.85,0.8;stroke-dashoffset:0;stroke-opacity:0.3;stroke-width:0.5;"/>
     </g>
     <g id="line2d_8"/>
    </g>
    <g id="xtick_7">
     <g id="line2d_9">
      <path clip-path="url(#pf0d582bdb6)" d="M 76.534901 209.974341 
L 76.534901 11.379141 
" style="fill:none;stroke:#1a1a1a;stroke-dasharray:1.85,0.8;stroke-dashoffset:0;stroke-opacity:0.3;stroke-width:0.5;"/>
     </g>
     <g id="line2d_10"/>
    </g>
    <g id="xtick_8">
     <g id="line2d_11">
      <path clip-path="url(#pf0d582bdb6)" d="M 91.354413 209.974341 
L 91.354413 11.379141 
" style="fill:none;stroke:#1a1a1a;stroke-dasharray:1.85,0.8;stroke-dashoffset:0;stroke-opacity:0.3;stroke-width:0.5;"/>
     </g>
     <g id="line2d_12"/>
    </g>
    <g id="xtick_9">
     <g id="line2d_13">
      <path clip-path="url(#pf0d582bdb6)" d="M 106.173925 209.974341 
L 106.173925 11.379141 
" style="fill:none;stroke:#1a1a1a;stroke-dasharray:1.85,0.8;stroke-dashoffset:0;stroke-opacity:0.3;stroke-width:0.5;"/>
     </g>
     <g id="line2d_14"/>
    </g>
    <g id="xtick_10">
     <g id="line2d_15">
      <path clip-path="url(#pf0d582bdb6)" d="M 120.993438 209.974341 
L 120.993438 11.379141 
" style="fill:none;stroke:#1a1a1a;stroke-dasharray:1.85,0.8;stroke-dashoffset:0;stroke-opacity:0.3;stroke-width:0.5;"/>
     </g>
     <g id="line2d_16"/>
    </g>
    <g id="xtick_11">
     <g id="line2d_17">
      <path clip-path="url(#pf0d582bdb6)" d="M 135.81295 209.974341 
L 135.81295 11.379141 
" style="fill:none;stroke:#1a1a1a;stroke-dasharray:1.85,0.8;stroke-dashoffset:0;stroke-opacity:0.3;stroke-width:0.5;"/>
     </g>
     <g id="line2d_18"/>
    </g>
    <g id="xtick_12">
     <g id="line2d_19">
      <path clip-path="url(#pf0d582bdb6)" d="M 150.632462 209.974341 
L 150.632462 11.379141 
" style="fill:none;stroke:#1a1a1a;stroke-dasharray:1.85,0.8;stroke-dashoffset:0;stroke-opacity:0.3;stroke-width:0.5;"/>
     </g>
     <g id="line2d_20"/>
    </g>
    <g id="xtick_13">
     <g id="line2d_21">
      <path clip-path="url(#pf0d582bdb6)" d="M 165.451974 209.974341 
L 165.451974 11.379141 
" style="fill:none;stroke:#1a1a1a;stroke-dasharray:1.85,0.8;stroke-dashoffset:0;stroke-opacity:0.3;stroke-width:0.5;"/>
     </g>
     <g id="line2d_22"/>
    </g>
    <g id="xtick_14">
     <g id="line2d_23">
      <path clip-path="url(#pf0d582bdb6)" d="M 180.271486 209.974341 
L 180.271486 11.379141 
" style="fill:none;stroke:#1a1a1a;stroke-dasharray:1.85,0.8;stroke-dashoffset:0;stroke-opacity:0.3;stroke-width:0.5;"/>
     </g>
     <g id="line2d_24"/>
    </g>
    <g id="xtick_15">
     <g id="line2d_25">
      <path clip-path="url(#pf0d582bdb6)" d="M 195.090998 209.974341 
L 195.090998 11.379141 
" style="fill:none;stroke:#1a1a1a;stroke-dasharray:1.85,0.8;stroke-dashoffset:0;stroke-opacity:0.3;stroke-width:0.5;"/>
     </g>
     <g id="line2d_26"/>
    </g>
    <g id="xtick_16">
     <g id="line2d_27">
      <path clip-path="url(#pf0d582bdb6)" d="M 209.910511 209.974341 
L 209.910511 11.379141 
" style="fill:none;stroke:#1a1a1a;stroke-dasharray:1.85,0.8;stroke-dashoffset:0;stroke-opacity:0.3;stroke-width:0.5;"/>
     </g>
     <g id="line2d_28"/>
    </g>
    <g id="xtick_17">
     <g id="line2d_29">
      <path clip-path="url(#pf0d582bdb6)" d="M 224.730023 209.974341 
L 224.730023 11.379141 
" style="fill:none;stroke:#1a1a1a;stroke-dasharray:1.85,0.8;stroke-dashoffset:0;stroke-opacity:0.3;stroke-width:0.5;"/>
     </g>
     <g id="line2d_30"/>
    </g>
    <g id="xtick_18">
     <g id="line2d_31">
      <path clip-path="url(#pf0d582bdb6)" d="M 239.549535 209.974341 
L 239.549535 11.379141 
" style="fill:none;stroke:#1a1a1a;stroke-dasharray:1.85,0.8;stroke-dashoffset:0;stroke-opacity:0.3;stroke-width:0.5;"/>
     </g>
     <g id="line2d_32"/>
    </g>
    <g id="xtick_19">
     <g id="line2d_33">
      <path clip-path="url(#pf0d582bdb6)" d="M 254.369047 209.974341 
L 254.369047 11.379141 
" style="fill:none;stroke:#1a1a1a;stroke-dasharray:1.85,0.8;stroke-dashoffset:0;stroke-opacity:0.3;stroke-width:0.5;"/>
     </g>
     <g id="line2d_34"/>
    </g>
    <g id="xtick_20">
     <g id="line2d_35">
      <path clip-path="url(#pf0d582bdb6)" d="M 269.188559 209.974341 
L 269.188559 11.379141 
" style="fill:none;stroke:#1a1a1a;stroke-dasharray:1.85,0.8;stroke-dashoffset:0;stroke-opacity:0.3;stroke-width:0.5;"/>
     </g>
     <g id="line2d_36"/>
    </g>
    <g id="xtick_21">
     <g id="line2d_37">
      <path clip-path="url(#pf0d582bdb6)" d="M 284.008072 209.974341 
L 284.008072 11.379141 
" style="fill:none;stroke:#1a1a1a;stroke-dasharray:1.85,0.8;stroke-dashoffset:0;stroke-opacity:0.3;stroke-width:0.5;"/>
     </g>
     <g id="line2d_38"/>
    </g>
   </g>
   <g id="matplotlib.axis_2">
    <g id="ytick_1">
     <g id="line2d_39">
      <defs>
       <path d="M 0 0 
L -6 0 
" id="m7a0b21c388" style="stroke:#262626;stroke-width:1.25;"/>
      </defs>
      <g>
       <use style="fill:#262626;stroke:#262626;stroke-width:1.25;" x="34.193438" xlink:href="#m7a0b21c388" y="209.974341"/>
      </g>
     </g>
     <g id="text_5">
      <!-- 0.1 -->
      <defs>
       <path d="M 10.6875 12.40625 
L 21 12.40625 
L 21 0 
L 10.6875 0 
z
" id="DejaVuSans-46"/>
      </defs>
      <g style="fill:#262626;" transform="translate(7.2 214.153481)scale(0.11 -0.11)">
       <use xlink:href="#DejaVuSans-48"/>
       <use x="63.623047" xlink:href="#DejaVuSans-46"/>
       <use x="95.410156" xlink:href="#DejaVuSans-49"/>
      </g>
     </g>
    </g>
    <g id="ytick_2">
     <g id="line2d_40">
      <g>
       <use style="fill:#262626;stroke:#262626;stroke-width:1.25;" x="34.193438" xlink:href="#m7a0b21c388" y="176.875141"/>
      </g>
     </g>
     <g id="text_6">
      <!-- 0.2 -->
      <defs>
       <path d="M 19.1875 8.296875 
L 53.609375 8.296875 
L 53.609375 0 
L 7.328125 0 
L 7.328125 8.296875 
Q 12.9375 14.109375 22.625 23.890625 
Q 32.328125 33.6875 34.8125 36.53125 
Q 39.546875 41.84375 41.421875 45.53125 
Q 43.3125 49.21875 43.3125 52.78125 
Q 43.3125 58.59375 39.234375 62.25 
Q 35.15625 65.921875 28.609375 65.921875 
Q 23.96875 65.921875 18.8125 64.3125 
Q 13.671875 62.703125 7.8125 59.421875 
L 7.8125 69.390625 
Q 13.765625 71.78125 18.9375 73 
Q 24.125 74.21875 28.421875 74.21875 
Q 39.75 74.21875 46.484375 68.546875 
Q 53.21875 62.890625 53.21875 53.421875 
Q 53.21875 48.921875 51.53125 44.890625 
Q 49.859375 40.875 45.40625 35.40625 
Q 44.1875 33.984375 37.640625 27.21875 
Q 31.109375 20.453125 19.1875 8.296875 
z
" id="DejaVuSans-50"/>
      </defs>
      <g style="fill:#262626;" transform="translate(7.2 181.054281)scale(0.11 -0.11)">
       <use xlink:href="#DejaVuSans-48"/>
       <use x="63.623047" xlink:href="#DejaVuSans-46"/>
       <use x="95.410156" xlink:href="#DejaVuSans-50"/>
      </g>
     </g>
    </g>
    <g id="ytick_3">
     <g id="line2d_41">
      <g>
       <use style="fill:#262626;stroke:#262626;stroke-width:1.25;" x="34.193438" xlink:href="#m7a0b21c388" y="143.775941"/>
      </g>
     </g>
     <g id="text_7">
      <!-- 0.3 -->
      <g style="fill:#262626;" transform="translate(7.2 147.955081)scale(0.11 -0.11)">
       <use xlink:href="#DejaVuSans-48"/>
       <use x="63.623047" xlink:href="#DejaVuSans-46"/>
       <use x="95.410156" xlink:href="#DejaVuSans-51"/>
      </g>
     </g>
    </g>
    <g id="ytick_4">
     <g id="line2d_42">
      <g>
       <use style="fill:#262626;stroke:#262626;stroke-width:1.25;" x="34.193438" xlink:href="#m7a0b21c388" y="110.676741"/>
      </g>
     </g>
     <g id="text_8">
      <!-- 0.4 -->
      <g style="fill:#262626;" transform="translate(7.2 114.855881)scale(0.11 -0.11)">
       <use xlink:href="#DejaVuSans-48"/>
       <use x="63.623047" xlink:href="#DejaVuSans-46"/>
       <use x="95.410156" xlink:href="#DejaVuSans-52"/>
      </g>
     </g>
    </g>
    <g id="ytick_5">
     <g id="line2d_43">
      <g>
       <use style="fill:#262626;stroke:#262626;stroke-width:1.25;" x="34.193438" xlink:href="#m7a0b21c388" y="77.577541"/>
      </g>
     </g>
     <g id="text_9">
      <!-- 0.5 -->
      <g style="fill:#262626;" transform="translate(7.2 81.756681)scale(0.11 -0.11)">
       <use xlink:href="#DejaVuSans-48"/>
       <use x="63.623047" xlink:href="#DejaVuSans-46"/>
       <use x="95.410156" xlink:href="#DejaVuSans-53"/>
      </g>
     </g>
    </g>
    <g id="ytick_6">
     <g id="line2d_44">
      <g>
       <use style="fill:#262626;stroke:#262626;stroke-width:1.25;" x="34.193438" xlink:href="#m7a0b21c388" y="44.478341"/>
      </g>
     </g>
     <g id="text_10">
      <!-- 0.6 -->
      <g style="fill:#262626;" transform="translate(7.2 48.657481)scale(0.11 -0.11)">
       <use xlink:href="#DejaVuSans-48"/>
       <use x="63.623047" xlink:href="#DejaVuSans-46"/>
       <use x="95.410156" xlink:href="#DejaVuSans-54"/>
      </g>
     </g>
    </g>
    <g id="ytick_7">
     <g id="line2d_45">
      <g>
       <use style="fill:#262626;stroke:#262626;stroke-width:1.25;" x="34.193438" xlink:href="#m7a0b21c388" y="11.379141"/>
      </g>
     </g>
     <g id="text_11">
      <!-- 0.7 -->
      <defs>
       <path d="M 8.203125 72.90625 
L 55.078125 72.90625 
L 55.078125 68.703125 
L 28.609375 0 
L 18.3125 0 
L 43.21875 64.59375 
L 8.203125 64.59375 
z
" id="DejaVuSans-55"/>
      </defs>
      <g style="fill:#262626;" transform="translate(7.2 15.558281)scale(0.11 -0.11)">
       <use xlink:href="#DejaVuSans-48"/>
       <use x="63.623047" xlink:href="#DejaVuSans-46"/>
       <use x="95.410156" xlink:href="#DejaVuSans-55"/>
      </g>
     </g>
    </g>
   </g>
   <g id="line2d_46">
    <path clip-path="url(#pf0d582bdb6)" d="M 42.66173 171.69599 
L 44.778803 185.315288 
L 46.895877 126.25547 
L 49.01295 192.644556 
L 51.130023 196.789005 
L 53.247096 195.638942 
L 55.364169 185.448036 
L 57.481242 166.418036 
L 59.598316 181.979045 
L 61.715389 190.334471 
L 63.832462 182.997006 
L 65.949535 186.293524 
L 68.066608 197.599227 
L 70.183681 185.940381 
L 72.300755 178.235414 
L 74.417828 195.053241 
L 76.534901 193.786449 
L 78.651974 198.550623 
L 80.769047 190.461253 
L 82.88612 197.582369 
L 85.003194 180.149481 
L 87.120267 169.849566 
L 89.23734 179.925302 
L 91.354413 173.13324 
L 93.471486 176.840066 
L 95.588559 176.668219 
L 97.705633 172.195325 
L 99.822706 148.552669 
L 101.939779 140.652478 
L 104.056852 161.93895 
L 106.173925 158.475234 
L 108.290998 170.581925 
L 110.408072 168.004125 
L 112.525145 169.451508 
L 114.642218 160.100479 
L 116.759291 144.950837 
L 118.876364 159.232748 
L 120.993438 153.301155 
L 123.110511 158.799067 
L 125.227584 160.332876 
L 127.344657 157.367955 
L 129.46173 135.809213 
L 131.578803 125.990761 
L 133.695877 146.937433 
L 135.81295 145.445764 
L 137.930023 150.944246 
L 140.047096 153.598577 
L 142.164169 160.922556 
L 144.281242 153.94372 
L 146.398316 117.543066 
L 148.515389 147.540897 
L 150.632462 159.86707 
L 152.749535 160.205029 
L 154.866608 164.876119 
L 156.983681 169.954979 
L 159.100755 158.675287 
L 161.217828 118.423465 
L 163.334901 153.762148 
L 165.451974 167.705323 
L 167.569047 167.774539 
L 169.68612 147.49072 
L 171.803194 172.336473 
L 173.920267 164.815989 
L 176.03734 148.986504 
L 178.154413 169.858735 
L 180.271486 171.505286 
L 182.388559 164.139202 
L 184.505633 174.006693 
L 186.622706 171.320893 
L 188.739779 168.19206 
L 190.856852 155.706904 
L 192.973925 166.582855 
L 195.090998 167.438704 
L 197.208072 172.020188 
L 199.325145 171.864199 
L 201.442218 176.523419 
L 203.559291 174.573851 
L 205.676364 166.038876 
L 207.793438 173.94931 
L 209.910511 176.523337 
L 212.027584 175.857464 
L 214.144657 181.936923 
L 216.26173 182.852707 
L 218.378803 179.833444 
L 220.495877 159.870699 
L 222.61295 169.415999 
L 224.730023 173.591339 
L 226.847096 172.12169 
L 228.964169 180.745626 
L 231.081242 182.508181 
L 233.198316 177.561014 
L 235.315389 169.507324 
L 237.432462 162.86377 
L 239.549535 176.004931 
L 241.666608 177.400674 
L 243.783681 178.395397 
L 245.900755 186.676151 
L 248.017828 178.399317 
L 250.134901 167.296227 
L 252.251974 178.81517 
L 254.369047 181.895659 
L 256.48612 184.495024 
L 258.603194 182.983297 
L 260.720267 182.575688 
L 262.83734 176.222859 
L 264.954413 162.246944 
L 267.071486 178.869352 
L 269.188559 181.004767 
L 271.305633 177.179726 
L 273.422706 181.1503 
L 275.539779 178.905504 
L 277.656852 183.507999 
L 279.773925 168.854539 
L 281.890998 175.691561 
L 284.008072 175.716813 
L 286.125145 182.905195 
L 288.242218 183.725128 
" style="fill:none;stroke:#0173b2;stroke-linecap:round;stroke-width:1.5;"/>
   </g>
   <g id="line2d_47">
    <path clip-path="url(#pf0d582bdb6)" d="M 42.66173 161.185383 
L 44.778803 174.366595 
L 46.895877 126.343018 
L 49.01295 183.842461 
L 51.130023 188.037522 
L 53.247096 185.213449 
L 55.364169 174.352009 
L 57.481242 154.472968 
L 59.598316 169.914502 
L 61.715389 178.790227 
L 63.832462 172.149477 
L 65.949535 179.098795 
L 68.066608 187.623878 
L 70.183681 174.817376 
L 72.300755 166.597394 
L 74.417828 183.262615 
L 76.534901 181.746786 
L 78.651974 186.900783 
L 80.769047 177.407591 
L 82.88612 184.451331 
L 85.003194 165.347791 
L 87.120267 153.93954 
L 89.23734 163.287728 
L 91.354413 155.848718 
L 93.471486 158.559509 
L 95.588559 160.145592 
L 97.705633 155.225618 
L 99.822706 133.947467 
L 101.939779 125.767593 
L 104.056852 142.797618 
L 106.173925 138.830076 
L 108.290998 153.550187 
L 110.408072 149.99457 
L 112.525145 151.606692 
L 114.642218 142.776562 
L 116.759291 128.807447 
L 118.876364 142.331407 
L 120.993438 135.143775 
L 123.110511 140.797847 
L 125.227584 141.594178 
L 127.344657 138.020804 
L 129.46173 118.140013 
L 131.578803 109.929799 
L 133.695877 127.040992 
L 135.81295 125.501583 
L 137.930023 133.096824 
L 140.047096 134.674931 
L 142.164169 142.944119 
L 144.281242 135.738343 
L 146.398316 98.719602 
L 148.515389 128.877387 
L 150.632462 140.358663 
L 152.749535 141.568034 
L 154.866608 144.920738 
L 156.983681 149.365173 
L 159.100755 140.666618 
L 161.217828 104.182115 
L 163.334901 135.367902 
L 165.451974 146.930513 
L 167.569047 149.273157 
L 169.68612 129.782566 
L 171.803194 154.637725 
L 173.920267 147.98725 
L 176.03734 131.964826 
L 178.154413 152.510019 
L 180.271486 154.645912 
L 182.388559 144.941519 
L 184.505633 157.346425 
L 186.622706 154.546364 
L 188.739779 153.046669 
L 190.856852 139.481411 
L 192.973925 148.864395 
L 195.090998 148.353748 
L 197.208072 154.091519 
L 199.325145 155.381747 
L 201.442218 157.660542 
L 203.559291 159.777853 
L 205.676364 150.864119 
L 207.793438 156.55566 
L 209.910511 161.260196 
L 212.027584 157.803947 
L 214.144657 165.319318 
L 216.26173 167.420615 
L 218.378803 166.28416 
L 220.495877 144.244439 
L 222.61295 153.090319 
L 224.730023 156.884628 
L 226.847096 156.489342 
L 228.964169 165.796247 
L 231.081242 167.563067 
L 233.198316 163.078063 
L 235.315389 154.602459 
L 237.432462 149.585072 
L 239.549535 162.039978 
L 241.666608 161.826426 
L 243.783681 162.957009 
L 245.900755 172.403312 
L 248.017828 166.116185 
L 250.134901 154.885659 
L 252.251974 163.727121 
L 254.369047 165.740936 
L 256.48612 169.543102 
L 258.603194 169.005918 
L 260.720267 169.149537 
L 262.83734 165.556852 
L 264.954413 151.103846 
L 267.071486 165.174639 
L 269.188559 165.130871 
L 271.305633 162.045702 
L 273.422706 167.322795 
L 275.539779 163.749388 
L 277.656852 169.998766 
L 279.773925 153.899558 
L 281.890998 161.646226 
L 284.008072 160.169577 
L 286.125145 169.487737 
L 288.242218 168.564497 
" style="fill:none;stroke:#de8f05;stroke-linecap:round;stroke-width:1.5;"/>
   </g>
   <g id="line2d_48">
    <path clip-path="url(#pf0d582bdb6)" d="M 42.66173 150.799471 
L 44.778803 162.440613 
L 46.895877 126.480278 
L 49.01295 175.167909 
L 51.130023 177.856663 
L 53.247096 173.727563 
L 55.364169 164.053818 
L 57.481242 141.747014 
L 59.598316 158.935347 
L 61.715389 167.064044 
L 63.832462 160.142098 
L 65.949535 167.92766 
L 68.066608 176.679887 
L 70.183681 162.809416 
L 72.300755 153.21359 
L 74.417828 170.032115 
L 76.534901 167.854462 
L 78.651974 173.139243 
L 80.769047 162.804164 
L 82.88612 172.565137 
L 85.003194 151.405768 
L 87.120267 140.225293 
L 89.23734 150.461818 
L 91.354413 141.176709 
L 93.471486 144.591146 
L 95.588559 144.269037 
L 97.705633 141.890136 
L 99.822706 124.233565 
L 101.939779 112.459104 
L 104.056852 128.849951 
L 106.173925 123.045111 
L 108.290998 139.457023 
L 110.408072 133.762369 
L 112.525145 133.086826 
L 114.642218 125.727152 
L 116.759291 113.265376 
L 118.876364 126.137352 
L 120.993438 120.659328 
L 123.110511 123.676585 
L 125.227584 123.131187 
L 127.344657 121.198861 
L 129.46173 100.989081 
L 131.578803 95.886592 
L 133.695877 109.039753 
L 135.81295 109.812785 
L 137.930023 117.830469 
L 140.047096 118.898144 
L 142.164169 126.599707 
L 144.281242 120.880193 
L 146.398316 84.443955 
L 148.515389 111.880706 
L 150.632462 122.57499 
L 152.749535 123.614149 
L 154.866608 127.090097 
L 156.983681 131.337784 
L 159.100755 123.151689 
L 161.217828 90.674039 
L 163.334901 118.484985 
L 165.451974 129.877762 
L 167.569047 131.969197 
L 169.68612 114.068537 
L 171.803194 137.021107 
L 173.920267 130.716528 
L 176.03734 117.232726 
L 178.154413 135.527123 
L 180.271486 135.703512 
L 182.388559 128.225831 
L 184.505633 140.536334 
L 186.622706 135.985383 
L 188.739779 137.46229 
L 190.856852 122.331722 
L 192.973925 130.118248 
L 195.090998 133.023836 
L 197.208072 136.668922 
L 199.325145 137.607605 
L 201.442218 138.910473 
L 203.559291 143.451511 
L 205.676364 134.615014 
L 207.793438 138.20429 
L 209.910511 143.135898 
L 212.027584 140.342941 
L 214.144657 146.947071 
L 216.26173 148.50407 
L 218.378803 149.553808 
L 220.495877 129.023256 
L 222.61295 137.000292 
L 224.730023 139.465205 
L 226.847096 140.966048 
L 228.964169 149.130939 
L 231.081242 152.530757 
L 233.198316 148.804569 
L 235.315389 140.100711 
L 237.432462 134.366242 
L 239.549535 145.855555 
L 241.666608 145.12756 
L 243.783681 146.67708 
L 245.900755 157.171655 
L 248.017828 151.780909 
L 250.134901 138.63615 
L 252.251974 147.907988 
L 254.369047 150.486997 
L 256.48612 153.890293 
L 258.603194 152.842269 
L 260.720267 152.325889 
L 262.83734 151.444961 
L 264.954413 137.331824 
L 267.071486 149.177854 
L 269.188559 150.432207 
L 271.305633 145.340602 
L 273.422706 150.161977 
L 275.539779 149.198938 
L 277.656852 155.217878 
L 279.773925 138.116874 
L 281.890998 142.544761 
L 284.008072 142.655682 
L 286.125145 152.750936 
L 288.242218 152.307645 
" style="fill:none;stroke:#029e73;stroke-linecap:round;stroke-width:1.5;"/>
   </g>
   <g id="line2d_49">
    <path clip-path="url(#pf0d582bdb6)" d="M 42.66173 150.411394 
L 44.778803 162.737873 
L 46.895877 120.961744 
L 49.01295 174.631487 
L 51.130023 177.036482 
L 53.247096 174.092005 
L 55.364169 163.14796 
L 57.481242 141.364691 
L 59.598316 157.380483 
L 61.715389 165.975695 
L 63.832462 158.523727 
L 65.949535 166.400815 
L 68.066608 173.502058 
L 70.183681 161.279145 
L 72.300755 149.160409 
L 74.417828 166.739958 
L 76.534901 163.13472 
L 78.651974 167.042884 
L 80.769047 160.255874 
L 82.88612 161.991739 
L 85.003194 140.36625 
L 87.120267 121.205015 
L 89.23734 126.486346 
L 91.354413 118.382956 
L 93.471486 118.345906 
L 95.588559 119.306126 
L 97.705633 116.009535 
L 99.822706 98.731648 
L 101.939779 87.858935 
L 104.056852 94.926992 
L 106.173925 92.890267 
L 108.290998 110.215231 
L 110.408072 103.734389 
L 112.525145 107.204728 
L 114.642218 102.562032 
L 116.759291 86.241922 
L 118.876364 94.262476 
L 120.993438 88.449824 
L 123.110511 91.692283 
L 125.227584 94.504034 
L 127.344657 93.251339 
L 129.46173 78.946172 
L 131.578803 70.717844 
L 133.695877 80.391905 
L 135.81295 80.045444 
L 137.930023 87.85426 
L 140.047096 88.726717 
L 142.164169 97.827907 
L 144.281242 95.541085 
L 146.398316 54.196521 
L 148.515389 82.657463 
L 150.632462 90.491903 
L 152.749535 91.954343 
L 154.866608 93.849506 
L 156.983681 101.584809 
L 159.100755 98.386676 
L 161.217828 63.785893 
L 163.334901 88.372227 
L 165.451974 97.969864 
L 167.569047 100.979682 
L 169.68612 85.533039 
L 171.803194 107.7135 
L 173.920267 106.911076 
L 176.03734 90.335364 
L 178.154413 102.174089 
L 180.271486 105.081806 
L 182.388559 94.725127 
L 184.505633 109.166507 
L 186.622706 109.823014 
L 188.739779 118.16593 
L 190.856852 97.517828 
L 192.973925 100.477877 
L 195.090998 103.670729 
L 197.208072 105.565141 
L 199.325145 106.907529 
L 201.442218 107.825375 
L 203.559291 123.009719 
L 205.676364 109.990978 
L 207.793438 107.977169 
L 209.910511 113.812102 
L 212.027584 111.905097 
L 214.144657 118.904744 
L 216.26173 126.055712 
L 218.378803 131.035508 
L 220.495877 106.899373 
L 222.61295 106.92402 
L 224.730023 115.080552 
L 226.847096 113.880434 
L 228.964169 125.452329 
L 231.081242 131.827225 
L 233.198316 131.406383 
L 235.315389 121.627527 
L 237.432462 116.992005 
L 239.549535 123.06434 
L 241.666608 119.177399 
L 243.783681 124.223626 
L 245.900755 135.478504 
L 248.017828 137.596705 
L 250.134901 121.961992 
L 252.251974 125.184714 
L 254.369047 128.329574 
L 256.48612 131.883014 
L 258.603194 132.721452 
L 260.720267 132.775082 
L 262.83734 138.572574 
L 264.954413 124.378265 
L 267.071486 129.608936 
L 269.188559 131.12496 
L 271.305633 124.902126 
L 273.422706 133.542349 
L 275.539779 134.241655 
L 277.656852 144.174028 
L 279.773925 123.243498 
L 281.890998 124.150915 
L 284.008072 124.827087 
L 286.125145 135.029721 
L 288.242218 135.802676 
" style="fill:none;stroke:#d55e00;stroke-linecap:round;stroke-width:1.5;"/>
   </g>
   <g id="line2d_50">
    <path clip-path="url(#pf0d582bdb6)" d="M 42.66173 156.882138 
L 44.778803 166.680422 
L 46.895877 134.180078 
L 49.01295 173.989983 
L 51.130023 178.86923 
L 53.247096 175.454605 
L 55.364169 168.524114 
L 57.481242 144.492115 
L 59.598316 158.744836 
L 61.715389 171.86856 
L 63.832462 164.101924 
L 65.949535 170.8307 
L 68.066608 176.622006 
L 70.183681 169.351576 
L 72.300755 159.804237 
L 74.417828 171.486345 
L 76.534901 168.289263 
L 78.651974 175.191658 
L 80.769047 170.127771 
L 82.88612 172.576687 
L 85.003194 156.907984 
L 87.120267 146.778476 
L 89.23734 151.65894 
L 91.354413 143.25526 
L 93.471486 145.115046 
L 95.588559 147.264444 
L 97.705633 145.65457 
L 99.822706 133.844824 
L 101.939779 122.732053 
L 104.056852 131.627732 
L 106.173925 129.729373 
L 108.290998 142.037829 
L 110.408072 138.588034 
L 112.525145 139.332743 
L 114.642218 133.154303 
L 116.759291 121.867453 
L 118.876364 130.344068 
L 120.993438 126.580731 
L 123.110511 116.853397 
L 125.227584 119.058802 
L 127.344657 118.416787 
L 129.46173 105.912734 
L 131.578803 100.238153 
L 133.695877 109.379169 
L 135.81295 111.00999 
L 137.930023 118.112544 
L 140.047096 120.408142 
L 142.164169 125.861352 
L 144.281242 123.907511 
L 146.398316 95.578685 
L 148.515389 117.38631 
L 150.632462 120.816025 
L 152.749535 123.106559 
L 154.866608 125.777328 
L 156.983681 130.936292 
L 159.100755 129.207557 
L 161.217828 102.153227 
L 163.334901 123.674156 
L 165.451974 128.815826 
L 167.569047 133.968298 
L 169.68612 119.389192 
L 171.803194 139.163208 
L 173.920267 135.549377 
L 176.03734 123.43657 
L 178.154413 135.382576 
L 180.271486 136.949745 
L 182.388559 128.105071 
L 184.505633 138.262672 
L 186.622706 122.313167 
L 188.739779 126.216265 
L 190.856852 114.10052 
L 192.973925 117.496438 
L 195.090998 117.652813 
L 197.208072 120.856187 
L 199.325145 122.613789 
L 201.442218 126.002759 
L 203.559291 130.158852 
L 205.676364 123.919849 
L 207.793438 126.609032 
L 209.910511 130.628697 
L 212.027584 126.624142 
L 214.144657 133.171359 
L 216.26173 136.409439 
L 218.378803 138.386415 
L 220.495877 119.387195 
L 222.61295 122.232073 
L 224.730023 127.980105 
L 226.847096 127.850286 
L 228.964169 135.780166 
L 231.081242 138.649367 
L 233.198316 137.462065 
L 235.315389 131.159177 
L 237.432462 127.435338 
L 239.549535 133.69978 
L 241.666608 132.191329 
L 243.783681 134.854472 
L 245.900755 142.852792 
L 248.017828 136.47839 
L 250.134901 122.928102 
L 252.251974 127.484987 
L 254.369047 134.263697 
L 256.48612 136.595227 
L 258.603194 138.769708 
L 260.720267 136.076101 
L 262.83734 138.186056 
L 264.954413 126.770625 
L 267.071486 130.35366 
L 269.188559 131.191644 
L 271.305633 127.517562 
L 273.422706 130.903552 
L 275.539779 131.593111 
L 277.656852 137.357816 
L 279.773925 119.954953 
L 281.890998 120.169738 
L 284.008072 128.416139 
L 286.125145 138.111033 
L 288.242218 138.13992 
" style="fill:none;stroke:#cc78bc;stroke-linecap:round;stroke-width:1.5;"/>
   </g>
   <g id="patch_3">
    <path d="M 34.193438 209.974341 
L 34.193438 11.379141 
" style="fill:none;stroke:#cccccc;stroke-linecap:square;stroke-linejoin:miter;stroke-width:1.25;"/>
   </g>
   <g id="patch_4">
    <path d="M 34.193438 209.974341 
L 294.593438 209.974341 
" style="fill:none;stroke:#cccccc;stroke-linecap:square;stroke-linejoin:miter;stroke-width:1.25;"/>
   </g>
  </g>
 </g>
 <defs>
  <clipPath id="pf0d582bdb6">
   <rect height="198.5952" width="260.4" x="34.193438" y="11.379141"/>
  </clipPath>
 </defs>
</svg>
