<?xml version="1.0" encoding="utf-8" standalone="no"?>
<!DOCTYPE svg PUBLIC "-//W3C//DTD SVG 1.1//EN"
  "http://www.w3.org/Graphics/SVG/1.1/DTD/svg11.dtd">
<!-- Created with matplotlib (https://matplotlib.org/) -->
<svg height="535.213078pt" version="1.1" viewBox="0 0 692.393438 535.213078" width="692.393438pt" xmlns="http://www.w3.org/2000/svg" xmlns:xlink="http://www.w3.org/1999/xlink">
 <defs>
  <style type="text/css">
*{stroke-linecap:butt;stroke-linejoin:round;}
  </style>
 </defs>
 <g id="figure_1">
  <g id="patch_1">
   <path d="M 0 535.213078 
L 692.393438 535.213078 
L 692.393438 0 
L 0 0 
z
" style="fill:#ffffff;"/>
  </g>
  <g id="axes_1">
   <g id="patch_2">
    <path d="M 34.193437 507.867141 
L 685.193437 507.867141 
L 685.193437 11.379141 
L 34.193437 11.379141 
z
" style="fill:#ffffff;"/>
   </g>
   <g id="matplotlib.axis_1">
    <g id="xtick_1">
     <g id="line2d_1">
      <defs>
       <path d="M 0 0 
L 0 6 
" id="me325097276" style="stroke:#262626;stroke-width:1.25;"/>
      </defs>
      <g>
       <use style="fill:#262626;stroke:#262626;stroke-width:1.25;" x="92.41295" xlink:href="#me325097276" y="507.867141"/>
      </g>
     </g>
     <g id="text_1">
      <!-- 03/01 -->
      <defs>
       <path d="M 31.78125 66.40625 
Q 24.171875 66.40625 20.328125 58.90625 
Q 16.5 51.421875 16.5 36.375 
Q 16.5 21.390625 20.328125 13.890625 
Q 24.171875 6.390625 31.78125 6.390625 
Q 39.453125 6.390625 43.28125 13.890625 
Q 47.125 21.390625 47.125 36.375 
Q 47.125 51.421875 43.28125 58.90625 
Q 39.453125 66.40625 31.78125 66.40625 
z
M 31.78125 74.21875 
Q 44.046875 74.21875 50.515625 64.515625 
Q 56.984375 54.828125 56.984375 36.375 
Q 56.984375 17.96875 50.515625 8.265625 
Q 44.046875 -1.421875 31.78125 -1.421875 
Q 19.53125 -1.421875 13.0625 8.265625 
Q 6.59375 17.96875 6.59375 36.375 
Q 6.59375 54.828125 13.0625 64.515625 
Q 19.53125 74.21875 31.78125 74.21875 
z
" id="DejaVuSans-48"/>
       <path d="M 40.578125 39.3125 
Q 47.65625 37.796875 51.625 33 
Q 55.609375 28.21875 55.609375 21.1875 
Q 55.609375 10.40625 48.1875 4.484375 
Q 40.765625 -1.421875 27.09375 -1.421875 
Q 22.515625 -1.421875 17.65625 -0.515625 
Q 12.796875 0.390625 7.625 2.203125 
L 7.625 11.71875 
Q 11.71875 9.328125 16.59375 8.109375 
Q 21.484375 6.890625 26.8125 6.890625 
Q 36.078125 6.890625 40.9375 10.546875 
Q 45.796875 14.203125 45.796875 21.1875 
Q 45.796875 27.640625 41.28125 31.265625 
Q 36.765625 34.90625 28.71875 34.90625 
L 20.21875 34.90625 
L 20.21875 43.015625 
L 29.109375 43.015625 
Q 36.375 43.015625 40.234375 45.921875 
Q 44.09375 48.828125 44.09375 54.296875 
Q 44.09375 59.90625 40.109375 62.90625 
Q 36.140625 65.921875 28.71875 65.921875 
Q 24.65625 65.921875 20.015625 65.03125 
Q 15.375 64.15625 9.8125 62.3125 
L 9.8125 71.09375 
Q 15.4375 72.65625 20.34375 73.4375 
Q 25.25 74.21875 29.59375 74.21875 
Q 40.828125 74.21875 47.359375 69.109375 
Q 53.90625 64.015625 53.90625 55.328125 
Q 53.90625 49.265625 50.4375 45.09375 
Q 46.96875 40.921875 40.578125 39.3125 
z
" id="DejaVuSans-51"/>
       <path d="M 25.390625 72.90625 
L 33.6875 72.90625 
L 8.296875 -9.28125 
L 0 -9.28125 
z
" id="DejaVuSans-47"/>
       <path d="M 12.40625 8.296875 
L 28.515625 8.296875 
L 28.515625 63.921875 
L 10.984375 60.40625 
L 10.984375 69.390625 
L 28.421875 72.90625 
L 38.28125 72.90625 
L 38.28125 8.296875 
L 54.390625 8.296875 
L 54.390625 0 
L 12.40625 0 
z
" id="DejaVuSans-49"/>
      </defs>
      <g style="fill:#262626;" transform="translate(76.562637 525.725422)scale(0.11 -0.11)">
       <use xlink:href="#DejaVuSans-48"/>
       <use x="63.623047" xlink:href="#DejaVuSans-51"/>
       <use x="127.246094" xlink:href="#DejaVuSans-47"/>
       <use x="160.9375" xlink:href="#DejaVuSans-48"/>
       <use x="224.560547" xlink:href="#DejaVuSans-49"/>
      </g>
     </g>
    </g>
    <g id="xtick_2">
     <g id="line2d_2">
      <g>
       <use style="fill:#262626;stroke:#262626;stroke-width:1.25;" x="256.48612" xlink:href="#me325097276" y="507.867141"/>
      </g>
     </g>
     <g id="text_2">
      <!-- 04/01 -->
      <defs>
       <path d="M 37.796875 64.3125 
L 12.890625 25.390625 
L 37.796875 25.390625 
z
M 35.203125 72.90625 
L 47.609375 72.90625 
L 47.609375 25.390625 
L 58.015625 25.390625 
L 58.015625 17.1875 
L 47.609375 17.1875 
L 47.609375 0 
L 37.796875 0 
L 37.796875 17.1875 
L 4.890625 17.1875 
L 4.890625 26.703125 
z
" id="DejaVuSans-52"/>
      </defs>
      <g style="fill:#262626;" transform="translate(240.635808 525.725422)scale(0.11 -0.11)">
       <use xlink:href="#DejaVuSans-48"/>
       <use x="63.623047" xlink:href="#DejaVuSans-52"/>
       <use x="127.246094" xlink:href="#DejaVuSans-47"/>
       <use x="160.9375" xlink:href="#DejaVuSans-48"/>
       <use x="224.560547" xlink:href="#DejaVuSans-49"/>
      </g>
     </g>
    </g>
    <g id="xtick_3">
     <g id="line2d_3">
      <g>
       <use style="fill:#262626;stroke:#262626;stroke-width:1.25;" x="415.266608" xlink:href="#me325097276" y="507.867141"/>
      </g>
     </g>
     <g id="text_3">
      <!-- 05/01 -->
      <defs>
       <path d="M 10.796875 72.90625 
L 49.515625 72.90625 
L 49.515625 64.59375 
L 19.828125 64.59375 
L 19.828125 46.734375 
Q 21.96875 47.46875 24.109375 47.828125 
Q 26.265625 48.1875 28.421875 48.1875 
Q 40.625 48.1875 47.75 41.5 
Q 54.890625 34.8125 54.890625 23.390625 
Q 54.890625 11.625 47.5625 5.09375 
Q 40.234375 -1.421875 26.90625 -1.421875 
Q 22.3125 -1.421875 17.546875 -0.640625 
Q 12.796875 0.140625 7.71875 1.703125 
L 7.71875 11.625 
Q 12.109375 9.234375 16.796875 8.0625 
Q 21.484375 6.890625 26.703125 6.890625 
Q 35.15625 6.890625 40.078125 11.328125 
Q 45.015625 15.765625 45.015625 23.390625 
Q 45.015625 31 40.078125 35.4375 
Q 35.15625 39.890625 26.703125 39.890625 
Q 22.75 39.890625 18.8125 39.015625 
Q 14.890625 38.140625 10.796875 36.28125 
z
" id="DejaVuSans-53"/>
      </defs>
      <g style="fill:#262626;" transform="translate(399.416296 525.725422)scale(0.11 -0.11)">
       <use xlink:href="#DejaVuSans-48"/>
       <use x="63.623047" xlink:href="#DejaVuSans-53"/>
       <use x="127.246094" xlink:href="#DejaVuSans-47"/>
       <use x="160.9375" xlink:href="#DejaVuSans-48"/>
       <use x="224.560547" xlink:href="#DejaVuSans-49"/>
      </g>
     </g>
    </g>
    <g id="xtick_4">
     <g id="line2d_4">
      <g>
       <use style="fill:#262626;stroke:#262626;stroke-width:1.25;" x="579.339779" xlink:href="#me325097276" y="507.867141"/>
      </g>
     </g>
     <g id="text_4">
      <!-- 06/01 -->
      <defs>
       <path d="M 33.015625 40.375 
Q 26.375 40.375 22.484375 35.828125 
Q 18.609375 31.296875 18.609375 23.390625 
Q 18.609375 15.53125 22.484375 10.953125 
Q 26.375 6.390625 33.015625 6.390625 
Q 39.65625 6.390625 43.53125 10.953125 
Q 47.40625 15.53125 47.40625 23.390625 
Q 47.40625 31.296875 43.53125 35.828125 
Q 39.65625 40.375 33.015625 40.375 
z
M 52.59375 71.296875 
L 52.59375 62.3125 
Q 48.875 64.0625 45.09375 64.984375 
Q 41.3125 65.921875 37.59375 65.921875 
Q 27.828125 65.921875 22.671875 59.328125 
Q 17.53125 52.734375 16.796875 39.40625 
Q 19.671875 43.65625 24.015625 45.921875 
Q 28.375 48.1875 33.59375 48.1875 
Q 44.578125 48.1875 50.953125 41.515625 
Q 57.328125 34.859375 57.328125 23.390625 
Q 57.328125 12.15625 50.6875 5.359375 
Q 44.046875 -1.421875 33.015625 -1.421875 
Q 20.359375 -1.421875 13.671875 8.265625 
Q 6.984375 17.96875 6.984375 36.375 
Q 6.984375 53.65625 15.1875 63.9375 
Q 23.390625 74.21875 37.203125 74.21875 
Q 40.921875 74.21875 44.703125 73.484375 
Q 48.484375 72.75 52.59375 71.296875 
z
" id="DejaVuSans-54"/>
      </defs>
      <g style="fill:#262626;" transform="translate(563.489466 525.725422)scale(0.11 -0.11)">
       <use xlink:href="#DejaVuSans-48"/>
       <use x="63.623047" xlink:href="#DejaVuSans-54"/>
       <use x="127.246094" xlink:href="#DejaVuSans-47"/>
       <use x="160.9375" xlink:href="#DejaVuSans-48"/>
       <use x="224.560547" xlink:href="#DejaVuSans-49"/>
      </g>
     </g>
    </g>
    <g id="xtick_5">
     <g id="line2d_5">
      <path clip-path="url(#p331b3eba0b)" d="M 65.949535 507.867141 
L 65.949535 11.379141 
" style="fill:none;stroke:#1a1a1a;stroke-dasharray:1.85,0.8;stroke-dashoffset:0;stroke-opacity:0.3;stroke-width:0.5;"/>
     </g>
     <g id="line2d_6"/>
    </g>
    <g id="xtick_6">
     <g id="line2d_7">
      <path clip-path="url(#p331b3eba0b)" d="M 102.998316 507.867141 
L 102.998316 11.379141 
" style="fill:none;stroke:#1a1a1a;stroke-dasharray:1.85,0.8;stroke-dashoffset:0;stroke-opacity:0.3;stroke-width:0.5;"/>
     </g>
     <g id="line2d_8"/>
    </g>
    <g id="xtick_7">
     <g id="line2d_9">
      <path clip-path="url(#p331b3eba0b)" d="M 140.047096 507.867141 
L 140.047096 11.379141 
" style="fill:none;stroke:#1a1a1a;stroke-dasharray:1.85,0.8;stroke-dashoffset:0;stroke-opacity:0.3;stroke-width:0.5;"/>
     </g>
     <g id="line2d_10"/>
    </g>
    <g id="xtick_8">
     <g id="line2d_11">
      <path clip-path="url(#p331b3eba0b)" d="M 177.095877 507.867141 
L 177.095877 11.379141 
" style="fill:none;stroke:#1a1a1a;stroke-dasharray:1.85,0.8;stroke-dashoffset:0;stroke-opacity:0.3;stroke-width:0.5;"/>
     </g>
     <g id="line2d_12"/>
    </g>
    <g id="xtick_9">
     <g id="line2d_13">
      <path clip-path="url(#p331b3eba0b)" d="M 214.144657 507.867141 
L 214.144657 11.379141 
" style="fill:none;stroke:#1a1a1a;stroke-dasharray:1.85,0.8;stroke-dashoffset:0;stroke-opacity:0.3;stroke-width:0.5;"/>
     </g>
     <g id="line2d_14"/>
    </g>
    <g id="xtick_10">
     <g id="line2d_15">
      <path clip-path="url(#p331b3eba0b)" d="M 251.193437 507.867141 
L 251.193437 11.379141 
" style="fill:none;stroke:#1a1a1a;stroke-dasharray:1.85,0.8;stroke-dashoffset:0;stroke-opacity:0.3;stroke-width:0.5;"/>
     </g>
     <g id="line2d_16"/>
    </g>
    <g id="xtick_11">
     <g id="line2d_17">
      <path clip-path="url(#p331b3eba0b)" d="M 288.242218 507.867141 
L 288.242218 11.379141 
" style="fill:none;stroke:#1a1a1a;stroke-dasharray:1.85,0.8;stroke-dashoffset:0;stroke-opacity:0.3;stroke-width:0.5;"/>
     </g>
     <g id="line2d_18"/>
    </g>
    <g id="xtick_12">
     <g id="line2d_19">
      <path clip-path="url(#p331b3eba0b)" d="M 325.290998 507.867141 
L 325.290998 11.379141 
" style="fill:none;stroke:#1a1a1a;stroke-dasharray:1.85,0.8;stroke-dashoffset:0;stroke-opacity:0.3;stroke-width:0.5;"/>
     </g>
     <g id="line2d_20"/>
    </g>
    <g id="xtick_13">
     <g id="line2d_21">
      <path clip-path="url(#p331b3eba0b)" d="M 362.339779 507.867141 
L 362.339779 11.379141 
" style="fill:none;stroke:#1a1a1a;stroke-dasharray:1.85,0.8;stroke-dashoffset:0;stroke-opacity:0.3;stroke-width:0.5;"/>
     </g>
     <g id="line2d_22"/>
    </g>
    <g id="xtick_14">
     <g id="line2d_23">
      <path clip-path="url(#p331b3eba0b)" d="M 399.388559 507.867141 
L 399.388559 11.379141 
" style="fill:none;stroke:#1a1a1a;stroke-dasharray:1.85,0.8;stroke-dashoffset:0;stroke-opacity:0.3;stroke-width:0.5;"/>
     </g>
     <g id="line2d_24"/>
    </g>
    <g id="xtick_15">
     <g id="line2d_25">
      <path clip-path="url(#p331b3eba0b)" d="M 436.43734 507.867141 
L 436.43734 11.379141 
" style="fill:none;stroke:#1a1a1a;stroke-dasharray:1.85,0.8;stroke-dashoffset:0;stroke-opacity:0.3;stroke-width:0.5;"/>
     </g>
     <g id="line2d_26"/>
    </g>
    <g id="xtick_16">
     <g id="line2d_27">
      <path clip-path="url(#p331b3eba0b)" d="M 473.48612 507.867141 
L 473.48612 11.379141 
" style="fill:none;stroke:#1a1a1a;stroke-dasharray:1.85,0.8;stroke-dashoffset:0;stroke-opacity:0.3;stroke-width:0.5;"/>
     </g>
     <g id="line2d_28"/>
    </g>
    <g id="xtick_17">
     <g id="line2d_29">
      <path clip-path="url(#p331b3eba0b)" d="M 510.534901 507.867141 
L 510.534901 11.379141 
" style="fill:none;stroke:#1a1a1a;stroke-dasharray:1.85,0.8;stroke-dashoffset:0;stroke-opacity:0.3;stroke-width:0.5;"/>
     </g>
     <g id="line2d_30"/>
    </g>
    <g id="xtick_18">
     <g id="line2d_31">
      <path clip-path="url(#p331b3eba0b)" d="M 547.583681 507.867141 
L 547.583681 11.379141 
" style="fill:none;stroke:#1a1a1a;stroke-dasharray:1.85,0.8;stroke-dashoffset:0;stroke-opacity:0.3;stroke-width:0.5;"/>
     </g>
     <g id="line2d_32"/>
    </g>
    <g id="xtick_19">
     <g id="line2d_33">
      <path clip-path="url(#p331b3eba0b)" d="M 584.632462 507.867141 
L 584.632462 11.379141 
" style="fill:none;stroke:#1a1a1a;stroke-dasharray:1.85,0.8;stroke-dashoffset:0;stroke-opacity:0.3;stroke-width:0.5;"/>
     </g>
     <g id="line2d_34"/>
    </g>
    <g id="xtick_20">
     <g id="line2d_35">
      <path clip-path="url(#p331b3eba0b)" d="M 621.681242 507.867141 
L 621.681242 11.379141 
" style="fill:none;stroke:#1a1a1a;stroke-dasharray:1.85,0.8;stroke-dashoffset:0;stroke-opacity:0.3;stroke-width:0.5;"/>
     </g>
     <g id="line2d_36"/>
    </g>
    <g id="xtick_21">
     <g id="line2d_37">
      <path clip-path="url(#p331b3eba0b)" d="M 658.730023 507.867141 
L 658.730023 11.379141 
" style="fill:none;stroke:#1a1a1a;stroke-dasharray:1.85,0.8;stroke-dashoffset:0;stroke-opacity:0.3;stroke-width:0.5;"/>
     </g>
     <g id="line2d_38"/>
    </g>
   </g>
   <g id="matplotlib.axis_2">
    <g id="ytick_1">
     <g id="line2d_39">
      <defs>
       <path d="M 0 0 
L -6 0 
" id="ma27365ee71" style="stroke:#262626;stroke-width:1.25;"/>
      </defs>
      <g>
       <use style="fill:#262626;stroke:#262626;stroke-width:1.25;" x="34.193437" xlink:href="#ma27365ee71" y="507.867141"/>
      </g>
     </g>
     <g id="text_5">
      <!-- 0.1 -->
      <defs>
       <path d="M 10.6875 12.40625 
L 21 12.40625 
L 21 0 
L 10.6875 0 
z
" id="DejaVuSans-46"/>
      </defs>
      <g style="fill:#262626;" transform="translate(7.2 512.046281)scale(0.11 -0.11)">
       <use xlink:href="#DejaVuSans-48"/>
       <use x="63.623047" xlink:href="#DejaVuSans-46"/>
       <use x="95.410156" xlink:href="#DejaVuSans-49"/>
      </g>
     </g>
    </g>
    <g id="ytick_2">
     <g id="line2d_40">
      <g>
       <use style="fill:#262626;stroke:#262626;stroke-width:1.25;" x="34.193437" xlink:href="#ma27365ee71" y="425.119141"/>
      </g>
     </g>
     <g id="text_6">
      <!-- 0.2 -->
      <defs>
       <path d="M 19.1875 8.296875 
L 53.609375 8.296875 
L 53.609375 0 
L 7.328125 0 
L 7.328125 8.296875 
Q 12.9375 14.109375 22.625 23.890625 
Q 32.328125 33.6875 34.8125 36.53125 
Q 39.546875 41.84375 41.421875 45.53125 
Q 43.3125 49.21875 43.3125 52.78125 
Q 43.3125 58.59375 39.234375 62.25 
Q 35.15625 65.921875 28.609375 65.921875 
Q 23.96875 65.921875 18.8125 64.3125 
Q 13.671875 62.703125 7.8125 59.421875 
L 7.8125 69.390625 
Q 13.765625 71.78125 18.9375 73 
Q 24.125 74.21875 28.421875 74.21875 
Q 39.75 74.21875 46.484375 68.546875 
Q 53.21875 62.890625 53.21875 53.421875 
Q 53.21875 48.921875 51.53125 44.890625 
Q 49.859375 40.875 45.40625 35.40625 
Q 44.1875 33.984375 37.640625 27.21875 
Q 31.109375 20.453125 19.1875 8.296875 
z
" id="DejaVuSans-50"/>
      </defs>
      <g style="fill:#262626;" transform="translate(7.2 429.298281)scale(0.11 -0.11)">
       <use xlink:href="#DejaVuSans-48"/>
       <use x="63.623047" xlink:href="#DejaVuSans-46"/>
       <use x="95.410156" xlink:href="#DejaVuSans-50"/>
      </g>
     </g>
    </g>
    <g id="ytick_3">
     <g id="line2d_41">
      <g>
       <use style="fill:#262626;stroke:#262626;stroke-width:1.25;" x="34.193437" xlink:href="#ma27365ee71" y="342.371141"/>
      </g>
     </g>
     <g id="text_7">
      <!-- 0.3 -->
      <g style="fill:#262626;" transform="translate(7.2 346.550281)scale(0.11 -0.11)">
       <use xlink:href="#DejaVuSans-48"/>
       <use x="63.623047" xlink:href="#DejaVuSans-46"/>
       <use x="95.410156" xlink:href="#DejaVuSans-51"/>
      </g>
     </g>
    </g>
    <g id="ytick_4">
     <g id="line2d_42">
      <g>
       <use style="fill:#262626;stroke:#262626;stroke-width:1.25;" x="34.193437" xlink:href="#ma27365ee71" y="259.623141"/>
      </g>
     </g>
     <g id="text_8">
      <!-- 0.4 -->
      <g style="fill:#262626;" transform="translate(7.2 263.802281)scale(0.11 -0.11)">
       <use xlink:href="#DejaVuSans-48"/>
       <use x="63.623047" xlink:href="#DejaVuSans-46"/>
       <use x="95.410156" xlink:href="#DejaVuSans-52"/>
      </g>
     </g>
    </g>
    <g id="ytick_5">
     <g id="line2d_43">
      <g>
       <use style="fill:#262626;stroke:#262626;stroke-width:1.25;" x="34.193437" xlink:href="#ma27365ee71" y="176.875141"/>
      </g>
     </g>
     <g id="text_9">
      <!-- 0.5 -->
      <g style="fill:#262626;" transform="translate(7.2 181.054281)scale(0.11 -0.11)">
       <use xlink:href="#DejaVuSans-48"/>
       <use x="63.623047" xlink:href="#DejaVuSans-46"/>
       <use x="95.410156" xlink:href="#DejaVuSans-53"/>
      </g>
     </g>
    </g>
    <g id="ytick_6">
     <g id="line2d_44">
      <g>
       <use style="fill:#262626;stroke:#262626;stroke-width:1.25;" x="34.193437" xlink:href="#ma27365ee71" y="94.127141"/>
      </g>
     </g>
     <g id="text_10">
      <!-- 0.6 -->
      <g style="fill:#262626;" transform="translate(7.2 98.306281)scale(0.11 -0.11)">
       <use xlink:href="#DejaVuSans-48"/>
       <use x="63.623047" xlink:href="#DejaVuSans-46"/>
       <use x="95.410156" xlink:href="#DejaVuSans-54"/>
      </g>
     </g>
    </g>
    <g id="ytick_7">
     <g id="line2d_45">
      <g>
       <use style="fill:#262626;stroke:#262626;stroke-width:1.25;" x="34.193437" xlink:href="#ma27365ee71" y="11.379141"/>
      </g>
     </g>
     <g id="text_11">
      <!-- 0.7 -->
      <defs>
       <path d="M 8.203125 72.90625 
L 55.078125 72.90625 
L 55.078125 68.703125 
L 28.609375 0 
L 18.3125 0 
L 43.21875 64.59375 
L 8.203125 64.59375 
z
" id="DejaVuSans-55"/>
      </defs>
      <g style="fill:#262626;" transform="translate(7.2 15.558281)scale(0.11 -0.11)">
       <use xlink:href="#DejaVuSans-48"/>
       <use x="63.623047" xlink:href="#DejaVuSans-46"/>
       <use x="95.410156" xlink:href="#DejaVuSans-55"/>
      </g>
     </g>
    </g>
   </g>
   <g id="line2d_46">
    <path clip-path="url(#p331b3eba0b)" d="M 55.364169 378.916719 
L 60.656852 412.541281 
L 65.949535 318.162984 
L 71.242218 443.664966 
L 76.534901 435.682588 
L 81.827584 433.191011 
L 87.120267 402.089163 
L 92.41295 343.296069 
L 97.705633 403.029655 
L 102.998316 428.671009 
L 108.290998 424.956373 
L 113.583681 434.467511 
L 118.876364 424.883206 
L 124.169047 399.316288 
L 129.46173 349.499066 
L 134.754413 405.815131 
L 140.047096 411.410694 
L 145.339779 417.918929 
L 150.632462 399.031108 
L 155.925145 411.477593 
L 161.217828 346.838107 
L 166.510511 313.698486 
L 171.803194 336.427419 
L 177.095877 335.299543 
L 182.388559 320.44615 
L 187.681242 328.678383 
L 192.973925 290.086352 
L 198.266608 222.34197 
L 203.559291 252.49157 
L 208.851974 296.641647 
L 214.144657 271.629245 
L 219.43734 299.249806 
L 224.730023 281.649785 
L 230.022706 279.850318 
L 235.315389 264.60276 
L 240.608072 234.489007 
L 245.900755 270.548995 
L 251.193437 285.556671 
L 256.48612 265.972604 
L 261.778803 263.162702 
L 267.071486 279.112196 
L 272.364169 226.480328 
L 277.656852 199.600325 
L 282.949535 237.36273 
L 288.242218 239.355959 
L 293.534901 258.435159 
L 298.827584 246.840707 
L 304.120267 273.61007 
L 309.41295 264.107513 
L 314.705633 192.743921 
L 319.998316 253.651243 
L 325.290998 286.294982 
L 330.583681 294.003633 
L 335.876364 287.03804 
L 341.169047 298.920594 
L 346.46173 262.966529 
L 351.754413 234.634925 
L 357.047096 283.134296 
L 362.339779 284.117877 
L 367.632462 303.699841 
L 372.925145 307.02126 
L 378.217828 309.138201 
L 383.510511 281.187879 
L 388.803194 273.179654 
L 394.095877 289.091415 
L 399.388559 311.938703 
L 404.681242 311.315391 
L 409.973925 318.636324 
L 415.266608 304.851468 
L 420.559291 286.223542 
L 425.851974 261.207947 
L 431.144657 294.425433 
L 436.43734 303.382521 
L 441.730023 289.485417 
L 447.022706 308.754888 
L 452.315389 319.001315 
L 457.608072 318.644072 
L 462.900755 303.31233 
L 468.193437 290.370269 
L 473.48612 307.018739 
L 478.778803 311.49222 
L 484.071486 322.071229 
L 489.364169 339.638044 
L 494.656852 326.190459 
L 499.949535 258.973911 
L 505.242218 299.183442 
L 510.534901 311.317765 
L 515.827584 319.844751 
L 521.120267 340.365774 
L 526.41295 340.747761 
L 531.705633 337.958235 
L 536.998316 317.17689 
L 542.290998 293.907613 
L 547.583681 339.516177 
L 552.876364 337.307713 
L 558.169047 338.085639 
L 563.46173 359.601464 
L 568.754413 340.063449 
L 574.047096 310.378921 
L 579.339779 324.673842 
L 584.632462 328.651566 
L 589.925145 354.772506 
L 595.217828 354.781568 
L 600.510511 364.732374 
L 605.803194 356.344213 
L 611.095877 321.468869 
L 616.388559 351.349133 
L 621.681242 354.354519 
L 626.973925 344.35071 
L 632.266608 347.3238 
L 637.559291 351.655941 
L 642.851974 346.118134 
L 648.144657 325.123026 
L 653.43734 341.973879 
L 658.730023 328.916707 
L 664.022706 352.542638 
L 669.315389 351.767822 
" style="fill:none;stroke:#0173b2;stroke-linecap:round;stroke-width:1.5;"/>
   </g>
   <g id="line2d_47">
    <path clip-path="url(#p331b3eba0b)" d="M 55.364169 368.53198 
L 60.656852 406.004804 
L 65.949535 306.401666 
L 71.242218 434.965743 
L 76.534901 426.546673 
L 81.827584 425.32205 
L 87.120267 391.727225 
L 92.41295 332.474327 
L 97.705633 393.553942 
L 102.998316 417.551994 
L 108.290998 414.392084 
L 113.583681 423.303017 
L 118.876364 412.219185 
L 124.169047 383.485183 
L 129.46173 334.813059 
L 134.754413 394.073164 
L 140.047096 396.089779 
L 145.339779 405.374791 
L 150.632462 382.302605 
L 155.925145 392.900386 
L 161.217828 320.294547 
L 166.510511 286.702071 
L 171.803194 302.510367 
L 177.095877 290.795489 
L 182.388559 275.017912 
L 187.681242 282.893525 
L 192.973925 240.735253 
L 198.266608 179.50251 
L 203.559291 208.979361 
L 208.851974 247.13372 
L 214.144657 225.28906 
L 219.43734 253.433838 
L 224.730023 232.562646 
L 230.022706 229.002061 
L 235.315389 219.742563 
L 240.608072 191.757796 
L 245.900755 220.061606 
L 251.193437 233.824928 
L 256.48612 212.182859 
L 261.778803 210.875248 
L 267.071486 227.339692 
L 272.364169 184.777982 
L 277.656852 156.151051 
L 282.949535 176.841349 
L 288.242218 179.485054 
L 293.534901 199.636367 
L 298.827584 183.21942 
L 304.120267 215.157283 
L 309.41295 213.96169 
L 314.705633 136.210925 
L 319.998316 196.226605 
L 325.290998 223.846141 
L 330.583681 231.981201 
L 335.876364 226.052386 
L 341.169047 237.897182 
L 346.46173 208.405101 
L 351.754413 182.092318 
L 357.047096 226.527377 
L 362.339779 229.101973 
L 367.632462 245.553088 
L 372.925145 248.428553 
L 378.217828 249.932408 
L 383.510511 228.350423 
L 388.803194 219.499406 
L 394.095877 230.271195 
L 399.388559 251.850275 
L 404.681242 251.014351 
L 409.973925 258.180073 
L 415.266608 251.970368 
L 420.559291 241.686239 
L 425.851974 212.161435 
L 431.144657 240.26868 
L 436.43734 248.713339 
L 441.730023 236.765802 
L 447.022706 252.078646 
L 452.315389 267.310315 
L 457.608072 274.001007 
L 462.900755 260.478554 
L 468.193437 236.631902 
L 473.48612 254.458659 
L 478.778803 256.975216 
L 484.071486 264.708048 
L 489.364169 288.72834 
L 494.656852 279.329342 
L 499.949535 217.035512 
L 505.242218 247.336178 
L 510.534901 258.58535 
L 515.827584 268.351307 
L 521.120267 286.816029 
L 526.41295 293.959494 
L 531.705633 293.904568 
L 536.998316 275.492519 
L 542.290998 249.812511 
L 547.583681 288.667071 
L 552.876364 286.483623 
L 558.169047 291.667346 
L 563.46173 316.666504 
L 568.754413 303.522659 
L 574.047096 267.297419 
L 579.339779 274.952022 
L 584.632462 275.214489 
L 589.925145 306.742007 
L 595.217828 310.812269 
L 600.510511 322.342607 
L 605.803194 317.434542 
L 611.095877 287.536622 
L 616.388559 309.497166 
L 621.681242 314.819072 
L 626.973925 304.922677 
L 632.266608 309.081524 
L 637.559291 316.951923 
L 642.851974 315.420869 
L 648.144657 291.733806 
L 653.43734 305.264566 
L 658.730023 290.324428 
L 664.022706 315.525585 
L 669.315389 315.529137 
" style="fill:none;stroke:#de8f05;stroke-linecap:round;stroke-width:1.5;"/>
   </g>
   <g id="line2d_48">
    <path clip-path="url(#p331b3eba0b)" d="M 55.364169 363.472676 
L 60.656852 403.176491 
L 65.949535 294.010559 
L 71.242218 428.67447 
L 76.534901 419.982181 
L 81.827584 420.856955 
L 87.120267 387.879358 
L 92.41295 324.780678 
L 97.705633 385.89266 
L 102.998316 409.91516 
L 108.290998 406.328419 
L 113.583681 414.40886 
L 118.876364 402.117615 
L 124.169047 369.419852 
L 129.46173 318.836723 
L 134.754413 383.883007 
L 140.047096 387.176159 
L 145.339779 392.234863 
L 150.632462 368.015027 
L 155.925145 371.663281 
L 161.217828 291.963739 
L 166.510511 257.243006 
L 171.803194 269.60746 
L 177.095877 239.465759 
L 182.388559 225.288718 
L 187.681242 236.788718 
L 192.973925 196.358774 
L 198.266608 142.990267 
L 203.559291 171.999904 
L 208.851974 204.234098 
L 214.144657 181.504814 
L 219.43734 207.734304 
L 224.730023 185.097321 
L 230.022706 181.608523 
L 235.315389 175.885611 
L 240.608072 151.348492 
L 245.900755 173.669831 
L 251.193437 184.529288 
L 256.48612 164.259382 
L 261.778803 161.778001 
L 267.071486 177.852194 
L 272.364169 141.009827 
L 277.656852 115.136214 
L 282.949535 125.189167 
L 288.242218 132.533613 
L 293.534901 153.049032 
L 298.827584 133.340749 
L 304.120267 167.147502 
L 309.41295 166.21507 
L 314.705633 96.711723 
L 319.998316 147.91008 
L 325.290998 171.27591 
L 330.583681 179.544645 
L 335.876364 169.671361 
L 341.169047 185.519046 
L 346.46173 162.867641 
L 351.754413 137.192421 
L 357.047096 177.902694 
L 362.339779 177.93657 
L 367.632462 195.882373 
L 372.925145 195.217735 
L 378.217828 196.812066 
L 383.510511 181.457237 
L 388.803194 173.158793 
L 394.095877 175.282096 
L 399.388559 197.935391 
L 404.681242 198.46192 
L 409.973925 203.16385 
L 415.266608 200.463594 
L 420.559291 192.877069 
L 425.851974 165.431323 
L 431.144657 188.780771 
L 436.43734 192.264719 
L 441.730023 181.663565 
L 447.022706 195.399066 
L 452.315389 212.5855 
L 457.608072 224.061265 
L 462.900755 215.460204 
L 468.193437 179.09 
L 473.48612 196.87553 
L 478.778803 202.458267 
L 484.071486 204.716785 
L 489.364169 232.772598 
L 494.656852 229.310485 
L 499.949535 168.998451 
L 505.242218 189.433247 
L 510.534901 200.625919 
L 515.827584 211.663414 
L 521.120267 227.436984 
L 526.41295 241.595716 
L 531.705633 246.162068 
L 536.998316 232.098431 
L 542.290998 205.296712 
L 547.583681 233.402771 
L 552.876364 232.344868 
L 558.169047 237.137263 
L 563.46173 267.346998 
L 568.754413 255.675628 
L 574.047096 220.69004 
L 579.339779 221.271409 
L 584.632462 218.929154 
L 589.925145 253.435839 
L 595.217828 257.938565 
L 600.510511 272.938035 
L 605.803194 273.868808 
L 611.095877 247.108538 
L 616.388559 260.438244 
L 621.681242 265.261563 
L 626.973925 257.909194 
L 632.266608 261.673358 
L 637.559291 272.611029 
L 642.851974 276.730342 
L 648.144657 254.155448 
L 653.43734 259.381369 
L 658.730023 246.858673 
L 664.022706 271.526454 
L 669.315389 271.828544 
" style="fill:none;stroke:#029e73;stroke-linecap:round;stroke-width:1.5;"/>
   </g>
   <g id="line2d_49">
    <path clip-path="url(#p331b3eba0b)" d="M 55.364169 360.737637 
L 60.656852 397.976424 
L 65.949535 299.327754 
L 71.242218 419.960009 
L 76.534901 409.097004 
L 81.827584 407.801315 
L 87.120267 381.50866 
L 92.41295 306.887729 
L 97.705633 361.058343 
L 102.998316 385.696284 
L 108.290998 377.406264 
L 113.583681 386.155321 
L 118.876364 372.866486 
L 124.169047 340.168325 
L 129.46173 295.157978 
L 134.754413 353.772607 
L 140.047096 357.77612 
L 145.339779 363.826933 
L 150.632462 341.5233 
L 155.925145 341.430136 
L 161.217828 271.97026 
L 166.510511 245.090647 
L 171.803194 257.92884 
L 177.095877 210.69847 
L 182.388559 202.000854 
L 187.681242 217.139437 
L 192.973925 191.680854 
L 198.266608 150.694805 
L 203.559291 177.354023 
L 208.851974 203.225176 
L 214.144657 173.699691 
L 219.43734 202.443231 
L 224.730023 182.001298 
L 230.022706 177.70147 
L 235.315389 174.184524 
L 240.608072 158.882327 
L 245.900755 171.706736 
L 251.193437 183.495521 
L 256.48612 139.241392 
L 261.778803 144.276134 
L 267.071486 154.43037 
L 272.364169 127.671528 
L 277.656852 111.417215 
L 282.949535 117.629469 
L 288.242218 128.887871 
L 293.534901 145.92428 
L 298.827584 131.240957 
L 304.120267 157.54871 
L 309.41295 157.858937 
L 314.705633 104.711792 
L 319.998316 137.431196 
L 325.290998 158.047423 
L 330.583681 166.920645 
L 335.876364 166.51505 
L 341.169047 173.199054 
L 346.46173 156.806421 
L 351.754413 135.901098 
L 357.047096 169.681283 
L 362.339779 162.134568 
L 367.632462 180.547484 
L 372.925145 180.430059 
L 378.217828 179.640848 
L 383.510511 169.886 
L 388.803194 169.716933 
L 394.095877 164.233202 
L 399.388559 184.40875 
L 404.681242 183.443501 
L 409.973925 187.188869 
L 415.266608 145.895986 
L 420.559291 145.050974 
L 425.851974 127.437279 
L 431.144657 138.005279 
L 436.43734 139.28414 
L 441.730023 132.808386 
L 447.022706 150.140404 
L 452.315389 160.708963 
L 457.608072 172.169998 
L 462.900755 165.698635 
L 468.193437 135.00149 
L 473.48612 155.855277 
L 478.778803 155.562343 
L 484.071486 155.048656 
L 489.364169 181.98167 
L 494.656852 189.380516 
L 499.949535 127.087332 
L 505.242218 145.607345 
L 510.534901 152.492827 
L 515.827584 158.914676 
L 521.120267 173.911121 
L 526.41295 183.78101 
L 531.705633 196.381939 
L 536.998316 190.850363 
L 542.290998 166.715334 
L 547.583681 181.469855 
L 552.876364 179.31675 
L 558.169047 177.689941 
L 563.46173 204.785969 
L 568.754413 194.78795 
L 574.047096 165.445708 
L 579.339779 159.748491 
L 584.632462 159.779522 
L 589.925145 185.883741 
L 595.217828 192.440351 
L 600.510511 205.149639 
L 605.803194 214.310991 
L 611.095877 185.64234 
L 616.388559 191.754641 
L 621.681242 187.728222 
L 626.973925 179.691892 
L 632.266608 181.959541 
L 637.559291 194.962167 
L 642.851974 201.584824 
L 648.144657 183.458087 
L 653.43734 178.674757 
L 658.730023 178.245144 
L 664.022706 202.535963 
L 669.315389 200.961646 
" style="fill:none;stroke:#d55e00;stroke-linecap:round;stroke-width:1.5;"/>
   </g>
   <g id="line2d_50">
    <path clip-path="url(#p331b3eba0b)" d="M 55.364169 371.835736 
L 60.656852 384.793559 
L 65.949535 323.19366 
L 71.242218 407.725842 
L 76.534901 402.601018 
L 81.827584 400.832201 
L 87.120267 388.067986 
L 92.41295 322.356218 
L 97.705633 358.567004 
L 102.998316 453.437794 
L 108.290998 453.03838 
L 113.583681 459.282459 
L 118.876364 449.29683 
L 124.169047 439.007233 
L 129.46173 402.503737 
L 134.754413 438.076333 
L 140.047096 434.983163 
L 145.339779 439.949182 
L 150.632462 427.47665 
L 155.925145 433.97659 
L 161.217828 396.274512 
L 166.510511 378.013157 
L 171.803194 379.779775 
L 177.095877 372.291175 
L 182.388559 373.15853 
L 187.681242 386.517323 
L 192.973925 360.62355 
L 198.266608 327.408359 
L 203.559291 345.976106 
L 208.851974 373.221377 
L 214.144657 350.155202 
L 219.43734 373.937427 
L 224.730023 360.85008 
L 230.022706 352.697408 
L 235.315389 349.764412 
L 240.608072 333.294844 
L 245.900755 347.309027 
L 251.193437 357.325054 
L 256.48612 292.075191 
L 261.778803 291.763299 
L 267.071486 309.594281 
L 272.364169 276.402804 
L 277.656852 261.721362 
L 282.949535 276.72281 
L 288.242218 281.250906 
L 293.534901 295.661152 
L 298.827584 284.397507 
L 304.120267 310.229063 
L 309.41295 306.493725 
L 314.705633 247.450745 
L 319.998316 291.745935 
L 325.290998 318.081469 
L 330.583681 321.586538 
L 335.876364 321.468375 
L 341.169047 330.648189 
L 346.46173 304.86871 
L 351.754413 279.48558 
L 357.047096 319.814948 
L 362.339779 313.30218 
L 367.632462 330.570648 
L 372.925145 337.200111 
L 378.217828 330.681348 
L 383.510511 310.089304 
L 388.803194 317.998038 
L 394.095877 316.328581 
L 399.388559 335.955537 
L 404.681242 335.468392 
L 409.973925 340.211252 
L 415.266608 280.852312 
L 420.559291 272.25759 
L 425.851974 252.502382 
L 431.144657 274.653869 
L 436.43734 280.108695 
L 441.730023 272.311614 
L 447.022706 292.738682 
L 452.315389 296.951905 
L 457.608072 304.932532 
L 462.900755 296.882572 
L 468.193437 270.391828 
L 473.48612 289.209956 
L 478.778803 292.173886 
L 484.071486 298.274244 
L 489.364169 315.532252 
L 494.656852 311.676263 
L 499.949535 243.732987 
L 505.242218 275.771645 
L 510.534901 285.126332 
L 515.827584 289.628029 
L 521.120267 312.658997 
L 526.41295 313.920421 
L 531.705633 314.421964 
L 536.998316 305.020269 
L 542.290998 281.139534 
L 547.583681 314.428277 
L 552.876364 310.107374 
L 558.169047 312.827102 
L 563.46173 334.600488 
L 568.754413 323.07195 
L 574.047096 294.374969 
L 579.339779 299.628494 
L 584.632462 297.406341 
L 589.925145 321.28456 
L 595.217828 321.85668 
L 600.510511 328.111984 
L 605.803194 326.830791 
L 611.095877 297.054665 
L 616.388559 316.947629 
L 621.681242 319.082939 
L 626.973925 307.470844 
L 632.266608 308.251469 
L 637.559291 315.964999 
L 642.851974 315.083845 
L 648.144657 297.664679 
L 653.43734 303.896995 
L 658.730023 291.121178 
L 664.022706 317.702096 
L 669.315389 315.20936 
" style="fill:none;stroke:#cc78bc;stroke-linecap:round;stroke-width:1.5;"/>
   </g>
   <g id="patch_3">
    <path d="M 34.193437 507.867141 
L 34.193437 11.379141 
" style="fill:none;stroke:#cccccc;stroke-linecap:square;stroke-linejoin:miter;stroke-width:1.25;"/>
   </g>
   <g id="patch_4">
    <path d="M 34.193437 507.867141 
L 685.193437 507.867141 
" style="fill:none;stroke:#cccccc;stroke-linecap:square;stroke-linejoin:miter;stroke-width:1.25;"/>
   </g>
  </g>
 </g>
 <defs>
  <clipPath id="p331b3eba0b">
   <rect height="496.488" width="651" x="34.193437" y="11.379141"/>
  </clipPath>
 </defs>
</svg>
