<?xml version="1.0" encoding="utf-8" standalone="no"?>
<!DOCTYPE svg PUBLIC "-//W3C//DTD SVG 1.1//EN"
  "http://www.w3.org/Graphics/SVG/1.1/DTD/svg11.dtd">
<!-- Created with matplotlib (https://matplotlib.org/) -->
<svg height="237.320278pt" version="1.1" viewBox="0 0 301.793438 237.320278" width="301.793438pt" xmlns="http://www.w3.org/2000/svg" xmlns:xlink="http://www.w3.org/1999/xlink">
 <defs>
  <style type="text/css">
*{stroke-linecap:butt;stroke-linejoin:round;}
  </style>
 </defs>
 <g id="figure_1">
  <g id="patch_1">
   <path d="M 0 237.320278 
L 301.793438 237.320278 
L 301.793438 0 
L 0 0 
z
" style="fill:#ffffff;"/>
  </g>
  <g id="axes_1">
   <g id="patch_2">
    <path d="M 34.193438 209.974341 
L 294.593438 209.974341 
L 294.593438 11.379141 
L 34.193438 11.379141 
z
" style="fill:#ffffff;"/>
   </g>
   <g id="matplotlib.axis_1">
    <g id="xtick_1">
     <g id="line2d_1">
      <defs>
       <path d="M 0 0 
L 0 6 
" id="m380f00d541" style="stroke:#262626;stroke-width:1.25;"/>
      </defs>
      <g>
       <use style="fill:#262626;stroke:#262626;stroke-width:1.25;" x="57.481242" xlink:href="#m380f00d541" y="209.974341"/>
      </g>
     </g>
     <g id="text_1">
      <!-- 03/01 -->
      <defs>
       <path d="M 31.78125 66.40625 
Q 24.171875 66.40625 20.328125 58.90625 
Q 16.5 51.421875 16.5 36.375 
Q 16.5 21.390625 20.328125 13.890625 
Q 24.171875 6.390625 31.78125 6.390625 
Q 39.453125 6.390625 43.28125 13.890625 
Q 47.125 21.390625 47.125 36.375 
Q 47.125 51.421875 43.28125 58.90625 
Q 39.453125 66.40625 31.78125 66.40625 
z
M 31.78125 74.21875 
Q 44.046875 74.21875 50.515625 64.515625 
Q 56.984375 54.828125 56.984375 36.375 
Q 56.984375 17.96875 50.515625 8.265625 
Q 44.046875 -1.421875 31.78125 -1.421875 
Q 19.53125 -1.421875 13.0625 8.265625 
Q 6.59375 17.96875 6.59375 36.375 
Q 6.59375 54.828125 13.0625 64.515625 
Q 19.53125 74.21875 31.78125 74.21875 
z
" id="DejaVuSans-48"/>
       <path d="M 40.578125 39.3125 
Q 47.65625 37.796875 51.625 33 
Q 55.609375 28.21875 55.609375 21.1875 
Q 55.609375 10.40625 48.1875 4.484375 
Q 40.765625 -1.421875 27.09375 -1.421875 
Q 22.515625 -1.421875 17.65625 -0.515625 
Q 12.796875 0.390625 7.625 2.203125 
L 7.625 11.71875 
Q 11.71875 9.328125 16.59375 8.109375 
Q 21.484375 6.890625 26.8125 6.890625 
Q 36.078125 6.890625 40.9375 10.546875 
Q 45.796875 14.203125 45.796875 21.1875 
Q 45.796875 27.640625 41.28125 31.265625 
Q 36.765625 34.90625 28.71875 34.90625 
L 20.21875 34.90625 
L 20.21875 43.015625 
L 29.109375 43.015625 
Q 36.375 43.015625 40.234375 45.921875 
Q 44.09375 48.828125 44.09375 54.296875 
Q 44.09375 59.90625 40.109375 62.90625 
Q 36.140625 65.921875 28.71875 65.921875 
Q 24.65625 65.921875 20.015625 65.03125 
Q 15.375 64.15625 9.8125 62.3125 
L 9.8125 71.09375 
Q 15.4375 72.65625 20.34375 73.4375 
Q 25.25 74.21875 29.59375 74.21875 
Q 40.828125 74.21875 47.359375 69.109375 
Q 53.90625 64.015625 53.90625 55.328125 
Q 53.90625 49.265625 50.4375 45.09375 
Q 46.96875 40.921875 40.578125 39.3125 
z
" id="DejaVuSans-51"/>
       <path d="M 25.390625 72.90625 
L 33.6875 72.90625 
L 8.296875 -9.28125 
L 0 -9.28125 
z
" id="DejaVuSans-47"/>
       <path d="M 12.40625 8.296875 
L 28.515625 8.296875 
L 28.515625 63.921875 
L 10.984375 60.40625 
L 10.984375 69.390625 
L 28.421875 72.90625 
L 38.28125 72.90625 
L 38.28125 8.296875 
L 54.390625 8.296875 
L 54.390625 0 
L 12.40625 0 
z
" id="DejaVuSans-49"/>
      </defs>
      <g style="fill:#262626;" transform="translate(41.63093 227.832622)scale(0.11 -0.11)">
       <use xlink:href="#DejaVuSans-48"/>
       <use x="63.623047" xlink:href="#DejaVuSans-51"/>
       <use x="127.246094" xlink:href="#DejaVuSans-47"/>
       <use x="160.9375" xlink:href="#DejaVuSans-48"/>
       <use x="224.560547" xlink:href="#DejaVuSans-49"/>
      </g>
     </g>
    </g>
    <g id="xtick_2">
     <g id="line2d_2">
      <g>
       <use style="fill:#262626;stroke:#262626;stroke-width:1.25;" x="123.110511" xlink:href="#m380f00d541" y="209.974341"/>
      </g>
     </g>
     <g id="text_2">
      <!-- 04/01 -->
      <defs>
       <path d="M 37.796875 64.3125 
L 12.890625 25.390625 
L 37.796875 25.390625 
z
M 35.203125 72.90625 
L 47.609375 72.90625 
L 47.609375 25.390625 
L 58.015625 25.390625 
L 58.015625 17.1875 
L 47.609375 17.1875 
L 47.609375 0 
L 37.796875 0 
L 37.796875 17.1875 
L 4.890625 17.1875 
L 4.890625 26.703125 
z
" id="DejaVuSans-52"/>
      </defs>
      <g style="fill:#262626;" transform="translate(107.260198 227.832622)scale(0.11 -0.11)">
       <use xlink:href="#DejaVuSans-48"/>
       <use x="63.623047" xlink:href="#DejaVuSans-52"/>
       <use x="127.246094" xlink:href="#DejaVuSans-47"/>
       <use x="160.9375" xlink:href="#DejaVuSans-48"/>
       <use x="224.560547" xlink:href="#DejaVuSans-49"/>
      </g>
     </g>
    </g>
    <g id="xtick_3">
     <g id="line2d_3">
      <g>
       <use style="fill:#262626;stroke:#262626;stroke-width:1.25;" x="186.622706" xlink:href="#m380f00d541" y="209.974341"/>
      </g>
     </g>
     <g id="text_3">
      <!-- 05/01 -->
      <defs>
       <path d="M 10.796875 72.90625 
L 49.515625 72.90625 
L 49.515625 64.59375 
L 19.828125 64.59375 
L 19.828125 46.734375 
Q 21.96875 47.46875 24.109375 47.828125 
Q 26.265625 48.1875 28.421875 48.1875 
Q 40.625 48.1875 47.75 41.5 
Q 54.890625 34.8125 54.890625 23.390625 
Q 54.890625 11.625 47.5625 5.09375 
Q 40.234375 -1.421875 26.90625 -1.421875 
Q 22.3125 -1.421875 17.546875 -0.640625 
Q 12.796875 0.140625 7.71875 1.703125 
L 7.71875 11.625 
Q 12.109375 9.234375 16.796875 8.0625 
Q 21.484375 6.890625 26.703125 6.890625 
Q 35.15625 6.890625 40.078125 11.328125 
Q 45.015625 15.765625 45.015625 23.390625 
Q 45.015625 31 40.078125 35.4375 
Q 35.15625 39.890625 26.703125 39.890625 
Q 22.75 39.890625 18.8125 39.015625 
Q 14.890625 38.140625 10.796875 36.28125 
z
" id="DejaVuSans-53"/>
      </defs>
      <g style="fill:#262626;" transform="translate(170.772393 227.832622)scale(0.11 -0.11)">
       <use xlink:href="#DejaVuSans-48"/>
       <use x="63.623047" xlink:href="#DejaVuSans-53"/>
       <use x="127.246094" xlink:href="#DejaVuSans-47"/>
       <use x="160.9375" xlink:href="#DejaVuSans-48"/>
       <use x="224.560547" xlink:href="#DejaVuSans-49"/>
      </g>
     </g>
    </g>
    <g id="xtick_4">
     <g id="line2d_4">
      <g>
       <use style="fill:#262626;stroke:#262626;stroke-width:1.25;" x="252.251974" xlink:href="#m380f00d541" y="209.974341"/>
      </g>
     </g>
     <g id="text_4">
      <!-- 06/01 -->
      <defs>
       <path d="M 33.015625 40.375 
Q 26.375 40.375 22.484375 35.828125 
Q 18.609375 31.296875 18.609375 23.390625 
Q 18.609375 15.53125 22.484375 10.953125 
Q 26.375 6.390625 33.015625 6.390625 
Q 39.65625 6.390625 43.53125 10.953125 
Q 47.40625 15.53125 47.40625 23.390625 
Q 47.40625 31.296875 43.53125 35.828125 
Q 39.65625 40.375 33.015625 40.375 
z
M 52.59375 71.296875 
L 52.59375 62.3125 
Q 48.875 64.0625 45.09375 64.984375 
Q 41.3125 65.921875 37.59375 65.921875 
Q 27.828125 65.921875 22.671875 59.328125 
Q 17.53125 52.734375 16.796875 39.40625 
Q 19.671875 43.65625 24.015625 45.921875 
Q 28.375 48.1875 33.59375 48.1875 
Q 44.578125 48.1875 50.953125 41.515625 
Q 57.328125 34.859375 57.328125 23.390625 
Q 57.328125 12.15625 50.6875 5.359375 
Q 44.046875 -1.421875 33.015625 -1.421875 
Q 20.359375 -1.421875 13.671875 8.265625 
Q 6.984375 17.96875 6.984375 36.375 
Q 6.984375 53.65625 15.1875 63.9375 
Q 23.390625 74.21875 37.203125 74.21875 
Q 40.921875 74.21875 44.703125 73.484375 
Q 48.484375 72.75 52.59375 71.296875 
z
" id="DejaVuSans-54"/>
      </defs>
      <g style="fill:#262626;" transform="translate(236.401662 227.832622)scale(0.11 -0.11)">
       <use xlink:href="#DejaVuSans-48"/>
       <use x="63.623047" xlink:href="#DejaVuSans-54"/>
       <use x="127.246094" xlink:href="#DejaVuSans-47"/>
       <use x="160.9375" xlink:href="#DejaVuSans-48"/>
       <use x="224.560547" xlink:href="#DejaVuSans-49"/>
      </g>
     </g>
    </g>
    <g id="xtick_5">
     <g id="line2d_5">
      <path clip-path="url(#p651499cf4e)" d="M 46.895877 209.974341 
L 46.895877 11.379141 
" style="fill:none;stroke:#1a1a1a;stroke-dasharray:1.85,0.8;stroke-dashoffset:0;stroke-opacity:0.3;stroke-width:0.5;"/>
     </g>
     <g id="line2d_6"/>
    </g>
    <g id="xtick_6">
     <g id="line2d_7">
      <path clip-path="url(#p651499cf4e)" d="M 61.715389 209.974341 
L 61.715389 11.379141 
" style="fill:none;stroke:#1a1a1a;stroke-dasharray:1.85,0.8;stroke-dashoffset:0;stroke-opacity:0.3;stroke-width:0.5;"/>
     </g>
     <g id="line2d_8"/>
    </g>
    <g id="xtick_7">
     <g id="line2d_9">
      <path clip-path="url(#p651499cf4e)" d="M 76.534901 209.974341 
L 76.534901 11.379141 
" style="fill:none;stroke:#1a1a1a;stroke-dasharray:1.85,0.8;stroke-dashoffset:0;stroke-opacity:0.3;stroke-width:0.5;"/>
     </g>
     <g id="line2d_10"/>
    </g>
    <g id="xtick_8">
     <g id="line2d_11">
      <path clip-path="url(#p651499cf4e)" d="M 91.354413 209.974341 
L 91.354413 11.379141 
" style="fill:none;stroke:#1a1a1a;stroke-dasharray:1.85,0.8;stroke-dashoffset:0;stroke-opacity:0.3;stroke-width:0.5;"/>
     </g>
     <g id="line2d_12"/>
    </g>
    <g id="xtick_9">
     <g id="line2d_13">
      <path clip-path="url(#p651499cf4e)" d="M 106.173925 209.974341 
L 106.173925 11.379141 
" style="fill:none;stroke:#1a1a1a;stroke-dasharray:1.85,0.8;stroke-dashoffset:0;stroke-opacity:0.3;stroke-width:0.5;"/>
     </g>
     <g id="line2d_14"/>
    </g>
    <g id="xtick_10">
     <g id="line2d_15">
      <path clip-path="url(#p651499cf4e)" d="M 120.993438 209.974341 
L 120.993438 11.379141 
" style="fill:none;stroke:#1a1a1a;stroke-dasharray:1.85,0.8;stroke-dashoffset:0;stroke-opacity:0.3;stroke-width:0.5;"/>
     </g>
     <g id="line2d_16"/>
    </g>
    <g id="xtick_11">
     <g id="line2d_17">
      <path clip-path="url(#p651499cf4e)" d="M 135.81295 209.974341 
L 135.81295 11.379141 
" style="fill:none;stroke:#1a1a1a;stroke-dasharray:1.85,0.8;stroke-dashoffset:0;stroke-opacity:0.3;stroke-width:0.5;"/>
     </g>
     <g id="line2d_18"/>
    </g>
    <g id="xtick_12">
     <g id="line2d_19">
      <path clip-path="url(#p651499cf4e)" d="M 150.632462 209.974341 
L 150.632462 11.379141 
" style="fill:none;stroke:#1a1a1a;stroke-dasharray:1.85,0.8;stroke-dashoffset:0;stroke-opacity:0.3;stroke-width:0.5;"/>
     </g>
     <g id="line2d_20"/>
    </g>
    <g id="xtick_13">
     <g id="line2d_21">
      <path clip-path="url(#p651499cf4e)" d="M 165.451974 209.974341 
L 165.451974 11.379141 
" style="fill:none;stroke:#1a1a1a;stroke-dasharray:1.85,0.8;stroke-dashoffset:0;stroke-opacity:0.3;stroke-width:0.5;"/>
     </g>
     <g id="line2d_22"/>
    </g>
    <g id="xtick_14">
     <g id="line2d_23">
      <path clip-path="url(#p651499cf4e)" d="M 180.271486 209.974341 
L 180.271486 11.379141 
" style="fill:none;stroke:#1a1a1a;stroke-dasharray:1.85,0.8;stroke-dashoffset:0;stroke-opacity:0.3;stroke-width:0.5;"/>
     </g>
     <g id="line2d_24"/>
    </g>
    <g id="xtick_15">
     <g id="line2d_25">
      <path clip-path="url(#p651499cf4e)" d="M 195.090998 209.974341 
L 195.090998 11.379141 
" style="fill:none;stroke:#1a1a1a;stroke-dasharray:1.85,0.8;stroke-dashoffset:0;stroke-opacity:0.3;stroke-width:0.5;"/>
     </g>
     <g id="line2d_26"/>
    </g>
    <g id="xtick_16">
     <g id="line2d_27">
      <path clip-path="url(#p651499cf4e)" d="M 209.910511 209.974341 
L 209.910511 11.379141 
" style="fill:none;stroke:#1a1a1a;stroke-dasharray:1.85,0.8;stroke-dashoffset:0;stroke-opacity:0.3;stroke-width:0.5;"/>
     </g>
     <g id="line2d_28"/>
    </g>
    <g id="xtick_17">
     <g id="line2d_29">
      <path clip-path="url(#p651499cf4e)" d="M 224.730023 209.974341 
L 224.730023 11.379141 
" style="fill:none;stroke:#1a1a1a;stroke-dasharray:1.85,0.8;stroke-dashoffset:0;stroke-opacity:0.3;stroke-width:0.5;"/>
     </g>
     <g id="line2d_30"/>
    </g>
    <g id="xtick_18">
     <g id="line2d_31">
      <path clip-path="url(#p651499cf4e)" d="M 239.549535 209.974341 
L 239.549535 11.379141 
" style="fill:none;stroke:#1a1a1a;stroke-dasharray:1.85,0.8;stroke-dashoffset:0;stroke-opacity:0.3;stroke-width:0.5;"/>
     </g>
     <g id="line2d_32"/>
    </g>
    <g id="xtick_19">
     <g id="line2d_33">
      <path clip-path="url(#p651499cf4e)" d="M 254.369047 209.974341 
L 254.369047 11.379141 
" style="fill:none;stroke:#1a1a1a;stroke-dasharray:1.85,0.8;stroke-dashoffset:0;stroke-opacity:0.3;stroke-width:0.5;"/>
     </g>
     <g id="line2d_34"/>
    </g>
    <g id="xtick_20">
     <g id="line2d_35">
      <path clip-path="url(#p651499cf4e)" d="M 269.188559 209.974341 
L 269.188559 11.379141 
" style="fill:none;stroke:#1a1a1a;stroke-dasharray:1.85,0.8;stroke-dashoffset:0;stroke-opacity:0.3;stroke-width:0.5;"/>
     </g>
     <g id="line2d_36"/>
    </g>
    <g id="xtick_21">
     <g id="line2d_37">
      <path clip-path="url(#p651499cf4e)" d="M 284.008072 209.974341 
L 284.008072 11.379141 
" style="fill:none;stroke:#1a1a1a;stroke-dasharray:1.85,0.8;stroke-dashoffset:0;stroke-opacity:0.3;stroke-width:0.5;"/>
     </g>
     <g id="line2d_38"/>
    </g>
   </g>
   <g id="matplotlib.axis_2">
    <g id="ytick_1">
     <g id="line2d_39">
      <defs>
       <path d="M 0 0 
L -6 0 
" id="mb2f189b5b2" style="stroke:#262626;stroke-width:1.25;"/>
      </defs>
      <g>
       <use style="fill:#262626;stroke:#262626;stroke-width:1.25;" x="34.193438" xlink:href="#mb2f189b5b2" y="209.974341"/>
      </g>
     </g>
     <g id="text_5">
      <!-- 0.1 -->
      <defs>
       <path d="M 10.6875 12.40625 
L 21 12.40625 
L 21 0 
L 10.6875 0 
z
" id="DejaVuSans-46"/>
      </defs>
      <g style="fill:#262626;" transform="translate(7.2 214.153481)scale(0.11 -0.11)">
       <use xlink:href="#DejaVuSans-48"/>
       <use x="63.623047" xlink:href="#DejaVuSans-46"/>
       <use x="95.410156" xlink:href="#DejaVuSans-49"/>
      </g>
     </g>
    </g>
    <g id="ytick_2">
     <g id="line2d_40">
      <g>
       <use style="fill:#262626;stroke:#262626;stroke-width:1.25;" x="34.193438" xlink:href="#mb2f189b5b2" y="176.875141"/>
      </g>
     </g>
     <g id="text_6">
      <!-- 0.2 -->
      <defs>
       <path d="M 19.1875 8.296875 
L 53.609375 8.296875 
L 53.609375 0 
L 7.328125 0 
L 7.328125 8.296875 
Q 12.9375 14.109375 22.625 23.890625 
Q 32.328125 33.6875 34.8125 36.53125 
Q 39.546875 41.84375 41.421875 45.53125 
Q 43.3125 49.21875 43.3125 52.78125 
Q 43.3125 58.59375 39.234375 62.25 
Q 35.15625 65.921875 28.609375 65.921875 
Q 23.96875 65.921875 18.8125 64.3125 
Q 13.671875 62.703125 7.8125 59.421875 
L 7.8125 69.390625 
Q 13.765625 71.78125 18.9375 73 
Q 24.125 74.21875 28.421875 74.21875 
Q 39.75 74.21875 46.484375 68.546875 
Q 53.21875 62.890625 53.21875 53.421875 
Q 53.21875 48.921875 51.53125 44.890625 
Q 49.859375 40.875 45.40625 35.40625 
Q 44.1875 33.984375 37.640625 27.21875 
Q 31.109375 20.453125 19.1875 8.296875 
z
" id="DejaVuSans-50"/>
      </defs>
      <g style="fill:#262626;" transform="translate(7.2 181.054281)scale(0.11 -0.11)">
       <use xlink:href="#DejaVuSans-48"/>
       <use x="63.623047" xlink:href="#DejaVuSans-46"/>
       <use x="95.410156" xlink:href="#DejaVuSans-50"/>
      </g>
     </g>
    </g>
    <g id="ytick_3">
     <g id="line2d_41">
      <g>
       <use style="fill:#262626;stroke:#262626;stroke-width:1.25;" x="34.193438" xlink:href="#mb2f189b5b2" y="143.775941"/>
      </g>
     </g>
     <g id="text_7">
      <!-- 0.3 -->
      <g style="fill:#262626;" transform="translate(7.2 147.955081)scale(0.11 -0.11)">
       <use xlink:href="#DejaVuSans-48"/>
       <use x="63.623047" xlink:href="#DejaVuSans-46"/>
       <use x="95.410156" xlink:href="#DejaVuSans-51"/>
      </g>
     </g>
    </g>
    <g id="ytick_4">
     <g id="line2d_42">
      <g>
       <use style="fill:#262626;stroke:#262626;stroke-width:1.25;" x="34.193438" xlink:href="#mb2f189b5b2" y="110.676741"/>
      </g>
     </g>
     <g id="text_8">
      <!-- 0.4 -->
      <g style="fill:#262626;" transform="translate(7.2 114.855881)scale(0.11 -0.11)">
       <use xlink:href="#DejaVuSans-48"/>
       <use x="63.623047" xlink:href="#DejaVuSans-46"/>
       <use x="95.410156" xlink:href="#DejaVuSans-52"/>
      </g>
     </g>
    </g>
    <g id="ytick_5">
     <g id="line2d_43">
      <g>
       <use style="fill:#262626;stroke:#262626;stroke-width:1.25;" x="34.193438" xlink:href="#mb2f189b5b2" y="77.577541"/>
      </g>
     </g>
     <g id="text_9">
      <!-- 0.5 -->
      <g style="fill:#262626;" transform="translate(7.2 81.756681)scale(0.11 -0.11)">
       <use xlink:href="#DejaVuSans-48"/>
       <use x="63.623047" xlink:href="#DejaVuSans-46"/>
       <use x="95.410156" xlink:href="#DejaVuSans-53"/>
      </g>
     </g>
    </g>
    <g id="ytick_6">
     <g id="line2d_44">
      <g>
       <use style="fill:#262626;stroke:#262626;stroke-width:1.25;" x="34.193438" xlink:href="#mb2f189b5b2" y="44.478341"/>
      </g>
     </g>
     <g id="text_10">
      <!-- 0.6 -->
      <g style="fill:#262626;" transform="translate(7.2 48.657481)scale(0.11 -0.11)">
       <use xlink:href="#DejaVuSans-48"/>
       <use x="63.623047" xlink:href="#DejaVuSans-46"/>
       <use x="95.410156" xlink:href="#DejaVuSans-54"/>
      </g>
     </g>
    </g>
    <g id="ytick_7">
     <g id="line2d_45">
      <g>
       <use style="fill:#262626;stroke:#262626;stroke-width:1.25;" x="34.193438" xlink:href="#mb2f189b5b2" y="11.379141"/>
      </g>
     </g>
     <g id="text_11">
      <!-- 0.7 -->
      <defs>
       <path d="M 8.203125 72.90625 
L 55.078125 72.90625 
L 55.078125 68.703125 
L 28.609375 0 
L 18.3125 0 
L 43.21875 64.59375 
L 8.203125 64.59375 
z
" id="DejaVuSans-55"/>
      </defs>
      <g style="fill:#262626;" transform="translate(7.2 15.558281)scale(0.11 -0.11)">
       <use xlink:href="#DejaVuSans-48"/>
       <use x="63.623047" xlink:href="#DejaVuSans-46"/>
       <use x="95.410156" xlink:href="#DejaVuSans-55"/>
      </g>
     </g>
    </g>
   </g>
   <g id="line2d_46">
    <path clip-path="url(#p651499cf4e)" d="M 42.66173 158.394172 
L 44.778803 171.843997 
L 46.895877 134.092678 
L 49.01295 184.293471 
L 51.130023 181.100519 
L 53.247096 180.103889 
L 55.364169 167.66315 
L 57.481242 144.145912 
L 59.598316 168.039346 
L 61.715389 178.295888 
L 63.832462 176.810033 
L 65.949535 180.614489 
L 68.066608 176.780767 
L 70.183681 166.554 
L 72.300755 146.627111 
L 74.417828 169.153537 
L 76.534901 171.391762 
L 78.651974 173.995056 
L 80.769047 166.439927 
L 82.88612 171.418522 
L 85.003194 145.562727 
L 87.120267 132.306879 
L 89.23734 141.398452 
L 91.354413 140.947302 
L 93.471486 135.005944 
L 95.588559 138.298837 
L 97.705633 122.862025 
L 99.822706 95.764272 
L 101.939779 107.824113 
L 104.056852 125.484143 
L 106.173925 115.479183 
L 108.290998 126.527407 
L 110.408072 119.487398 
L 112.525145 118.767612 
L 114.642218 112.668588 
L 116.759291 100.623087 
L 118.876364 115.047083 
L 120.993438 121.050153 
L 123.110511 113.216526 
L 125.227584 112.092565 
L 127.344657 118.472363 
L 129.46173 97.419616 
L 131.578803 86.667615 
L 133.695877 101.772576 
L 135.81295 102.569868 
L 137.930023 110.201548 
L 140.047096 105.563767 
L 142.164169 116.271512 
L 144.281242 112.470489 
L 146.398316 83.925053 
L 148.515389 108.287982 
L 150.632462 121.345477 
L 152.749535 124.428938 
L 154.866608 121.6427 
L 156.983681 126.395722 
L 159.100755 112.014096 
L 161.217828 100.681455 
L 163.334901 120.081203 
L 165.451974 120.474635 
L 167.569047 128.307421 
L 169.68612 129.635988 
L 171.803194 130.482765 
L 173.920267 119.302636 
L 176.03734 116.099346 
L 178.154413 122.46405 
L 180.271486 131.602965 
L 182.388559 131.353641 
L 184.505633 134.282014 
L 186.622706 128.768072 
L 188.739779 121.316901 
L 190.856852 111.310663 
L 192.973925 124.597658 
L 195.090998 128.180493 
L 197.208072 122.621651 
L 199.325145 130.32944 
L 201.442218 134.42801 
L 203.559291 134.285113 
L 205.676364 128.152416 
L 207.793438 122.975592 
L 209.910511 129.63498 
L 212.027584 131.424372 
L 214.144657 135.655976 
L 216.26173 142.682702 
L 218.378803 137.303668 
L 220.495877 110.417049 
L 222.61295 126.500861 
L 224.730023 131.35459 
L 226.847096 134.765385 
L 228.964169 142.973794 
L 231.081242 143.126589 
L 233.198316 142.010778 
L 235.315389 133.69824 
L 237.432462 124.39053 
L 239.549535 142.633955 
L 241.666608 141.750569 
L 243.783681 142.06174 
L 245.900755 150.66807 
L 248.017828 142.852864 
L 250.134901 130.979053 
L 252.251974 136.697021 
L 254.369047 138.288111 
L 256.48612 148.736487 
L 258.603194 148.740112 
L 260.720267 152.720434 
L 262.83734 149.36517 
L 264.954413 135.415032 
L 267.071486 147.367138 
L 269.188559 148.569292 
L 271.305633 144.567768 
L 273.422706 145.757004 
L 275.539779 147.489861 
L 277.656852 145.274738 
L 279.773925 136.876695 
L 281.890998 143.617036 
L 284.008072 138.394167 
L 286.125145 147.84454 
L 288.242218 147.534613 
" style="fill:none;stroke:#0173b2;stroke-linecap:round;stroke-width:1.5;"/>
   </g>
   <g id="line2d_47">
    <path clip-path="url(#p651499cf4e)" d="M 42.66173 154.240276 
L 44.778803 169.229406 
L 46.895877 129.388151 
L 49.01295 180.813782 
L 51.130023 177.446153 
L 53.247096 176.956304 
L 55.364169 163.518374 
L 57.481242 139.817215 
L 59.598316 164.249061 
L 61.715389 173.848282 
L 63.832462 172.584318 
L 65.949535 176.148691 
L 68.066608 171.715158 
L 70.183681 160.221557 
L 72.300755 140.752708 
L 74.417828 164.45675 
L 76.534901 165.263396 
L 78.651974 168.977401 
L 80.769047 159.748526 
L 82.88612 163.987639 
L 85.003194 134.945303 
L 87.120267 121.508313 
L 89.23734 127.831631 
L 91.354413 123.14568 
L 93.471486 116.834649 
L 95.588559 119.984894 
L 97.705633 103.121586 
L 99.822706 78.628488 
L 101.939779 90.419229 
L 104.056852 105.680973 
L 106.173925 96.943108 
L 108.290998 108.20102 
L 110.408072 99.852543 
L 112.525145 98.428309 
L 114.642218 94.72451 
L 116.759291 83.530603 
L 118.876364 94.852127 
L 120.993438 100.357455 
L 123.110511 91.700628 
L 125.227584 91.177584 
L 127.344657 97.763361 
L 129.46173 80.738677 
L 131.578803 69.287905 
L 133.695877 77.564024 
L 135.81295 78.621506 
L 137.930023 86.682031 
L 140.047096 80.115252 
L 142.164169 92.890398 
L 144.281242 92.412161 
L 146.398316 61.311854 
L 148.515389 85.318126 
L 150.632462 96.365941 
L 152.749535 99.619965 
L 154.866608 97.248439 
L 156.983681 101.986357 
L 159.100755 90.189525 
L 161.217828 79.664411 
L 163.334901 97.438435 
L 165.451974 98.468273 
L 167.569047 105.048719 
L 169.68612 106.198906 
L 171.803194 106.800448 
L 173.920267 98.167654 
L 176.03734 94.627247 
L 178.154413 98.935962 
L 180.271486 107.567594 
L 182.388559 107.233225 
L 184.505633 110.099514 
L 186.622706 107.615631 
L 188.739779 103.50198 
L 190.856852 91.692058 
L 192.973925 102.934957 
L 195.090998 106.31282 
L 197.208072 101.533805 
L 199.325145 107.658943 
L 201.442218 113.75161 
L 203.559291 116.427887 
L 205.676364 111.018906 
L 207.793438 101.480245 
L 209.910511 108.610948 
L 212.027584 109.617571 
L 214.144657 112.710704 
L 216.26173 122.31882 
L 218.378803 118.559221 
L 220.495877 93.641689 
L 222.61295 105.761955 
L 224.730023 110.261624 
L 226.847096 114.168007 
L 228.964169 121.553896 
L 231.081242 124.411282 
L 233.198316 124.389312 
L 235.315389 117.024492 
L 237.432462 106.752489 
L 239.549535 122.294313 
L 241.666608 121.420933 
L 243.783681 123.494423 
L 245.900755 133.494086 
L 248.017828 128.236548 
L 250.134901 113.746452 
L 252.251974 116.808293 
L 254.369047 116.91328 
L 256.48612 129.524287 
L 258.603194 131.152392 
L 260.720267 135.764527 
L 262.83734 133.801301 
L 264.954413 121.842133 
L 267.071486 130.626351 
L 269.188559 132.755113 
L 271.305633 128.796555 
L 273.422706 130.460094 
L 275.539779 133.608254 
L 277.656852 132.995832 
L 279.773925 123.521007 
L 281.890998 128.933311 
L 284.008072 122.957255 
L 286.125145 133.037718 
L 288.242218 133.039139 
" style="fill:none;stroke:#de8f05;stroke-linecap:round;stroke-width:1.5;"/>
   </g>
   <g id="line2d_48">
    <path clip-path="url(#p651499cf4e)" d="M 42.66173 152.216555 
L 44.778803 168.098081 
L 46.895877 124.431708 
L 49.01295 178.297272 
L 51.130023 174.820357 
L 53.247096 175.170266 
L 55.364169 161.979228 
L 57.481242 136.739756 
L 59.598316 161.184548 
L 61.715389 170.793548 
L 63.832462 169.358852 
L 65.949535 172.591028 
L 68.066608 167.67453 
L 70.183681 154.595425 
L 72.300755 134.362174 
L 74.417828 160.380687 
L 76.534901 161.697948 
L 78.651974 163.721429 
L 80.769047 154.033495 
L 82.88612 155.492797 
L 85.003194 123.61298 
L 87.120267 109.724687 
L 89.23734 114.670468 
L 91.354413 102.613788 
L 93.471486 96.942972 
L 95.588559 101.542971 
L 97.705633 85.370994 
L 99.822706 64.023591 
L 101.939779 75.627446 
L 104.056852 88.521124 
L 106.173925 79.42941 
L 108.290998 89.921206 
L 110.408072 80.866413 
L 112.525145 79.470894 
L 114.642218 77.181729 
L 116.759291 67.366881 
L 118.876364 76.295417 
L 120.993438 80.6392 
L 123.110511 72.531237 
L 125.227584 71.538685 
L 127.344657 77.968362 
L 129.46173 63.231415 
L 131.578803 52.88197 
L 133.695877 56.903151 
L 135.81295 59.84093 
L 137.930023 68.047097 
L 140.047096 60.163784 
L 142.164169 73.686485 
L 144.281242 73.313512 
L 146.398316 45.512174 
L 148.515389 65.991517 
L 150.632462 75.337848 
L 152.749535 78.645342 
L 154.866608 74.696029 
L 156.983681 81.035103 
L 159.100755 71.974541 
L 161.217828 61.704453 
L 163.334901 77.988562 
L 165.451974 78.002112 
L 167.569047 85.180434 
L 169.68612 84.914579 
L 171.803194 85.552311 
L 173.920267 79.410379 
L 176.03734 76.091002 
L 178.154413 76.940323 
L 180.271486 86.001641 
L 182.388559 86.212252 
L 184.505633 88.093024 
L 186.622706 87.012922 
L 188.739779 83.978312 
L 190.856852 73.000014 
L 192.973925 82.339793 
L 195.090998 83.733372 
L 197.208072 79.492911 
L 199.325145 84.987111 
L 201.442218 91.861684 
L 203.559291 96.45199 
L 205.676364 93.011566 
L 207.793438 78.463484 
L 209.910511 85.577696 
L 212.027584 87.810791 
L 214.144657 88.714198 
L 216.26173 99.936524 
L 218.378803 98.551679 
L 220.495877 74.426865 
L 222.61295 82.600783 
L 224.730023 87.077852 
L 226.847096 91.49285 
L 228.964169 97.802278 
L 231.081242 103.465771 
L 233.198316 105.292311 
L 235.315389 99.666857 
L 237.432462 88.946169 
L 239.549535 100.188593 
L 241.666608 99.765431 
L 243.783681 101.68239 
L 245.900755 113.766284 
L 248.017828 109.097736 
L 250.134901 95.1035 
L 252.251974 95.336048 
L 254.369047 94.399146 
L 256.48612 108.20182 
L 258.603194 110.00291 
L 260.720267 116.002698 
L 262.83734 116.375008 
L 264.954413 105.6709 
L 267.071486 111.002782 
L 269.188559 112.93211 
L 271.305633 109.991162 
L 273.422706 111.496828 
L 275.539779 115.871896 
L 277.656852 117.519621 
L 279.773925 108.489664 
L 281.890998 110.580032 
L 284.008072 105.570953 
L 286.125145 115.438066 
L 288.242218 115.558902 
" style="fill:none;stroke:#029e73;stroke-linecap:round;stroke-width:1.5;"/>
   </g>
   <g id="line2d_49">
    <path clip-path="url(#p651499cf4e)" d="M 42.66173 151.122539 
L 44.778803 166.018054 
L 46.895877 126.558586 
L 49.01295 174.811488 
L 51.130023 170.466286 
L 53.247096 169.948011 
L 55.364169 159.430949 
L 57.481242 129.582576 
L 59.598316 151.250821 
L 61.715389 161.105998 
L 63.832462 157.78999 
L 65.949535 161.289613 
L 68.066608 155.974079 
L 70.183681 142.894814 
L 72.300755 124.890676 
L 74.417828 148.336527 
L 76.534901 149.937932 
L 78.651974 152.358257 
L 80.769047 143.436804 
L 82.88612 143.399539 
L 85.003194 115.615589 
L 87.120267 104.863743 
L 89.23734 109.99902 
L 91.354413 91.106872 
L 93.471486 87.627826 
L 95.588559 93.683259 
L 97.705633 83.499826 
L 99.822706 67.105406 
L 101.939779 77.769093 
L 104.056852 88.117555 
L 106.173925 76.307361 
L 108.290998 87.804777 
L 110.408072 79.628004 
L 112.525145 77.908072 
L 114.642218 76.501294 
L 116.759291 70.380415 
L 118.876364 75.510179 
L 120.993438 80.225693 
L 123.110511 62.524041 
L 125.227584 64.537938 
L 127.344657 68.599632 
L 129.46173 57.896096 
L 131.578803 51.39437 
L 133.695877 53.879272 
L 135.81295 58.382633 
L 137.930023 65.197196 
L 140.047096 59.323867 
L 142.164169 69.846968 
L 144.281242 69.971059 
L 146.398316 48.712201 
L 148.515389 61.799963 
L 150.632462 70.046454 
L 152.749535 73.595742 
L 154.866608 73.433504 
L 156.983681 76.107106 
L 159.100755 69.550053 
L 161.217828 61.187923 
L 163.334901 74.699997 
L 165.451974 71.681312 
L 167.569047 79.046478 
L 169.68612 78.999508 
L 171.803194 78.683824 
L 173.920267 74.781884 
L 176.03734 74.714258 
L 178.154413 72.520765 
L 180.271486 80.590984 
L 182.388559 80.204885 
L 184.505633 81.703032 
L 186.622706 65.185879 
L 188.739779 64.847874 
L 190.856852 57.802396 
L 192.973925 62.029596 
L 195.090998 62.541141 
L 197.208072 59.950839 
L 199.325145 66.883646 
L 201.442218 71.11107 
L 203.559291 75.695483 
L 205.676364 73.106938 
L 207.793438 60.82808 
L 209.910511 69.169595 
L 212.027584 69.052422 
L 214.144657 68.846947 
L 216.26173 79.620152 
L 218.378803 82.579691 
L 220.495877 57.662417 
L 222.61295 65.070422 
L 224.730023 67.824615 
L 226.847096 70.393355 
L 228.964169 76.391933 
L 231.081242 80.339888 
L 233.198316 85.38026 
L 235.315389 83.16763 
L 237.432462 73.513618 
L 239.549535 79.415427 
L 241.666608 78.554184 
L 243.783681 77.903461 
L 245.900755 88.741872 
L 248.017828 84.742664 
L 250.134901 73.005768 
L 252.251974 70.726881 
L 254.369047 70.739293 
L 256.48612 81.180981 
L 258.603194 83.803625 
L 260.720267 88.88734 
L 262.83734 92.551881 
L 264.954413 81.084421 
L 267.071486 83.529341 
L 269.188559 81.918773 
L 271.305633 78.704241 
L 273.422706 79.611301 
L 275.539779 84.812351 
L 277.656852 87.461414 
L 279.773925 80.210719 
L 281.890998 78.297387 
L 284.008072 78.125542 
L 286.125145 87.841869 
L 288.242218 87.212143 
" style="fill:none;stroke:#d55e00;stroke-linecap:round;stroke-width:1.5;"/>
   </g>
   <g id="line2d_50">
    <path clip-path="url(#p651499cf4e)" d="M 42.66173 155.561779 
L 44.778803 160.744908 
L 46.895877 136.104949 
L 49.01295 169.917821 
L 51.130023 167.867892 
L 53.247096 167.160365 
L 55.364169 162.054679 
L 57.481242 135.769971 
L 59.598316 150.254286 
L 61.715389 188.202602 
L 63.832462 188.042836 
L 65.949535 190.540468 
L 68.066608 186.546216 
L 70.183681 182.430378 
L 72.300755 167.828979 
L 74.417828 182.058018 
L 76.534901 180.82075 
L 78.651974 182.807157 
L 80.769047 177.818144 
L 82.88612 180.41812 
L 85.003194 165.337289 
L 87.120267 158.032747 
L 89.23734 158.739394 
L 91.354413 155.743954 
L 93.471486 156.090896 
L 95.588559 161.434414 
L 97.705633 151.076904 
L 99.822706 137.790828 
L 101.939779 145.217927 
L 104.056852 156.116035 
L 106.173925 146.889565 
L 108.290998 156.402455 
L 110.408072 151.167516 
L 112.525145 147.906447 
L 114.642218 146.733249 
L 116.759291 140.145422 
L 118.876364 145.751095 
L 120.993438 149.757506 
L 123.110511 123.657561 
L 125.227584 123.532804 
L 127.344657 130.665197 
L 129.46173 117.388606 
L 131.578803 111.516029 
L 133.695877 117.516608 
L 135.81295 119.327847 
L 137.930023 125.091945 
L 140.047096 120.586487 
L 142.164169 130.91911 
L 144.281242 129.424974 
L 146.398316 105.807782 
L 148.515389 123.525858 
L 150.632462 134.060072 
L 152.749535 135.462099 
L 154.866608 135.414834 
L 156.983681 139.08676 
L 159.100755 128.774968 
L 161.217828 118.621717 
L 163.334901 134.753464 
L 165.451974 132.148356 
L 167.569047 139.055744 
L 169.68612 141.707529 
L 171.803194 139.100023 
L 173.920267 130.863206 
L 176.03734 134.0267 
L 178.154413 133.358917 
L 180.271486 141.209699 
L 182.388559 141.014841 
L 184.505633 142.911985 
L 186.622706 119.168409 
L 188.739779 115.73052 
L 190.856852 107.828437 
L 192.973925 116.689032 
L 195.090998 118.870962 
L 197.208072 115.75213 
L 199.325145 123.922957 
L 201.442218 125.608246 
L 203.559291 128.800497 
L 205.676364 125.580513 
L 207.793438 114.984216 
L 209.910511 122.511467 
L 212.027584 123.697039 
L 214.144657 126.137182 
L 216.26173 133.040385 
L 218.378803 131.49799 
L 220.495877 104.320679 
L 222.61295 117.136142 
L 224.730023 120.878017 
L 226.847096 122.678696 
L 228.964169 131.891083 
L 231.081242 132.395653 
L 233.198316 132.59627 
L 235.315389 128.835592 
L 237.432462 119.283298 
L 239.549535 132.598795 
L 241.666608 130.870434 
L 243.783681 131.958325 
L 245.900755 140.66768 
L 248.017828 136.056264 
L 250.134901 124.577472 
L 252.251974 126.678882 
L 254.369047 125.790021 
L 256.48612 135.341308 
L 258.603194 135.570156 
L 260.720267 138.072278 
L 262.83734 137.559801 
L 264.954413 125.64935 
L 267.071486 133.606536 
L 269.188559 134.46066 
L 271.305633 129.815822 
L 273.422706 130.128072 
L 275.539779 133.213484 
L 277.656852 132.861023 
L 279.773925 125.893356 
L 281.890998 128.386282 
L 284.008072 123.275955 
L 286.125145 133.908323 
L 288.242218 132.911228 
" style="fill:none;stroke:#cc78bc;stroke-linecap:round;stroke-width:1.5;"/>
   </g>
   <g id="patch_3">
    <path d="M 34.193438 209.974341 
L 34.193438 11.379141 
" style="fill:none;stroke:#cccccc;stroke-linecap:square;stroke-linejoin:miter;stroke-width:1.25;"/>
   </g>
   <g id="patch_4">
    <path d="M 34.193438 209.974341 
L 294.593438 209.974341 
" style="fill:none;stroke:#cccccc;stroke-linecap:square;stroke-linejoin:miter;stroke-width:1.25;"/>
   </g>
  </g>
 </g>
 <defs>
  <clipPath id="p651499cf4e">
   <rect height="198.5952" width="260.4" x="34.193438" y="11.379141"/>
  </clipPath>
 </defs>
</svg>
