<?xml version="1.0" encoding="utf-8" standalone="no"?>
<!DOCTYPE svg PUBLIC "-//W3C//DTD SVG 1.1//EN"
  "http://www.w3.org/Graphics/SVG/1.1/DTD/svg11.dtd">
<!-- Created with matplotlib (https://matplotlib.org/) -->
<svg height="535.213078pt" version="1.1" viewBox="0 0 692.393438 535.213078" width="692.393438pt" xmlns="http://www.w3.org/2000/svg" xmlns:xlink="http://www.w3.org/1999/xlink">
 <defs>
  <style type="text/css">
*{stroke-linecap:butt;stroke-linejoin:round;}
  </style>
 </defs>
 <g id="figure_1">
  <g id="patch_1">
   <path d="M 0 535.213078 
L 692.393438 535.213078 
L 692.393438 0 
L 0 0 
z
" style="fill:#ffffff;"/>
  </g>
  <g id="axes_1">
   <g id="patch_2">
    <path d="M 34.193437 507.867141 
L 685.193437 507.867141 
L 685.193437 11.379141 
L 34.193437 11.379141 
z
" style="fill:#ffffff;"/>
   </g>
   <g id="matplotlib.axis_1">
    <g id="xtick_1">
     <g id="line2d_1">
      <defs>
       <path d="M 0 0 
L 0 6 
" id="m1df11c9db1" style="stroke:#262626;stroke-width:1.25;"/>
      </defs>
      <g>
       <use style="fill:#262626;stroke:#262626;stroke-width:1.25;" x="92.41295" xlink:href="#m1df11c9db1" y="507.867141"/>
      </g>
     </g>
     <g id="text_1">
      <!-- 03/01 -->
      <defs>
       <path d="M 31.78125 66.40625 
Q 24.171875 66.40625 20.328125 58.90625 
Q 16.5 51.421875 16.5 36.375 
Q 16.5 21.390625 20.328125 13.890625 
Q 24.171875 6.390625 31.78125 6.390625 
Q 39.453125 6.390625 43.28125 13.890625 
Q 47.125 21.390625 47.125 36.375 
Q 47.125 51.421875 43.28125 58.90625 
Q 39.453125 66.40625 31.78125 66.40625 
z
M 31.78125 74.21875 
Q 44.046875 74.21875 50.515625 64.515625 
Q 56.984375 54.828125 56.984375 36.375 
Q 56.984375 17.96875 50.515625 8.265625 
Q 44.046875 -1.421875 31.78125 -1.421875 
Q 19.53125 -1.421875 13.0625 8.265625 
Q 6.59375 17.96875 6.59375 36.375 
Q 6.59375 54.828125 13.0625 64.515625 
Q 19.53125 74.21875 31.78125 74.21875 
z
" id="DejaVuSans-48"/>
       <path d="M 40.578125 39.3125 
Q 47.65625 37.796875 51.625 33 
Q 55.609375 28.21875 55.609375 21.1875 
Q 55.609375 10.40625 48.1875 4.484375 
Q 40.765625 -1.421875 27.09375 -1.421875 
Q 22.515625 -1.421875 17.65625 -0.515625 
Q 12.796875 0.390625 7.625 2.203125 
L 7.625 11.71875 
Q 11.71875 9.328125 16.59375 8.109375 
Q 21.484375 6.890625 26.8125 6.890625 
Q 36.078125 6.890625 40.9375 10.546875 
Q 45.796875 14.203125 45.796875 21.1875 
Q 45.796875 27.640625 41.28125 31.265625 
Q 36.765625 34.90625 28.71875 34.90625 
L 20.21875 34.90625 
L 20.21875 43.015625 
L 29.109375 43.015625 
Q 36.375 43.015625 40.234375 45.921875 
Q 44.09375 48.828125 44.09375 54.296875 
Q 44.09375 59.90625 40.109375 62.90625 
Q 36.140625 65.921875 28.71875 65.921875 
Q 24.65625 65.921875 20.015625 65.03125 
Q 15.375 64.15625 9.8125 62.3125 
L 9.8125 71.09375 
Q 15.4375 72.65625 20.34375 73.4375 
Q 25.25 74.21875 29.59375 74.21875 
Q 40.828125 74.21875 47.359375 69.109375 
Q 53.90625 64.015625 53.90625 55.328125 
Q 53.90625 49.265625 50.4375 45.09375 
Q 46.96875 40.921875 40.578125 39.3125 
z
" id="DejaVuSans-51"/>
       <path d="M 25.390625 72.90625 
L 33.6875 72.90625 
L 8.296875 -9.28125 
L 0 -9.28125 
z
" id="DejaVuSans-47"/>
       <path d="M 12.40625 8.296875 
L 28.515625 8.296875 
L 28.515625 63.921875 
L 10.984375 60.40625 
L 10.984375 69.390625 
L 28.421875 72.90625 
L 38.28125 72.90625 
L 38.28125 8.296875 
L 54.390625 8.296875 
L 54.390625 0 
L 12.40625 0 
z
" id="DejaVuSans-49"/>
      </defs>
      <g style="fill:#262626;" transform="translate(76.562637 525.725422)scale(0.11 -0.11)">
       <use xlink:href="#DejaVuSans-48"/>
       <use x="63.623047" xlink:href="#DejaVuSans-51"/>
       <use x="127.246094" xlink:href="#DejaVuSans-47"/>
       <use x="160.9375" xlink:href="#DejaVuSans-48"/>
       <use x="224.560547" xlink:href="#DejaVuSans-49"/>
      </g>
     </g>
    </g>
    <g id="xtick_2">
     <g id="line2d_2">
      <g>
       <use style="fill:#262626;stroke:#262626;stroke-width:1.25;" x="256.48612" xlink:href="#m1df11c9db1" y="507.867141"/>
      </g>
     </g>
     <g id="text_2">
      <!-- 04/01 -->
      <defs>
       <path d="M 37.796875 64.3125 
L 12.890625 25.390625 
L 37.796875 25.390625 
z
M 35.203125 72.90625 
L 47.609375 72.90625 
L 47.609375 25.390625 
L 58.015625 25.390625 
L 58.015625 17.1875 
L 47.609375 17.1875 
L 47.609375 0 
L 37.796875 0 
L 37.796875 17.1875 
L 4.890625 17.1875 
L 4.890625 26.703125 
z
" id="DejaVuSans-52"/>
      </defs>
      <g style="fill:#262626;" transform="translate(240.635808 525.725422)scale(0.11 -0.11)">
       <use xlink:href="#DejaVuSans-48"/>
       <use x="63.623047" xlink:href="#DejaVuSans-52"/>
       <use x="127.246094" xlink:href="#DejaVuSans-47"/>
       <use x="160.9375" xlink:href="#DejaVuSans-48"/>
       <use x="224.560547" xlink:href="#DejaVuSans-49"/>
      </g>
     </g>
    </g>
    <g id="xtick_3">
     <g id="line2d_3">
      <g>
       <use style="fill:#262626;stroke:#262626;stroke-width:1.25;" x="415.266608" xlink:href="#m1df11c9db1" y="507.867141"/>
      </g>
     </g>
     <g id="text_3">
      <!-- 05/01 -->
      <defs>
       <path d="M 10.796875 72.90625 
L 49.515625 72.90625 
L 49.515625 64.59375 
L 19.828125 64.59375 
L 19.828125 46.734375 
Q 21.96875 47.46875 24.109375 47.828125 
Q 26.265625 48.1875 28.421875 48.1875 
Q 40.625 48.1875 47.75 41.5 
Q 54.890625 34.8125 54.890625 23.390625 
Q 54.890625 11.625 47.5625 5.09375 
Q 40.234375 -1.421875 26.90625 -1.421875 
Q 22.3125 -1.421875 17.546875 -0.640625 
Q 12.796875 0.140625 7.71875 1.703125 
L 7.71875 11.625 
Q 12.109375 9.234375 16.796875 8.0625 
Q 21.484375 6.890625 26.703125 6.890625 
Q 35.15625 6.890625 40.078125 11.328125 
Q 45.015625 15.765625 45.015625 23.390625 
Q 45.015625 31 40.078125 35.4375 
Q 35.15625 39.890625 26.703125 39.890625 
Q 22.75 39.890625 18.8125 39.015625 
Q 14.890625 38.140625 10.796875 36.28125 
z
" id="DejaVuSans-53"/>
      </defs>
      <g style="fill:#262626;" transform="translate(399.416296 525.725422)scale(0.11 -0.11)">
       <use xlink:href="#DejaVuSans-48"/>
       <use x="63.623047" xlink:href="#DejaVuSans-53"/>
       <use x="127.246094" xlink:href="#DejaVuSans-47"/>
       <use x="160.9375" xlink:href="#DejaVuSans-48"/>
       <use x="224.560547" xlink:href="#DejaVuSans-49"/>
      </g>
     </g>
    </g>
    <g id="xtick_4">
     <g id="line2d_4">
      <g>
       <use style="fill:#262626;stroke:#262626;stroke-width:1.25;" x="579.339779" xlink:href="#m1df11c9db1" y="507.867141"/>
      </g>
     </g>
     <g id="text_4">
      <!-- 06/01 -->
      <defs>
       <path d="M 33.015625 40.375 
Q 26.375 40.375 22.484375 35.828125 
Q 18.609375 31.296875 18.609375 23.390625 
Q 18.609375 15.53125 22.484375 10.953125 
Q 26.375 6.390625 33.015625 6.390625 
Q 39.65625 6.390625 43.53125 10.953125 
Q 47.40625 15.53125 47.40625 23.390625 
Q 47.40625 31.296875 43.53125 35.828125 
Q 39.65625 40.375 33.015625 40.375 
z
M 52.59375 71.296875 
L 52.59375 62.3125 
Q 48.875 64.0625 45.09375 64.984375 
Q 41.3125 65.921875 37.59375 65.921875 
Q 27.828125 65.921875 22.671875 59.328125 
Q 17.53125 52.734375 16.796875 39.40625 
Q 19.671875 43.65625 24.015625 45.921875 
Q 28.375 48.1875 33.59375 48.1875 
Q 44.578125 48.1875 50.953125 41.515625 
Q 57.328125 34.859375 57.328125 23.390625 
Q 57.328125 12.15625 50.6875 5.359375 
Q 44.046875 -1.421875 33.015625 -1.421875 
Q 20.359375 -1.421875 13.671875 8.265625 
Q 6.984375 17.96875 6.984375 36.375 
Q 6.984375 53.65625 15.1875 63.9375 
Q 23.390625 74.21875 37.203125 74.21875 
Q 40.921875 74.21875 44.703125 73.484375 
Q 48.484375 72.75 52.59375 71.296875 
z
" id="DejaVuSans-54"/>
      </defs>
      <g style="fill:#262626;" transform="translate(563.489466 525.725422)scale(0.11 -0.11)">
       <use xlink:href="#DejaVuSans-48"/>
       <use x="63.623047" xlink:href="#DejaVuSans-54"/>
       <use x="127.246094" xlink:href="#DejaVuSans-47"/>
       <use x="160.9375" xlink:href="#DejaVuSans-48"/>
       <use x="224.560547" xlink:href="#DejaVuSans-49"/>
      </g>
     </g>
    </g>
    <g id="xtick_5">
     <g id="line2d_5">
      <path clip-path="url(#p8c815cd5bb)" d="M 65.949535 507.867141 
L 65.949535 11.379141 
" style="fill:none;stroke:#1a1a1a;stroke-dasharray:1.85,0.8;stroke-dashoffset:0;stroke-opacity:0.3;stroke-width:0.5;"/>
     </g>
     <g id="line2d_6"/>
    </g>
    <g id="xtick_6">
     <g id="line2d_7">
      <path clip-path="url(#p8c815cd5bb)" d="M 102.998316 507.867141 
L 102.998316 11.379141 
" style="fill:none;stroke:#1a1a1a;stroke-dasharray:1.85,0.8;stroke-dashoffset:0;stroke-opacity:0.3;stroke-width:0.5;"/>
     </g>
     <g id="line2d_8"/>
    </g>
    <g id="xtick_7">
     <g id="line2d_9">
      <path clip-path="url(#p8c815cd5bb)" d="M 140.047096 507.867141 
L 140.047096 11.379141 
" style="fill:none;stroke:#1a1a1a;stroke-dasharray:1.85,0.8;stroke-dashoffset:0;stroke-opacity:0.3;stroke-width:0.5;"/>
     </g>
     <g id="line2d_10"/>
    </g>
    <g id="xtick_8">
     <g id="line2d_11">
      <path clip-path="url(#p8c815cd5bb)" d="M 177.095877 507.867141 
L 177.095877 11.379141 
" style="fill:none;stroke:#1a1a1a;stroke-dasharray:1.85,0.8;stroke-dashoffset:0;stroke-opacity:0.3;stroke-width:0.5;"/>
     </g>
     <g id="line2d_12"/>
    </g>
    <g id="xtick_9">
     <g id="line2d_13">
      <path clip-path="url(#p8c815cd5bb)" d="M 214.144657 507.867141 
L 214.144657 11.379141 
" style="fill:none;stroke:#1a1a1a;stroke-dasharray:1.85,0.8;stroke-dashoffset:0;stroke-opacity:0.3;stroke-width:0.5;"/>
     </g>
     <g id="line2d_14"/>
    </g>
    <g id="xtick_10">
     <g id="line2d_15">
      <path clip-path="url(#p8c815cd5bb)" d="M 251.193437 507.867141 
L 251.193437 11.379141 
" style="fill:none;stroke:#1a1a1a;stroke-dasharray:1.85,0.8;stroke-dashoffset:0;stroke-opacity:0.3;stroke-width:0.5;"/>
     </g>
     <g id="line2d_16"/>
    </g>
    <g id="xtick_11">
     <g id="line2d_17">
      <path clip-path="url(#p8c815cd5bb)" d="M 288.242218 507.867141 
L 288.242218 11.379141 
" style="fill:none;stroke:#1a1a1a;stroke-dasharray:1.85,0.8;stroke-dashoffset:0;stroke-opacity:0.3;stroke-width:0.5;"/>
     </g>
     <g id="line2d_18"/>
    </g>
    <g id="xtick_12">
     <g id="line2d_19">
      <path clip-path="url(#p8c815cd5bb)" d="M 325.290998 507.867141 
L 325.290998 11.379141 
" style="fill:none;stroke:#1a1a1a;stroke-dasharray:1.85,0.8;stroke-dashoffset:0;stroke-opacity:0.3;stroke-width:0.5;"/>
     </g>
     <g id="line2d_20"/>
    </g>
    <g id="xtick_13">
     <g id="line2d_21">
      <path clip-path="url(#p8c815cd5bb)" d="M 362.339779 507.867141 
L 362.339779 11.379141 
" style="fill:none;stroke:#1a1a1a;stroke-dasharray:1.85,0.8;stroke-dashoffset:0;stroke-opacity:0.3;stroke-width:0.5;"/>
     </g>
     <g id="line2d_22"/>
    </g>
    <g id="xtick_14">
     <g id="line2d_23">
      <path clip-path="url(#p8c815cd5bb)" d="M 399.388559 507.867141 
L 399.388559 11.379141 
" style="fill:none;stroke:#1a1a1a;stroke-dasharray:1.85,0.8;stroke-dashoffset:0;stroke-opacity:0.3;stroke-width:0.5;"/>
     </g>
     <g id="line2d_24"/>
    </g>
    <g id="xtick_15">
     <g id="line2d_25">
      <path clip-path="url(#p8c815cd5bb)" d="M 436.43734 507.867141 
L 436.43734 11.379141 
" style="fill:none;stroke:#1a1a1a;stroke-dasharray:1.85,0.8;stroke-dashoffset:0;stroke-opacity:0.3;stroke-width:0.5;"/>
     </g>
     <g id="line2d_26"/>
    </g>
    <g id="xtick_16">
     <g id="line2d_27">
      <path clip-path="url(#p8c815cd5bb)" d="M 473.48612 507.867141 
L 473.48612 11.379141 
" style="fill:none;stroke:#1a1a1a;stroke-dasharray:1.85,0.8;stroke-dashoffset:0;stroke-opacity:0.3;stroke-width:0.5;"/>
     </g>
     <g id="line2d_28"/>
    </g>
    <g id="xtick_17">
     <g id="line2d_29">
      <path clip-path="url(#p8c815cd5bb)" d="M 510.534901 507.867141 
L 510.534901 11.379141 
" style="fill:none;stroke:#1a1a1a;stroke-dasharray:1.85,0.8;stroke-dashoffset:0;stroke-opacity:0.3;stroke-width:0.5;"/>
     </g>
     <g id="line2d_30"/>
    </g>
    <g id="xtick_18">
     <g id="line2d_31">
      <path clip-path="url(#p8c815cd5bb)" d="M 547.583681 507.867141 
L 547.583681 11.379141 
" style="fill:none;stroke:#1a1a1a;stroke-dasharray:1.85,0.8;stroke-dashoffset:0;stroke-opacity:0.3;stroke-width:0.5;"/>
     </g>
     <g id="line2d_32"/>
    </g>
    <g id="xtick_19">
     <g id="line2d_33">
      <path clip-path="url(#p8c815cd5bb)" d="M 584.632462 507.867141 
L 584.632462 11.379141 
" style="fill:none;stroke:#1a1a1a;stroke-dasharray:1.85,0.8;stroke-dashoffset:0;stroke-opacity:0.3;stroke-width:0.5;"/>
     </g>
     <g id="line2d_34"/>
    </g>
    <g id="xtick_20">
     <g id="line2d_35">
      <path clip-path="url(#p8c815cd5bb)" d="M 621.681242 507.867141 
L 621.681242 11.379141 
" style="fill:none;stroke:#1a1a1a;stroke-dasharray:1.85,0.8;stroke-dashoffset:0;stroke-opacity:0.3;stroke-width:0.5;"/>
     </g>
     <g id="line2d_36"/>
    </g>
    <g id="xtick_21">
     <g id="line2d_37">
      <path clip-path="url(#p8c815cd5bb)" d="M 658.730023 507.867141 
L 658.730023 11.379141 
" style="fill:none;stroke:#1a1a1a;stroke-dasharray:1.85,0.8;stroke-dashoffset:0;stroke-opacity:0.3;stroke-width:0.5;"/>
     </g>
     <g id="line2d_38"/>
    </g>
   </g>
   <g id="matplotlib.axis_2">
    <g id="ytick_1">
     <g id="line2d_39">
      <defs>
       <path d="M 0 0 
L -6 0 
" id="m721936a3bf" style="stroke:#262626;stroke-width:1.25;"/>
      </defs>
      <g>
       <use style="fill:#262626;stroke:#262626;stroke-width:1.25;" x="34.193437" xlink:href="#m721936a3bf" y="507.867141"/>
      </g>
     </g>
     <g id="text_5">
      <!-- 0.1 -->
      <defs>
       <path d="M 10.6875 12.40625 
L 21 12.40625 
L 21 0 
L 10.6875 0 
z
" id="DejaVuSans-46"/>
      </defs>
      <g style="fill:#262626;" transform="translate(7.2 512.046281)scale(0.11 -0.11)">
       <use xlink:href="#DejaVuSans-48"/>
       <use x="63.623047" xlink:href="#DejaVuSans-46"/>
       <use x="95.410156" xlink:href="#DejaVuSans-49"/>
      </g>
     </g>
    </g>
    <g id="ytick_2">
     <g id="line2d_40">
      <g>
       <use style="fill:#262626;stroke:#262626;stroke-width:1.25;" x="34.193437" xlink:href="#m721936a3bf" y="425.119141"/>
      </g>
     </g>
     <g id="text_6">
      <!-- 0.2 -->
      <defs>
       <path d="M 19.1875 8.296875 
L 53.609375 8.296875 
L 53.609375 0 
L 7.328125 0 
L 7.328125 8.296875 
Q 12.9375 14.109375 22.625 23.890625 
Q 32.328125 33.6875 34.8125 36.53125 
Q 39.546875 41.84375 41.421875 45.53125 
Q 43.3125 49.21875 43.3125 52.78125 
Q 43.3125 58.59375 39.234375 62.25 
Q 35.15625 65.921875 28.609375 65.921875 
Q 23.96875 65.921875 18.8125 64.3125 
Q 13.671875 62.703125 7.8125 59.421875 
L 7.8125 69.390625 
Q 13.765625 71.78125 18.9375 73 
Q 24.125 74.21875 28.421875 74.21875 
Q 39.75 74.21875 46.484375 68.546875 
Q 53.21875 62.890625 53.21875 53.421875 
Q 53.21875 48.921875 51.53125 44.890625 
Q 49.859375 40.875 45.40625 35.40625 
Q 44.1875 33.984375 37.640625 27.21875 
Q 31.109375 20.453125 19.1875 8.296875 
z
" id="DejaVuSans-50"/>
      </defs>
      <g style="fill:#262626;" transform="translate(7.2 429.298281)scale(0.11 -0.11)">
       <use xlink:href="#DejaVuSans-48"/>
       <use x="63.623047" xlink:href="#DejaVuSans-46"/>
       <use x="95.410156" xlink:href="#DejaVuSans-50"/>
      </g>
     </g>
    </g>
    <g id="ytick_3">
     <g id="line2d_41">
      <g>
       <use style="fill:#262626;stroke:#262626;stroke-width:1.25;" x="34.193437" xlink:href="#m721936a3bf" y="342.371141"/>
      </g>
     </g>
     <g id="text_7">
      <!-- 0.3 -->
      <g style="fill:#262626;" transform="translate(7.2 346.550281)scale(0.11 -0.11)">
       <use xlink:href="#DejaVuSans-48"/>
       <use x="63.623047" xlink:href="#DejaVuSans-46"/>
       <use x="95.410156" xlink:href="#DejaVuSans-51"/>
      </g>
     </g>
    </g>
    <g id="ytick_4">
     <g id="line2d_42">
      <g>
       <use style="fill:#262626;stroke:#262626;stroke-width:1.25;" x="34.193437" xlink:href="#m721936a3bf" y="259.623141"/>
      </g>
     </g>
     <g id="text_8">
      <!-- 0.4 -->
      <g style="fill:#262626;" transform="translate(7.2 263.802281)scale(0.11 -0.11)">
       <use xlink:href="#DejaVuSans-48"/>
       <use x="63.623047" xlink:href="#DejaVuSans-46"/>
       <use x="95.410156" xlink:href="#DejaVuSans-52"/>
      </g>
     </g>
    </g>
    <g id="ytick_5">
     <g id="line2d_43">
      <g>
       <use style="fill:#262626;stroke:#262626;stroke-width:1.25;" x="34.193437" xlink:href="#m721936a3bf" y="176.875141"/>
      </g>
     </g>
     <g id="text_9">
      <!-- 0.5 -->
      <g style="fill:#262626;" transform="translate(7.2 181.054281)scale(0.11 -0.11)">
       <use xlink:href="#DejaVuSans-48"/>
       <use x="63.623047" xlink:href="#DejaVuSans-46"/>
       <use x="95.410156" xlink:href="#DejaVuSans-53"/>
      </g>
     </g>
    </g>
    <g id="ytick_6">
     <g id="line2d_44">
      <g>
       <use style="fill:#262626;stroke:#262626;stroke-width:1.25;" x="34.193437" xlink:href="#m721936a3bf" y="94.127141"/>
      </g>
     </g>
     <g id="text_10">
      <!-- 0.6 -->
      <g style="fill:#262626;" transform="translate(7.2 98.306281)scale(0.11 -0.11)">
       <use xlink:href="#DejaVuSans-48"/>
       <use x="63.623047" xlink:href="#DejaVuSans-46"/>
       <use x="95.410156" xlink:href="#DejaVuSans-54"/>
      </g>
     </g>
    </g>
    <g id="ytick_7">
     <g id="line2d_45">
      <g>
       <use style="fill:#262626;stroke:#262626;stroke-width:1.25;" x="34.193437" xlink:href="#m721936a3bf" y="11.379141"/>
      </g>
     </g>
     <g id="text_11">
      <!-- 0.7 -->
      <defs>
       <path d="M 8.203125 72.90625 
L 55.078125 72.90625 
L 55.078125 68.703125 
L 28.609375 0 
L 18.3125 0 
L 43.21875 64.59375 
L 8.203125 64.59375 
z
" id="DejaVuSans-55"/>
      </defs>
      <g style="fill:#262626;" transform="translate(7.2 15.558281)scale(0.11 -0.11)">
       <use xlink:href="#DejaVuSans-48"/>
       <use x="63.623047" xlink:href="#DejaVuSans-46"/>
       <use x="95.410156" xlink:href="#DejaVuSans-55"/>
      </g>
     </g>
    </g>
   </g>
   <g id="line2d_46">
    <path clip-path="url(#p8c815cd5bb)" d="M 55.364169 342.167232 
L 60.656852 410.024594 
L 65.949535 326.928204 
L 71.242218 431.42199 
L 76.534901 423.992588 
L 81.827584 423.520679 
L 87.120267 389.253493 
L 92.41295 334.436717 
L 97.705633 383.627556 
L 102.998316 423.327455 
L 108.290998 423.677859 
L 113.583681 421.745664 
L 118.876364 421.095617 
L 124.169047 399.560445 
L 129.46173 370.826112 
L 134.754413 424.755652 
L 140.047096 423.491458 
L 145.339779 425.211724 
L 150.632462 403.79089 
L 155.925145 405.612828 
L 161.217828 352.61044 
L 166.510511 334.89544 
L 171.803194 386.117713 
L 177.095877 353.700646 
L 182.388559 367.955621 
L 187.681242 375.98423 
L 192.973925 353.109148 
L 198.266608 293.84101 
L 203.559291 300.41954 
L 208.851974 339.55597 
L 214.144657 323.574746 
L 219.43734 339.775711 
L 224.730023 310.90163 
L 230.022706 310.901213 
L 235.315389 290.604711 
L 240.608072 262.953952 
L 245.900755 304.744271 
L 251.193437 307.173675 
L 256.48612 290.840303 
L 261.778803 295.484362 
L 267.071486 306.562271 
L 272.364169 270.712851 
L 277.656852 246.450006 
L 282.949535 302.204209 
L 288.242218 299.610849 
L 293.534901 318.736352 
L 298.827584 329.605207 
L 304.120267 331.454306 
L 309.41295 299.528732 
L 314.705633 260.413623 
L 319.998316 312.771576 
L 325.290998 324.676741 
L 330.583681 322.651362 
L 335.876364 332.485032 
L 341.169047 356.079956 
L 346.46173 312.500643 
L 351.754413 297.580831 
L 357.047096 317.666599 
L 362.339779 331.437368 
L 367.632462 324.228217 
L 372.925145 339.438517 
L 378.217828 351.809699 
L 383.510511 315.44942 
L 388.803194 304.916353 
L 394.095877 335.763728 
L 399.388559 341.07184 
L 404.681242 351.26595 
L 409.973925 347.703727 
L 415.266608 337.25677 
L 420.559291 295.078142 
L 425.851974 266.610798 
L 431.144657 322.752322 
L 436.43734 340.051727 
L 441.730023 328.325256 
L 447.022706 342.698667 
L 452.315389 361.41773 
L 457.608072 351.302262 
L 462.900755 323.723908 
L 468.193437 324.570682 
L 473.48612 336.478796 
L 478.778803 338.507391 
L 484.071486 346.426173 
L 489.364169 363.554752 
L 494.656852 328.91281 
L 499.949535 298.711068 
L 505.242218 336.012387 
L 510.534901 335.88891 
L 515.827584 343.593878 
L 521.120267 350.795059 
L 526.41295 362.947736 
L 531.705633 352.299897 
L 536.998316 330.383671 
L 542.290998 308.215406 
L 547.583681 365.845702 
L 552.876364 360.655647 
L 558.169047 368.472651 
L 563.46173 367.125859 
L 568.754413 340.254523 
L 574.047096 309.857387 
L 579.339779 357.745567 
L 584.632462 354.995444 
L 589.925145 359.300883 
L 595.217828 386.939492 
L 600.510511 379.697887 
L 605.803194 351.698813 
L 611.095877 323.093423 
L 616.388559 369.235184 
L 621.681242 350.890515 
L 626.973925 359.41235 
L 632.266608 347.579007 
L 637.559291 347.323615 
L 642.851974 329.052319 
L 648.144657 315.01592 
L 653.43734 337.532094 
L 658.730023 344.345222 
L 664.022706 369.881671 
L 669.315389 369.058499 
" style="fill:none;stroke:#0173b2;stroke-linecap:round;stroke-width:1.5;"/>
   </g>
   <g id="line2d_47">
    <path clip-path="url(#p8c815cd5bb)" d="M 55.364169 321.601314 
L 60.656852 397.185623 
L 65.949535 315.334177 
L 71.242218 420.926299 
L 76.534901 417.476594 
L 81.827584 414.988831 
L 87.120267 370.959122 
L 92.41295 316.263238 
L 97.705633 373.981359 
L 102.998316 397.732528 
L 108.290998 393.784849 
L 113.583681 390.176272 
L 118.876364 390.397089 
L 124.169047 361.933766 
L 129.46173 323.733787 
L 134.754413 393.962545 
L 140.047096 391.947745 
L 145.339779 389.864188 
L 150.632462 368.982954 
L 155.925145 372.304673 
L 161.217828 308.658655 
L 166.510511 284.299382 
L 171.803194 340.231063 
L 177.095877 307.125359 
L 182.388559 315.270048 
L 187.681242 319.285811 
L 192.973925 294.876023 
L 198.266608 230.470663 
L 203.559291 233.325933 
L 208.851974 277.23951 
L 214.144657 260.981205 
L 219.43734 274.395913 
L 224.730023 242.46717 
L 230.022706 239.246709 
L 235.315389 216.744796 
L 240.608072 191.532028 
L 245.900755 234.286175 
L 251.193437 240.966229 
L 256.48612 231.395589 
L 261.778803 234.795035 
L 267.071486 244.04962 
L 272.364169 214.231826 
L 277.656852 184.871154 
L 282.949535 240.904768 
L 288.242218 238.801425 
L 293.534901 253.848681 
L 298.827584 268.307934 
L 304.120267 275.199859 
L 309.41295 240.404627 
L 314.705633 198.799347 
L 319.998316 246.897286 
L 325.290998 263.422637 
L 330.583681 267.129336 
L 335.876364 270.799121 
L 341.169047 293.809131 
L 346.46173 242.965314 
L 351.754413 226.401207 
L 357.047096 256.20577 
L 362.339779 265.59472 
L 367.632462 254.810588 
L 372.925145 273.182925 
L 378.217828 289.839148 
L 383.510511 250.744628 
L 388.803194 242.07808 
L 394.095877 273.592839 
L 399.388559 276.061749 
L 404.681242 288.123067 
L 409.973925 286.693222 
L 415.266608 291.262691 
L 420.559291 242.856821 
L 425.851974 215.903145 
L 431.144657 273.804429 
L 436.43734 291.982374 
L 441.730023 276.414112 
L 447.022706 291.784208 
L 452.315389 311.352469 
L 457.608072 306.718478 
L 462.900755 281.96777 
L 468.193437 271.517347 
L 473.48612 280.731558 
L 478.778803 286.574107 
L 484.071486 292.517727 
L 489.364169 315.643377 
L 494.656852 277.086468 
L 499.949535 248.893384 
L 505.242218 290.786787 
L 510.534901 285.174645 
L 515.827584 294.958804 
L 521.120267 300.082895 
L 526.41295 321.134713 
L 531.705633 306.622178 
L 536.998316 284.643226 
L 542.290998 256.456367 
L 547.583681 315.790505 
L 552.876364 318.149928 
L 558.169047 328.456727 
L 563.46173 330.957276 
L 568.754413 295.098918 
L 574.047096 271.062331 
L 579.339779 315.810299 
L 584.632462 305.436521 
L 589.925145 322.177109 
L 595.217828 347.427083 
L 600.510511 343.255281 
L 605.803194 309.733015 
L 611.095877 285.812877 
L 616.388559 324.612117 
L 621.681242 313.184232 
L 626.973925 326.730231 
L 632.266608 320.272506 
L 637.559291 317.335975 
L 642.851974 300.2796 
L 648.144657 283.399252 
L 653.43734 300.777027 
L 658.730023 311.756922 
L 664.022706 337.356387 
L 669.315389 342.369597 
" style="fill:none;stroke:#de8f05;stroke-linecap:round;stroke-width:1.5;"/>
   </g>
   <g id="line2d_48">
    <path clip-path="url(#p8c815cd5bb)" d="M 55.364169 319.202384 
L 60.656852 394.635803 
L 65.949535 311.179728 
L 71.242218 418.162452 
L 76.534901 413.676335 
L 81.827584 409.193982 
L 87.120267 360.68019 
L 92.41295 305.133259 
L 97.705633 363.574995 
L 102.998316 387.418783 
L 108.290998 383.019618 
L 113.583681 380.76181 
L 118.876364 377.33192 
L 124.169047 347.498378 
L 129.46173 309.155845 
L 134.754413 377.751585 
L 140.047096 376.519244 
L 145.339779 375.332243 
L 150.632462 350.830439 
L 155.925145 351.089859 
L 161.217828 296.671862 
L 166.510511 268.508277 
L 171.803194 308.977087 
L 177.095877 278.724259 
L 182.388559 286.546998 
L 187.681242 282.116404 
L 192.973925 265.17665 
L 198.266608 197.316472 
L 203.559291 206.789241 
L 208.851974 245.240384 
L 214.144657 226.408231 
L 219.43734 240.225776 
L 224.730023 199.320214 
L 230.022706 198.459613 
L 235.315389 182.048367 
L 240.608072 162.724658 
L 245.900755 196.197362 
L 251.193437 204.550937 
L 256.48612 192.856305 
L 261.778803 192.978548 
L 267.071486 207.389386 
L 272.364169 180.961519 
L 277.656852 154.308556 
L 282.949535 203.240724 
L 288.242218 196.427225 
L 293.534901 215.827438 
L 298.827584 228.929664 
L 304.120267 235.950594 
L 309.41295 201.594083 
L 314.705633 166.600915 
L 319.998316 213.468084 
L 325.290998 222.04708 
L 330.583681 222.000728 
L 335.876364 228.003237 
L 341.169047 248.61402 
L 346.46173 203.108678 
L 351.754413 190.844433 
L 357.047096 214.189651 
L 362.339779 219.362746 
L 367.632462 210.26095 
L 372.925145 224.740435 
L 378.217828 246.277925 
L 383.510511 212.800917 
L 388.803194 204.715346 
L 394.095877 230.323122 
L 399.388559 231.638833 
L 404.681242 241.10084 
L 409.973925 240.401755 
L 415.266608 250.008668 
L 420.559291 201.95988 
L 425.851974 177.86642 
L 431.144657 232.664329 
L 436.43734 248.132531 
L 441.730023 231.387662 
L 447.022706 248.946886 
L 452.315389 276.019428 
L 457.608072 273.953338 
L 462.900755 246.354482 
L 468.193437 230.796432 
L 473.48612 238.64266 
L 478.778803 244.67471 
L 484.071486 254.098402 
L 489.364169 281.114457 
L 494.656852 237.193331 
L 499.949535 215.942003 
L 505.242218 250.454208 
L 510.534901 247.104582 
L 515.827584 251.942669 
L 521.120267 257.221904 
L 526.41295 283.659015 
L 531.705633 273.250018 
L 536.998316 251.052909 
L 542.290998 215.394347 
L 547.583681 273.894869 
L 552.876364 278.293497 
L 558.169047 288.354558 
L 563.46173 296.769011 
L 568.754413 258.601456 
L 574.047096 234.850327 
L 579.339779 273.041115 
L 584.632462 265.035279 
L 589.925145 282.734336 
L 595.217828 304.965396 
L 600.510511 307.146619 
L 605.803194 279.94108 
L 611.095877 255.723964 
L 616.388559 290.326319 
L 621.681242 274.773148 
L 626.973925 289.714595 
L 632.266608 280.826254 
L 637.559291 286.985101 
L 642.851974 271.528033 
L 648.144657 256.600886 
L 653.43734 269.234331 
L 658.730023 277.409422 
L 664.022706 307.924115 
L 669.315389 316.662588 
" style="fill:none;stroke:#029e73;stroke-linecap:round;stroke-width:1.5;"/>
   </g>
   <g id="line2d_49">
    <path clip-path="url(#p8c815cd5bb)" d="M 55.364169 325.319034 
L 60.656852 402.655797 
L 65.949535 307.971361 
L 71.242218 420.167353 
L 76.534901 415.907353 
L 81.827584 411.995617 
L 87.120267 367.512837 
L 92.41295 305.252696 
L 97.705633 362.669505 
L 102.998316 378.08597 
L 108.290998 377.354343 
L 113.583681 358.538326 
L 118.876364 354.216651 
L 124.169047 330.00764 
L 129.46173 287.731626 
L 134.754413 345.74002 
L 140.047096 345.15332 
L 145.339779 347.427238 
L 150.632462 316.31475 
L 155.925145 307.425357 
L 161.217828 281.643001 
L 166.510511 250.899917 
L 171.803194 264.193429 
L 177.095877 229.761089 
L 182.388559 239.3338 
L 187.681242 238.110532 
L 192.973925 218.28611 
L 198.266608 161.14084 
L 203.559291 182.216358 
L 208.851974 198.271674 
L 214.144657 181.436379 
L 219.43734 186.757638 
L 224.730023 146.713955 
L 230.022706 150.603526 
L 235.315389 148.333444 
L 240.608072 143.440303 
L 245.900755 146.512721 
L 251.193437 149.328881 
L 256.48612 134.884235 
L 261.778803 138.118606 
L 267.071486 149.023457 
L 272.364169 142.825127 
L 277.656852 121.360376 
L 282.949535 144.560796 
L 288.242218 138.461415 
L 293.534901 156.568427 
L 298.827584 176.828064 
L 304.120267 182.386782 
L 309.41295 164.990444 
L 314.705633 130.730051 
L 319.998316 149.424842 
L 325.290998 163.017825 
L 330.583681 159.516831 
L 335.876364 167.123472 
L 341.169047 187.061109 
L 346.46173 156.803028 
L 351.754413 152.411921 
L 357.047096 156.801603 
L 362.339779 155.41696 
L 367.632462 145.210277 
L 372.925145 161.047655 
L 378.217828 181.497711 
L 383.510511 166.873961 
L 388.803194 162.674135 
L 394.095877 167.261425 
L 399.388559 161.091036 
L 404.681242 181.610932 
L 409.973925 174.646826 
L 415.266608 186.121253 
L 420.559291 145.390446 
L 425.851974 135.827876 
L 431.144657 163.511663 
L 436.43734 181.24395 
L 441.730023 160.88783 
L 447.022706 178.903082 
L 452.315389 211.484964 
L 457.608072 226.349312 
L 462.900755 202.283186 
L 468.193437 159.238424 
L 473.48612 165.856122 
L 478.778803 181.233434 
L 484.071486 181.266917 
L 489.364169 216.356998 
L 494.656852 182.668006 
L 499.949535 174.352964 
L 505.242218 184.271936 
L 510.534901 181.272229 
L 515.827584 181.817138 
L 521.120267 185.795918 
L 526.41295 217.97599 
L 531.705633 223.124929 
L 536.998316 211.138224 
L 542.290998 166.674726 
L 547.583681 206.810468 
L 552.876364 210.127823 
L 558.169047 225.346823 
L 563.46173 236.176907 
L 568.754413 196.351288 
L 574.047096 185.657735 
L 579.339779 208.29691 
L 584.632462 199.135068 
L 589.925145 217.020933 
L 595.217828 247.360874 
L 600.510511 252.536813 
L 605.803194 235.485714 
L 611.095877 219.879876 
L 616.388559 230.523203 
L 621.681242 212.385465 
L 626.973925 236.040386 
L 632.266608 225.243413 
L 637.559291 236.692781 
L 642.851974 234.380708 
L 648.144657 226.698258 
L 653.43734 210.902393 
L 658.730023 226.964204 
L 664.022706 254.326981 
L 669.315389 265.569993 
" style="fill:none;stroke:#d55e00;stroke-linecap:round;stroke-width:1.5;"/>
   </g>
   <g id="line2d_50">
    <path clip-path="url(#p8c815cd5bb)" d="M 55.364169 327.527895 
L 60.656852 375.382951 
L 65.949535 325.779144 
L 71.242218 388.388955 
L 76.534901 386.836248 
L 81.827584 383.830502 
L 87.120267 358.689884 
L 92.41295 289.797961 
L 97.705633 323.505347 
L 102.998316 408.975377 
L 108.290998 401.138309 
L 113.583681 401.375551 
L 118.876364 400.736741 
L 124.169047 388.445727 
L 129.46173 365.427555 
L 134.754413 399.022129 
L 140.047096 391.297677 
L 145.339779 391.728402 
L 150.632462 377.619261 
L 155.925145 376.305597 
L 161.217828 348.245929 
L 166.510511 341.161234 
L 171.803194 356.571053 
L 177.095877 326.289949 
L 182.388559 337.530199 
L 187.681242 346.378579 
L 192.973925 334.182838 
L 198.266608 301.384276 
L 203.559291 304.360129 
L 208.851974 325.593748 
L 214.144657 314.689172 
L 219.43734 327.866713 
L 224.730023 299.187455 
L 230.022706 295.957145 
L 235.315389 284.557343 
L 240.608072 275.915798 
L 245.900755 292.2389 
L 251.193437 298.132224 
L 256.48612 228.567796 
L 261.778803 240.288849 
L 267.071486 250.037553 
L 272.364169 233.422281 
L 277.656852 224.315999 
L 282.949535 244.538743 
L 288.242218 243.61345 
L 293.534901 255.097998 
L 298.827584 270.950711 
L 304.120267 276.418485 
L 309.41295 249.811555 
L 314.705633 223.446151 
L 319.998316 254.679619 
L 325.290998 263.009753 
L 330.583681 261.978878 
L 335.876364 272.921041 
L 341.169047 289.228238 
L 346.46173 260.79084 
L 351.754413 247.226623 
L 357.047096 261.864538 
L 362.339779 267.926567 
L 367.632462 261.708832 
L 372.925145 273.768784 
L 378.217828 285.814966 
L 383.510511 268.280951 
L 388.803194 258.545524 
L 394.095877 276.637022 
L 399.388559 274.862928 
L 404.681242 287.365829 
L 409.973925 283.930092 
L 415.266608 237.457776 
L 420.559291 202.630854 
L 425.851974 186.855591 
L 431.144657 224.337472 
L 436.43734 234.667857 
L 441.730023 224.381003 
L 447.022706 243.44547 
L 452.315389 260.105976 
L 457.608072 259.008295 
L 462.900755 246.735361 
L 468.193437 228.464465 
L 473.48612 241.709623 
L 478.778803 243.800833 
L 484.071486 246.790835 
L 489.364169 267.099332 
L 494.656852 244.141695 
L 499.949535 217.797292 
L 505.242218 239.431245 
L 510.534901 235.445126 
L 515.827584 238.590105 
L 521.120267 239.773663 
L 526.41295 258.247653 
L 531.705633 254.50393 
L 536.998316 244.015182 
L 542.290998 215.974461 
L 547.583681 260.492329 
L 552.876364 262.30918 
L 558.169047 271.587779 
L 563.46173 275.883321 
L 568.754413 250.83052 
L 574.047096 220.764254 
L 579.339779 251.988986 
L 584.632462 243.481257 
L 589.925145 259.520383 
L 595.217828 274.753022 
L 600.510511 272.452599 
L 605.803194 255.537178 
L 611.095877 231.707849 
L 616.388559 249.633749 
L 621.681242 238.16726 
L 626.973925 253.98736 
L 632.266608 241.632109 
L 637.559291 242.273889 
L 642.851974 235.224426 
L 648.144657 231.839025 
L 653.43734 227.778905 
L 658.730023 247.316791 
L 664.022706 270.258331 
L 669.315389 267.514032 
" style="fill:none;stroke:#cc78bc;stroke-linecap:round;stroke-width:1.5;"/>
   </g>
   <g id="patch_3">
    <path d="M 34.193437 507.867141 
L 34.193437 11.379141 
" style="fill:none;stroke:#cccccc;stroke-linecap:square;stroke-linejoin:miter;stroke-width:1.25;"/>
   </g>
   <g id="patch_4">
    <path d="M 34.193437 507.867141 
L 685.193437 507.867141 
" style="fill:none;stroke:#cccccc;stroke-linecap:square;stroke-linejoin:miter;stroke-width:1.25;"/>
   </g>
  </g>
 </g>
 <defs>
  <clipPath id="p8c815cd5bb">
   <rect height="496.488" width="651" x="34.193437" y="11.379141"/>
  </clipPath>
 </defs>
</svg>
