<?xml version="1.0" encoding="utf-8" standalone="no"?>
<!DOCTYPE svg PUBLIC "-//W3C//DTD SVG 1.1//EN"
  "http://www.w3.org/Graphics/SVG/1.1/DTD/svg11.dtd">
<!-- Created with matplotlib (https://matplotlib.org/) -->
<svg height="237.320278pt" version="1.1" viewBox="0 0 301.793438 237.320278" width="301.793438pt" xmlns="http://www.w3.org/2000/svg" xmlns:xlink="http://www.w3.org/1999/xlink">
 <defs>
  <style type="text/css">
*{stroke-linecap:butt;stroke-linejoin:round;}
  </style>
 </defs>
 <g id="figure_1">
  <g id="patch_1">
   <path d="M 0 237.320278 
L 301.793438 237.320278 
L 301.793438 0 
L 0 0 
z
" style="fill:#ffffff;"/>
  </g>
  <g id="axes_1">
   <g id="patch_2">
    <path d="M 34.193438 209.974341 
L 294.593438 209.974341 
L 294.593438 11.379141 
L 34.193438 11.379141 
z
" style="fill:#ffffff;"/>
   </g>
   <g id="matplotlib.axis_1">
    <g id="xtick_1">
     <g id="line2d_1">
      <defs>
       <path d="M 0 0 
L 0 6 
" id="me2e6c69b1c" style="stroke:#262626;stroke-width:1.25;"/>
      </defs>
      <g>
       <use style="fill:#262626;stroke:#262626;stroke-width:1.25;" x="57.481242" xlink:href="#me2e6c69b1c" y="209.974341"/>
      </g>
     </g>
     <g id="text_1">
      <!-- 03/01 -->
      <defs>
       <path d="M 31.78125 66.40625 
Q 24.171875 66.40625 20.328125 58.90625 
Q 16.5 51.421875 16.5 36.375 
Q 16.5 21.390625 20.328125 13.890625 
Q 24.171875 6.390625 31.78125 6.390625 
Q 39.453125 6.390625 43.28125 13.890625 
Q 47.125 21.390625 47.125 36.375 
Q 47.125 51.421875 43.28125 58.90625 
Q 39.453125 66.40625 31.78125 66.40625 
z
M 31.78125 74.21875 
Q 44.046875 74.21875 50.515625 64.515625 
Q 56.984375 54.828125 56.984375 36.375 
Q 56.984375 17.96875 50.515625 8.265625 
Q 44.046875 -1.421875 31.78125 -1.421875 
Q 19.53125 -1.421875 13.0625 8.265625 
Q 6.59375 17.96875 6.59375 36.375 
Q 6.59375 54.828125 13.0625 64.515625 
Q 19.53125 74.21875 31.78125 74.21875 
z
" id="DejaVuSans-48"/>
       <path d="M 40.578125 39.3125 
Q 47.65625 37.796875 51.625 33 
Q 55.609375 28.21875 55.609375 21.1875 
Q 55.609375 10.40625 48.1875 4.484375 
Q 40.765625 -1.421875 27.09375 -1.421875 
Q 22.515625 -1.421875 17.65625 -0.515625 
Q 12.796875 0.390625 7.625 2.203125 
L 7.625 11.71875 
Q 11.71875 9.328125 16.59375 8.109375 
Q 21.484375 6.890625 26.8125 6.890625 
Q 36.078125 6.890625 40.9375 10.546875 
Q 45.796875 14.203125 45.796875 21.1875 
Q 45.796875 27.640625 41.28125 31.265625 
Q 36.765625 34.90625 28.71875 34.90625 
L 20.21875 34.90625 
L 20.21875 43.015625 
L 29.109375 43.015625 
Q 36.375 43.015625 40.234375 45.921875 
Q 44.09375 48.828125 44.09375 54.296875 
Q 44.09375 59.90625 40.109375 62.90625 
Q 36.140625 65.921875 28.71875 65.921875 
Q 24.65625 65.921875 20.015625 65.03125 
Q 15.375 64.15625 9.8125 62.3125 
L 9.8125 71.09375 
Q 15.4375 72.65625 20.34375 73.4375 
Q 25.25 74.21875 29.59375 74.21875 
Q 40.828125 74.21875 47.359375 69.109375 
Q 53.90625 64.015625 53.90625 55.328125 
Q 53.90625 49.265625 50.4375 45.09375 
Q 46.96875 40.921875 40.578125 39.3125 
z
" id="DejaVuSans-51"/>
       <path d="M 25.390625 72.90625 
L 33.6875 72.90625 
L 8.296875 -9.28125 
L 0 -9.28125 
z
" id="DejaVuSans-47"/>
       <path d="M 12.40625 8.296875 
L 28.515625 8.296875 
L 28.515625 63.921875 
L 10.984375 60.40625 
L 10.984375 69.390625 
L 28.421875 72.90625 
L 38.28125 72.90625 
L 38.28125 8.296875 
L 54.390625 8.296875 
L 54.390625 0 
L 12.40625 0 
z
" id="DejaVuSans-49"/>
      </defs>
      <g style="fill:#262626;" transform="translate(41.63093 227.832622)scale(0.11 -0.11)">
       <use xlink:href="#DejaVuSans-48"/>
       <use x="63.623047" xlink:href="#DejaVuSans-51"/>
       <use x="127.246094" xlink:href="#DejaVuSans-47"/>
       <use x="160.9375" xlink:href="#DejaVuSans-48"/>
       <use x="224.560547" xlink:href="#DejaVuSans-49"/>
      </g>
     </g>
    </g>
    <g id="xtick_2">
     <g id="line2d_2">
      <g>
       <use style="fill:#262626;stroke:#262626;stroke-width:1.25;" x="123.110511" xlink:href="#me2e6c69b1c" y="209.974341"/>
      </g>
     </g>
     <g id="text_2">
      <!-- 04/01 -->
      <defs>
       <path d="M 37.796875 64.3125 
L 12.890625 25.390625 
L 37.796875 25.390625 
z
M 35.203125 72.90625 
L 47.609375 72.90625 
L 47.609375 25.390625 
L 58.015625 25.390625 
L 58.015625 17.1875 
L 47.609375 17.1875 
L 47.609375 0 
L 37.796875 0 
L 37.796875 17.1875 
L 4.890625 17.1875 
L 4.890625 26.703125 
z
" id="DejaVuSans-52"/>
      </defs>
      <g style="fill:#262626;" transform="translate(107.260198 227.832622)scale(0.11 -0.11)">
       <use xlink:href="#DejaVuSans-48"/>
       <use x="63.623047" xlink:href="#DejaVuSans-52"/>
       <use x="127.246094" xlink:href="#DejaVuSans-47"/>
       <use x="160.9375" xlink:href="#DejaVuSans-48"/>
       <use x="224.560547" xlink:href="#DejaVuSans-49"/>
      </g>
     </g>
    </g>
    <g id="xtick_3">
     <g id="line2d_3">
      <g>
       <use style="fill:#262626;stroke:#262626;stroke-width:1.25;" x="186.622706" xlink:href="#me2e6c69b1c" y="209.974341"/>
      </g>
     </g>
     <g id="text_3">
      <!-- 05/01 -->
      <defs>
       <path d="M 10.796875 72.90625 
L 49.515625 72.90625 
L 49.515625 64.59375 
L 19.828125 64.59375 
L 19.828125 46.734375 
Q 21.96875 47.46875 24.109375 47.828125 
Q 26.265625 48.1875 28.421875 48.1875 
Q 40.625 48.1875 47.75 41.5 
Q 54.890625 34.8125 54.890625 23.390625 
Q 54.890625 11.625 47.5625 5.09375 
Q 40.234375 -1.421875 26.90625 -1.421875 
Q 22.3125 -1.421875 17.546875 -0.640625 
Q 12.796875 0.140625 7.71875 1.703125 
L 7.71875 11.625 
Q 12.109375 9.234375 16.796875 8.0625 
Q 21.484375 6.890625 26.703125 6.890625 
Q 35.15625 6.890625 40.078125 11.328125 
Q 45.015625 15.765625 45.015625 23.390625 
Q 45.015625 31 40.078125 35.4375 
Q 35.15625 39.890625 26.703125 39.890625 
Q 22.75 39.890625 18.8125 39.015625 
Q 14.890625 38.140625 10.796875 36.28125 
z
" id="DejaVuSans-53"/>
      </defs>
      <g style="fill:#262626;" transform="translate(170.772393 227.832622)scale(0.11 -0.11)">
       <use xlink:href="#DejaVuSans-48"/>
       <use x="63.623047" xlink:href="#DejaVuSans-53"/>
       <use x="127.246094" xlink:href="#DejaVuSans-47"/>
       <use x="160.9375" xlink:href="#DejaVuSans-48"/>
       <use x="224.560547" xlink:href="#DejaVuSans-49"/>
      </g>
     </g>
    </g>
    <g id="xtick_4">
     <g id="line2d_4">
      <g>
       <use style="fill:#262626;stroke:#262626;stroke-width:1.25;" x="252.251974" xlink:href="#me2e6c69b1c" y="209.974341"/>
      </g>
     </g>
     <g id="text_4">
      <!-- 06/01 -->
      <defs>
       <path d="M 33.015625 40.375 
Q 26.375 40.375 22.484375 35.828125 
Q 18.609375 31.296875 18.609375 23.390625 
Q 18.609375 15.53125 22.484375 10.953125 
Q 26.375 6.390625 33.015625 6.390625 
Q 39.65625 6.390625 43.53125 10.953125 
Q 47.40625 15.53125 47.40625 23.390625 
Q 47.40625 31.296875 43.53125 35.828125 
Q 39.65625 40.375 33.015625 40.375 
z
M 52.59375 71.296875 
L 52.59375 62.3125 
Q 48.875 64.0625 45.09375 64.984375 
Q 41.3125 65.921875 37.59375 65.921875 
Q 27.828125 65.921875 22.671875 59.328125 
Q 17.53125 52.734375 16.796875 39.40625 
Q 19.671875 43.65625 24.015625 45.921875 
Q 28.375 48.1875 33.59375 48.1875 
Q 44.578125 48.1875 50.953125 41.515625 
Q 57.328125 34.859375 57.328125 23.390625 
Q 57.328125 12.15625 50.6875 5.359375 
Q 44.046875 -1.421875 33.015625 -1.421875 
Q 20.359375 -1.421875 13.671875 8.265625 
Q 6.984375 17.96875 6.984375 36.375 
Q 6.984375 53.65625 15.1875 63.9375 
Q 23.390625 74.21875 37.203125 74.21875 
Q 40.921875 74.21875 44.703125 73.484375 
Q 48.484375 72.75 52.59375 71.296875 
z
" id="DejaVuSans-54"/>
      </defs>
      <g style="fill:#262626;" transform="translate(236.401662 227.832622)scale(0.11 -0.11)">
       <use xlink:href="#DejaVuSans-48"/>
       <use x="63.623047" xlink:href="#DejaVuSans-54"/>
       <use x="127.246094" xlink:href="#DejaVuSans-47"/>
       <use x="160.9375" xlink:href="#DejaVuSans-48"/>
       <use x="224.560547" xlink:href="#DejaVuSans-49"/>
      </g>
     </g>
    </g>
    <g id="xtick_5">
     <g id="line2d_5">
      <path clip-path="url(#p77705ce79f)" d="M 46.895877 209.974341 
L 46.895877 11.379141 
" style="fill:none;stroke:#1a1a1a;stroke-dasharray:1.85,0.8;stroke-dashoffset:0;stroke-opacity:0.3;stroke-width:0.5;"/>
     </g>
     <g id="line2d_6"/>
    </g>
    <g id="xtick_6">
     <g id="line2d_7">
      <path clip-path="url(#p77705ce79f)" d="M 61.715389 209.974341 
L 61.715389 11.379141 
" style="fill:none;stroke:#1a1a1a;stroke-dasharray:1.85,0.8;stroke-dashoffset:0;stroke-opacity:0.3;stroke-width:0.5;"/>
     </g>
     <g id="line2d_8"/>
    </g>
    <g id="xtick_7">
     <g id="line2d_9">
      <path clip-path="url(#p77705ce79f)" d="M 76.534901 209.974341 
L 76.534901 11.379141 
" style="fill:none;stroke:#1a1a1a;stroke-dasharray:1.85,0.8;stroke-dashoffset:0;stroke-opacity:0.3;stroke-width:0.5;"/>
     </g>
     <g id="line2d_10"/>
    </g>
    <g id="xtick_8">
     <g id="line2d_11">
      <path clip-path="url(#p77705ce79f)" d="M 91.354413 209.974341 
L 91.354413 11.379141 
" style="fill:none;stroke:#1a1a1a;stroke-dasharray:1.85,0.8;stroke-dashoffset:0;stroke-opacity:0.3;stroke-width:0.5;"/>
     </g>
     <g id="line2d_12"/>
    </g>
    <g id="xtick_9">
     <g id="line2d_13">
      <path clip-path="url(#p77705ce79f)" d="M 106.173925 209.974341 
L 106.173925 11.379141 
" style="fill:none;stroke:#1a1a1a;stroke-dasharray:1.85,0.8;stroke-dashoffset:0;stroke-opacity:0.3;stroke-width:0.5;"/>
     </g>
     <g id="line2d_14"/>
    </g>
    <g id="xtick_10">
     <g id="line2d_15">
      <path clip-path="url(#p77705ce79f)" d="M 120.993438 209.974341 
L 120.993438 11.379141 
" style="fill:none;stroke:#1a1a1a;stroke-dasharray:1.85,0.8;stroke-dashoffset:0;stroke-opacity:0.3;stroke-width:0.5;"/>
     </g>
     <g id="line2d_16"/>
    </g>
    <g id="xtick_11">
     <g id="line2d_17">
      <path clip-path="url(#p77705ce79f)" d="M 135.81295 209.974341 
L 135.81295 11.379141 
" style="fill:none;stroke:#1a1a1a;stroke-dasharray:1.85,0.8;stroke-dashoffset:0;stroke-opacity:0.3;stroke-width:0.5;"/>
     </g>
     <g id="line2d_18"/>
    </g>
    <g id="xtick_12">
     <g id="line2d_19">
      <path clip-path="url(#p77705ce79f)" d="M 150.632462 209.974341 
L 150.632462 11.379141 
" style="fill:none;stroke:#1a1a1a;stroke-dasharray:1.85,0.8;stroke-dashoffset:0;stroke-opacity:0.3;stroke-width:0.5;"/>
     </g>
     <g id="line2d_20"/>
    </g>
    <g id="xtick_13">
     <g id="line2d_21">
      <path clip-path="url(#p77705ce79f)" d="M 165.451974 209.974341 
L 165.451974 11.379141 
" style="fill:none;stroke:#1a1a1a;stroke-dasharray:1.85,0.8;stroke-dashoffset:0;stroke-opacity:0.3;stroke-width:0.5;"/>
     </g>
     <g id="line2d_22"/>
    </g>
    <g id="xtick_14">
     <g id="line2d_23">
      <path clip-path="url(#p77705ce79f)" d="M 180.271486 209.974341 
L 180.271486 11.379141 
" style="fill:none;stroke:#1a1a1a;stroke-dasharray:1.85,0.8;stroke-dashoffset:0;stroke-opacity:0.3;stroke-width:0.5;"/>
     </g>
     <g id="line2d_24"/>
    </g>
    <g id="xtick_15">
     <g id="line2d_25">
      <path clip-path="url(#p77705ce79f)" d="M 195.090998 209.974341 
L 195.090998 11.379141 
" style="fill:none;stroke:#1a1a1a;stroke-dasharray:1.85,0.8;stroke-dashoffset:0;stroke-opacity:0.3;stroke-width:0.5;"/>
     </g>
     <g id="line2d_26"/>
    </g>
    <g id="xtick_16">
     <g id="line2d_27">
      <path clip-path="url(#p77705ce79f)" d="M 209.910511 209.974341 
L 209.910511 11.379141 
" style="fill:none;stroke:#1a1a1a;stroke-dasharray:1.85,0.8;stroke-dashoffset:0;stroke-opacity:0.3;stroke-width:0.5;"/>
     </g>
     <g id="line2d_28"/>
    </g>
    <g id="xtick_17">
     <g id="line2d_29">
      <path clip-path="url(#p77705ce79f)" d="M 224.730023 209.974341 
L 224.730023 11.379141 
" style="fill:none;stroke:#1a1a1a;stroke-dasharray:1.85,0.8;stroke-dashoffset:0;stroke-opacity:0.3;stroke-width:0.5;"/>
     </g>
     <g id="line2d_30"/>
    </g>
    <g id="xtick_18">
     <g id="line2d_31">
      <path clip-path="url(#p77705ce79f)" d="M 239.549535 209.974341 
L 239.549535 11.379141 
" style="fill:none;stroke:#1a1a1a;stroke-dasharray:1.85,0.8;stroke-dashoffset:0;stroke-opacity:0.3;stroke-width:0.5;"/>
     </g>
     <g id="line2d_32"/>
    </g>
    <g id="xtick_19">
     <g id="line2d_33">
      <path clip-path="url(#p77705ce79f)" d="M 254.369047 209.974341 
L 254.369047 11.379141 
" style="fill:none;stroke:#1a1a1a;stroke-dasharray:1.85,0.8;stroke-dashoffset:0;stroke-opacity:0.3;stroke-width:0.5;"/>
     </g>
     <g id="line2d_34"/>
    </g>
    <g id="xtick_20">
     <g id="line2d_35">
      <path clip-path="url(#p77705ce79f)" d="M 269.188559 209.974341 
L 269.188559 11.379141 
" style="fill:none;stroke:#1a1a1a;stroke-dasharray:1.85,0.8;stroke-dashoffset:0;stroke-opacity:0.3;stroke-width:0.5;"/>
     </g>
     <g id="line2d_36"/>
    </g>
    <g id="xtick_21">
     <g id="line2d_37">
      <path clip-path="url(#p77705ce79f)" d="M 284.008072 209.974341 
L 284.008072 11.379141 
" style="fill:none;stroke:#1a1a1a;stroke-dasharray:1.85,0.8;stroke-dashoffset:0;stroke-opacity:0.3;stroke-width:0.5;"/>
     </g>
     <g id="line2d_38"/>
    </g>
   </g>
   <g id="matplotlib.axis_2">
    <g id="ytick_1">
     <g id="line2d_39">
      <defs>
       <path d="M 0 0 
L -6 0 
" id="ma9c500e4db" style="stroke:#262626;stroke-width:1.25;"/>
      </defs>
      <g>
       <use style="fill:#262626;stroke:#262626;stroke-width:1.25;" x="34.193438" xlink:href="#ma9c500e4db" y="209.974341"/>
      </g>
     </g>
     <g id="text_5">
      <!-- 0.1 -->
      <defs>
       <path d="M 10.6875 12.40625 
L 21 12.40625 
L 21 0 
L 10.6875 0 
z
" id="DejaVuSans-46"/>
      </defs>
      <g style="fill:#262626;" transform="translate(7.2 214.153481)scale(0.11 -0.11)">
       <use xlink:href="#DejaVuSans-48"/>
       <use x="63.623047" xlink:href="#DejaVuSans-46"/>
       <use x="95.410156" xlink:href="#DejaVuSans-49"/>
      </g>
     </g>
    </g>
    <g id="ytick_2">
     <g id="line2d_40">
      <g>
       <use style="fill:#262626;stroke:#262626;stroke-width:1.25;" x="34.193438" xlink:href="#ma9c500e4db" y="176.875141"/>
      </g>
     </g>
     <g id="text_6">
      <!-- 0.2 -->
      <defs>
       <path d="M 19.1875 8.296875 
L 53.609375 8.296875 
L 53.609375 0 
L 7.328125 0 
L 7.328125 8.296875 
Q 12.9375 14.109375 22.625 23.890625 
Q 32.328125 33.6875 34.8125 36.53125 
Q 39.546875 41.84375 41.421875 45.53125 
Q 43.3125 49.21875 43.3125 52.78125 
Q 43.3125 58.59375 39.234375 62.25 
Q 35.15625 65.921875 28.609375 65.921875 
Q 23.96875 65.921875 18.8125 64.3125 
Q 13.671875 62.703125 7.8125 59.421875 
L 7.8125 69.390625 
Q 13.765625 71.78125 18.9375 73 
Q 24.125 74.21875 28.421875 74.21875 
Q 39.75 74.21875 46.484375 68.546875 
Q 53.21875 62.890625 53.21875 53.421875 
Q 53.21875 48.921875 51.53125 44.890625 
Q 49.859375 40.875 45.40625 35.40625 
Q 44.1875 33.984375 37.640625 27.21875 
Q 31.109375 20.453125 19.1875 8.296875 
z
" id="DejaVuSans-50"/>
      </defs>
      <g style="fill:#262626;" transform="translate(7.2 181.054281)scale(0.11 -0.11)">
       <use xlink:href="#DejaVuSans-48"/>
       <use x="63.623047" xlink:href="#DejaVuSans-46"/>
       <use x="95.410156" xlink:href="#DejaVuSans-50"/>
      </g>
     </g>
    </g>
    <g id="ytick_3">
     <g id="line2d_41">
      <g>
       <use style="fill:#262626;stroke:#262626;stroke-width:1.25;" x="34.193438" xlink:href="#ma9c500e4db" y="143.775941"/>
      </g>
     </g>
     <g id="text_7">
      <!-- 0.3 -->
      <g style="fill:#262626;" transform="translate(7.2 147.955081)scale(0.11 -0.11)">
       <use xlink:href="#DejaVuSans-48"/>
       <use x="63.623047" xlink:href="#DejaVuSans-46"/>
       <use x="95.410156" xlink:href="#DejaVuSans-51"/>
      </g>
     </g>
    </g>
    <g id="ytick_4">
     <g id="line2d_42">
      <g>
       <use style="fill:#262626;stroke:#262626;stroke-width:1.25;" x="34.193438" xlink:href="#ma9c500e4db" y="110.676741"/>
      </g>
     </g>
     <g id="text_8">
      <!-- 0.4 -->
      <g style="fill:#262626;" transform="translate(7.2 114.855881)scale(0.11 -0.11)">
       <use xlink:href="#DejaVuSans-48"/>
       <use x="63.623047" xlink:href="#DejaVuSans-46"/>
       <use x="95.410156" xlink:href="#DejaVuSans-52"/>
      </g>
     </g>
    </g>
    <g id="ytick_5">
     <g id="line2d_43">
      <g>
       <use style="fill:#262626;stroke:#262626;stroke-width:1.25;" x="34.193438" xlink:href="#ma9c500e4db" y="77.577541"/>
      </g>
     </g>
     <g id="text_9">
      <!-- 0.5 -->
      <g style="fill:#262626;" transform="translate(7.2 81.756681)scale(0.11 -0.11)">
       <use xlink:href="#DejaVuSans-48"/>
       <use x="63.623047" xlink:href="#DejaVuSans-46"/>
       <use x="95.410156" xlink:href="#DejaVuSans-53"/>
      </g>
     </g>
    </g>
    <g id="ytick_6">
     <g id="line2d_44">
      <g>
       <use style="fill:#262626;stroke:#262626;stroke-width:1.25;" x="34.193438" xlink:href="#ma9c500e4db" y="44.478341"/>
      </g>
     </g>
     <g id="text_10">
      <!-- 0.6 -->
      <g style="fill:#262626;" transform="translate(7.2 48.657481)scale(0.11 -0.11)">
       <use xlink:href="#DejaVuSans-48"/>
       <use x="63.623047" xlink:href="#DejaVuSans-46"/>
       <use x="95.410156" xlink:href="#DejaVuSans-54"/>
      </g>
     </g>
    </g>
    <g id="ytick_7">
     <g id="line2d_45">
      <g>
       <use style="fill:#262626;stroke:#262626;stroke-width:1.25;" x="34.193438" xlink:href="#ma9c500e4db" y="11.379141"/>
      </g>
     </g>
     <g id="text_11">
      <!-- 0.7 -->
      <defs>
       <path d="M 8.203125 72.90625 
L 55.078125 72.90625 
L 55.078125 68.703125 
L 28.609375 0 
L 18.3125 0 
L 43.21875 64.59375 
L 8.203125 64.59375 
z
" id="DejaVuSans-55"/>
      </defs>
      <g style="fill:#262626;" transform="translate(7.2 15.558281)scale(0.11 -0.11)">
       <use xlink:href="#DejaVuSans-48"/>
       <use x="63.623047" xlink:href="#DejaVuSans-46"/>
       <use x="95.410156" xlink:href="#DejaVuSans-55"/>
      </g>
     </g>
    </g>
   </g>
   <g id="line2d_46">
    <path clip-path="url(#p77705ce79f)" d="M 42.66173 143.694377 
L 44.778803 170.837322 
L 46.895877 137.598766 
L 49.01295 179.396281 
L 51.130023 176.42452 
L 53.247096 176.235756 
L 55.364169 162.528881 
L 57.481242 140.602171 
L 59.598316 160.278507 
L 61.715389 176.158466 
L 63.832462 176.298628 
L 65.949535 175.52575 
L 68.066608 175.265731 
L 70.183681 166.651662 
L 72.300755 155.157929 
L 74.417828 176.729745 
L 76.534901 176.224068 
L 78.651974 176.912174 
L 80.769047 168.343841 
L 82.88612 169.072616 
L 85.003194 147.871661 
L 87.120267 140.785661 
L 89.23734 161.27457 
L 91.354413 148.307743 
L 93.471486 154.009733 
L 95.588559 157.221176 
L 97.705633 148.071144 
L 99.822706 124.363888 
L 101.939779 126.9953 
L 104.056852 142.649873 
L 106.173925 136.257383 
L 108.290998 142.737769 
L 110.408072 131.188136 
L 112.525145 131.187969 
L 114.642218 123.069369 
L 116.759291 112.009065 
L 118.876364 128.725193 
L 120.993438 129.696954 
L 123.110511 123.163605 
L 125.227584 125.021229 
L 127.344657 129.452393 
L 129.46173 115.112625 
L 131.578803 105.407487 
L 133.695877 127.709168 
L 135.81295 126.671824 
L 137.930023 134.322025 
L 140.047096 138.669567 
L 142.164169 139.409207 
L 144.281242 126.638977 
L 146.398316 110.992934 
L 148.515389 131.936115 
L 150.632462 136.698181 
L 152.749535 135.888029 
L 154.866608 139.821497 
L 156.983681 149.259467 
L 159.100755 131.827742 
L 161.217828 125.859817 
L 163.334901 133.894124 
L 165.451974 139.402432 
L 167.569047 136.518771 
L 169.68612 142.602891 
L 171.803194 147.551364 
L 173.920267 133.007252 
L 176.03734 128.794026 
L 178.154413 141.132976 
L 180.271486 143.25622 
L 182.388559 147.333864 
L 184.505633 145.908975 
L 186.622706 141.730192 
L 188.739779 124.858741 
L 190.856852 113.471804 
L 192.973925 135.928413 
L 195.090998 142.848175 
L 197.208072 138.157587 
L 199.325145 143.906951 
L 201.442218 151.394576 
L 203.559291 147.348389 
L 205.676364 136.317047 
L 207.793438 136.655757 
L 209.910511 141.419003 
L 212.027584 142.230441 
L 214.144657 145.397954 
L 216.26173 152.249385 
L 218.378803 138.392609 
L 220.495877 126.311912 
L 222.61295 141.232439 
L 224.730023 141.183048 
L 226.847096 144.265036 
L 228.964169 147.145508 
L 231.081242 152.006579 
L 233.198316 147.747443 
L 235.315389 138.980953 
L 237.432462 130.113647 
L 239.549535 153.165765 
L 241.666608 151.089743 
L 243.783681 154.216545 
L 245.900755 153.677828 
L 248.017828 142.929294 
L 250.134901 130.770439 
L 252.251974 149.925711 
L 254.369047 148.825662 
L 256.48612 150.547837 
L 258.603194 161.603281 
L 260.720267 158.706639 
L 262.83734 147.50701 
L 264.954413 136.064854 
L 267.071486 154.521558 
L 269.188559 147.183691 
L 271.305633 150.592424 
L 273.422706 145.859087 
L 275.539779 145.75693 
L 277.656852 138.448412 
L 279.773925 132.833852 
L 281.890998 141.840322 
L 284.008072 144.565573 
L 286.125145 154.780153 
L 288.242218 154.450884 
" style="fill:none;stroke:#0173b2;stroke-linecap:round;stroke-width:1.5;"/>
   </g>
   <g id="line2d_47">
    <path clip-path="url(#p77705ce79f)" d="M 42.66173 135.46801 
L 44.778803 165.701733 
L 46.895877 132.961155 
L 49.01295 175.198004 
L 51.130023 173.818122 
L 53.247096 172.823017 
L 55.364169 155.211133 
L 57.481242 133.33278 
L 59.598316 156.420028 
L 61.715389 165.920496 
L 63.832462 164.341424 
L 65.949535 162.897993 
L 68.066608 162.98632 
L 70.183681 151.600991 
L 72.300755 136.320999 
L 74.417828 164.412503 
L 76.534901 163.606582 
L 78.651974 162.77316 
L 80.769047 154.420666 
L 82.88612 155.749354 
L 85.003194 130.290947 
L 87.120267 120.547237 
L 89.23734 142.91991 
L 91.354413 129.677628 
L 93.471486 132.935503 
L 95.588559 134.541809 
L 97.705633 124.777894 
L 99.822706 99.01575 
L 101.939779 100.157858 
L 104.056852 117.723288 
L 106.173925 111.219966 
L 108.290998 116.58585 
L 110.408072 103.814352 
L 112.525145 102.526168 
L 114.642218 93.525403 
L 116.759291 83.440296 
L 118.876364 100.541954 
L 120.993438 103.213976 
L 123.110511 99.38572 
L 125.227584 100.745498 
L 127.344657 104.447332 
L 129.46173 92.520215 
L 131.578803 80.775946 
L 133.695877 103.189392 
L 135.81295 102.348054 
L 137.930023 108.366957 
L 140.047096 114.150658 
L 142.164169 116.907428 
L 144.281242 102.989335 
L 146.398316 86.347223 
L 148.515389 105.586399 
L 150.632462 112.196539 
L 152.749535 113.679219 
L 154.866608 115.147133 
L 156.983681 124.351137 
L 159.100755 104.01361 
L 161.217828 97.387967 
L 163.334901 109.309793 
L 165.451974 113.065373 
L 167.569047 108.75172 
L 169.68612 116.100654 
L 171.803194 122.763144 
L 173.920267 107.125336 
L 176.03734 103.658716 
L 178.154413 116.26462 
L 180.271486 117.252184 
L 182.388559 122.076711 
L 184.505633 121.504773 
L 186.622706 123.332561 
L 188.739779 103.970213 
L 190.856852 93.188742 
L 192.973925 116.349256 
L 195.090998 123.620434 
L 197.208072 117.393129 
L 199.325145 123.541167 
L 201.442218 131.368472 
L 203.559291 129.514875 
L 205.676364 119.614592 
L 207.793438 115.434423 
L 209.910511 119.120108 
L 212.027584 121.457127 
L 214.144657 123.834575 
L 216.26173 133.084835 
L 218.378803 117.662071 
L 220.495877 106.384838 
L 222.61295 123.142199 
L 224.730023 120.897342 
L 226.847096 124.811006 
L 228.964169 126.860643 
L 231.081242 135.28137 
L 233.198316 129.476356 
L 235.315389 120.684775 
L 237.432462 109.410031 
L 239.549535 133.143686 
L 241.666608 134.087456 
L 243.783681 138.210175 
L 245.900755 139.210395 
L 248.017828 124.867051 
L 250.134901 115.252417 
L 252.251974 133.151604 
L 254.369047 129.002093 
L 256.48612 135.698328 
L 258.603194 145.798317 
L 260.720267 144.129597 
L 262.83734 130.72069 
L 264.954413 121.152635 
L 267.071486 136.672331 
L 269.188559 132.101177 
L 271.305633 137.519577 
L 273.422706 134.936487 
L 275.539779 133.761874 
L 277.656852 126.939324 
L 279.773925 120.187185 
L 281.890998 127.138295 
L 284.008072 131.530253 
L 286.125145 141.770039 
L 288.242218 143.775323 
" style="fill:none;stroke:#de8f05;stroke-linecap:round;stroke-width:1.5;"/>
   </g>
   <g id="line2d_48">
    <path clip-path="url(#p77705ce79f)" d="M 42.66173 134.508438 
L 44.778803 164.681806 
L 46.895877 131.299375 
L 49.01295 174.092465 
L 51.130023 172.298018 
L 53.247096 170.505077 
L 55.364169 151.09956 
L 57.481242 128.880788 
L 59.598316 152.257482 
L 61.715389 161.794997 
L 63.832462 160.035332 
L 65.949535 159.132208 
L 68.066608 157.760252 
L 70.183681 145.826836 
L 72.300755 130.489822 
L 74.417828 157.928118 
L 76.534901 157.435182 
L 78.651974 156.960382 
L 80.769047 147.15966 
L 82.88612 147.263428 
L 85.003194 125.496229 
L 87.120267 114.230795 
L 89.23734 130.418319 
L 91.354413 118.317188 
L 93.471486 121.446284 
L 95.588559 119.674046 
L 97.705633 112.898144 
L 99.822706 85.754073 
L 101.939779 89.543181 
L 104.056852 104.923638 
L 106.173925 97.390777 
L 108.290998 102.917795 
L 110.408072 86.55557 
L 112.525145 86.21133 
L 114.642218 79.646831 
L 116.759291 71.917347 
L 118.876364 85.306429 
L 120.993438 88.647859 
L 123.110511 83.970006 
L 125.227584 84.018904 
L 127.344657 89.783239 
L 129.46173 79.212092 
L 131.578803 68.550907 
L 133.695877 88.123774 
L 135.81295 85.398375 
L 137.930023 93.15846 
L 140.047096 98.39935 
L 142.164169 101.207722 
L 144.281242 87.465117 
L 146.398316 73.46785 
L 148.515389 92.214718 
L 150.632462 95.646317 
L 152.749535 95.627775 
L 154.866608 98.028779 
L 156.983681 106.273092 
L 159.100755 88.070956 
L 161.217828 83.165258 
L 163.334901 92.503345 
L 165.451974 94.572583 
L 167.569047 90.931864 
L 169.68612 96.723658 
L 171.803194 105.338654 
L 173.920267 91.947851 
L 176.03734 88.713623 
L 178.154413 98.956733 
L 180.271486 99.483017 
L 182.388559 103.26782 
L 184.505633 102.988186 
L 186.622706 106.830951 
L 188.739779 87.611437 
L 190.856852 77.974052 
L 192.973925 99.893216 
L 195.090998 106.080497 
L 197.208072 99.382549 
L 199.325145 106.406239 
L 201.442218 117.235256 
L 203.559291 116.40882 
L 205.676364 105.369277 
L 207.793438 99.146057 
L 209.910511 102.284548 
L 212.027584 104.697368 
L 214.144657 108.466845 
L 216.26173 119.273267 
L 218.378803 101.704817 
L 220.495877 93.204286 
L 222.61295 107.009167 
L 224.730023 105.669317 
L 226.847096 107.604552 
L 228.964169 109.716246 
L 231.081242 120.29109 
L 233.198316 116.127492 
L 235.315389 107.248648 
L 237.432462 92.985223 
L 239.549535 116.385432 
L 241.666608 118.144883 
L 243.783681 122.169308 
L 245.900755 125.535089 
L 248.017828 110.268067 
L 250.134901 100.767615 
L 252.251974 116.04393 
L 254.369047 112.841596 
L 256.48612 119.921219 
L 258.603194 128.813643 
L 260.720267 129.686132 
L 262.83734 118.803917 
L 264.954413 109.11707 
L 267.071486 122.958012 
L 269.188559 116.736744 
L 271.305633 122.713322 
L 273.422706 119.157986 
L 275.539779 121.621525 
L 277.656852 115.438697 
L 279.773925 109.467839 
L 281.890998 114.521217 
L 284.008072 117.791253 
L 286.125145 129.99713 
L 288.242218 133.49252 
" style="fill:none;stroke:#029e73;stroke-linecap:round;stroke-width:1.5;"/>
   </g>
   <g id="line2d_49">
    <path clip-path="url(#p77705ce79f)" d="M 42.66173 136.955098 
L 44.778803 167.889803 
L 46.895877 130.016029 
L 49.01295 174.894426 
L 51.130023 173.190426 
L 53.247096 171.625731 
L 55.364169 153.832619 
L 57.481242 128.928563 
L 59.598316 151.895286 
L 61.715389 158.061872 
L 63.832462 157.769222 
L 65.949535 150.242815 
L 68.066608 148.514145 
L 70.183681 138.83054 
L 72.300755 121.920135 
L 74.417828 145.123492 
L 76.534901 144.888812 
L 78.651974 145.79838 
L 80.769047 133.353384 
L 82.88612 129.797627 
L 85.003194 119.484685 
L 87.120267 107.187451 
L 89.23734 112.504856 
L 91.354413 98.73192 
L 93.471486 102.561004 
L 95.588559 102.071697 
L 97.705633 94.141928 
L 99.822706 71.28382 
L 101.939779 79.714028 
L 104.056852 86.136154 
L 106.173925 79.402036 
L 108.290998 81.53054 
L 110.408072 65.513066 
L 112.525145 67.068895 
L 114.642218 66.160862 
L 116.759291 64.203605 
L 118.876364 65.432573 
L 120.993438 66.559037 
L 123.110511 60.781178 
L 125.227584 62.074927 
L 127.344657 66.436867 
L 129.46173 63.957535 
L 131.578803 55.371635 
L 133.695877 64.651803 
L 135.81295 62.212051 
L 137.930023 69.454855 
L 140.047096 77.55871 
L 142.164169 79.782197 
L 144.281242 72.823662 
L 146.398316 59.119505 
L 148.515389 66.597421 
L 150.632462 72.034614 
L 152.749535 70.634217 
L 154.866608 73.676873 
L 156.983681 81.651928 
L 159.100755 69.548695 
L 161.217828 67.792253 
L 163.334901 69.548125 
L 165.451974 68.994268 
L 167.569047 64.911595 
L 169.68612 71.246546 
L 171.803194 79.426569 
L 173.920267 73.577069 
L 176.03734 71.897138 
L 178.154413 73.732054 
L 180.271486 71.263899 
L 182.388559 79.471857 
L 184.505633 76.686215 
L 186.622706 81.275986 
L 188.739779 64.983663 
L 190.856852 61.158635 
L 192.973925 72.23215 
L 195.090998 79.325065 
L 197.208072 71.182617 
L 199.325145 78.388717 
L 201.442218 91.42147 
L 203.559291 97.367209 
L 205.676364 87.740759 
L 207.793438 70.522854 
L 209.910511 73.169933 
L 212.027584 79.320858 
L 214.144657 79.334251 
L 216.26173 93.370284 
L 218.378803 79.894687 
L 220.495877 76.56867 
L 222.61295 80.536259 
L 224.730023 79.336376 
L 226.847096 79.55434 
L 228.964169 81.145852 
L 231.081242 94.01788 
L 233.198316 96.077456 
L 235.315389 91.282774 
L 237.432462 73.497375 
L 239.549535 89.551671 
L 241.666608 90.878614 
L 243.783681 96.966214 
L 245.900755 101.298247 
L 248.017828 85.367999 
L 250.134901 81.090578 
L 252.251974 90.146248 
L 254.369047 86.481511 
L 256.48612 93.635858 
L 258.603194 105.771834 
L 260.720267 107.84221 
L 262.83734 101.02177 
L 264.954413 94.779435 
L 267.071486 99.036766 
L 269.188559 91.78167 
L 271.305633 101.243639 
L 273.422706 96.92485 
L 275.539779 101.504597 
L 277.656852 100.579767 
L 279.773925 97.506788 
L 281.890998 91.188442 
L 284.008072 97.613166 
L 286.125145 108.558277 
L 288.242218 113.055482 
" style="fill:none;stroke:#d55e00;stroke-linecap:round;stroke-width:1.5;"/>
   </g>
   <g id="line2d_50">
    <path clip-path="url(#p77705ce79f)" d="M 42.66173 137.838642 
L 44.778803 156.980665 
L 46.895877 137.139142 
L 49.01295 162.183066 
L 51.130023 161.561984 
L 53.247096 160.359685 
L 55.364169 150.303438 
L 57.481242 122.746669 
L 59.598316 136.229623 
L 61.715389 170.417635 
L 63.832462 167.282808 
L 65.949535 167.377705 
L 68.066608 167.122181 
L 70.183681 162.205775 
L 72.300755 152.998506 
L 74.417828 166.436336 
L 76.534901 163.346555 
L 78.651974 163.518845 
L 80.769047 157.875189 
L 82.88612 157.349723 
L 85.003194 146.125856 
L 87.120267 143.291978 
L 89.23734 149.455905 
L 91.354413 137.343464 
L 93.471486 141.839564 
L 95.588559 145.378916 
L 97.705633 140.50062 
L 99.822706 127.381195 
L 101.939779 128.571536 
L 104.056852 137.064984 
L 106.173925 132.703153 
L 108.290998 137.97417 
L 110.408072 126.502466 
L 112.525145 125.210342 
L 114.642218 120.650421 
L 116.759291 117.193804 
L 118.876364 123.723044 
L 120.993438 126.080374 
L 123.110511 98.254603 
L 125.227584 102.943024 
L 127.344657 106.842506 
L 129.46173 100.196397 
L 131.578803 96.553884 
L 133.695877 104.642981 
L 135.81295 104.272865 
L 137.930023 108.866684 
L 140.047096 115.207769 
L 142.164169 117.394878 
L 144.281242 106.752106 
L 146.398316 96.205945 
L 148.515389 108.699332 
L 150.632462 112.031386 
L 152.749535 111.619036 
L 154.866608 115.995901 
L 156.983681 122.51878 
L 159.100755 111.14382 
L 161.217828 105.718134 
L 163.334901 111.5733 
L 165.451974 113.998111 
L 167.569047 111.511017 
L 169.68612 116.334998 
L 171.803194 121.153471 
L 173.920267 114.139865 
L 176.03734 110.245694 
L 178.154413 117.482293 
L 180.271486 116.772656 
L 182.388559 121.773816 
L 184.505633 120.399521 
L 186.622706 101.810595 
L 188.739779 87.879826 
L 190.856852 81.569721 
L 192.973925 96.562473 
L 195.090998 100.694627 
L 197.208072 96.579885 
L 199.325145 104.205672 
L 201.442218 110.869875 
L 203.559291 110.430802 
L 205.676364 105.521629 
L 207.793438 98.213271 
L 209.910511 103.511333 
L 212.027584 104.347818 
L 214.144657 105.543818 
L 216.26173 113.667217 
L 218.378803 104.484163 
L 220.495877 93.946401 
L 222.61295 102.599982 
L 224.730023 101.005535 
L 226.847096 102.263526 
L 228.964169 102.73695 
L 231.081242 110.126545 
L 233.198316 108.629056 
L 235.315389 104.433557 
L 237.432462 93.217269 
L 239.549535 111.024416 
L 241.666608 111.751156 
L 243.783681 115.462596 
L 245.900755 117.180813 
L 248.017828 107.159692 
L 250.134901 95.133186 
L 252.251974 107.623079 
L 254.369047 104.219987 
L 256.48612 110.635638 
L 258.603194 116.728693 
L 260.720267 115.808524 
L 262.83734 109.042356 
L 264.954413 99.510624 
L 267.071486 106.680984 
L 269.188559 102.094388 
L 271.305633 108.422429 
L 273.422706 103.480328 
L 275.539779 103.73704 
L 277.656852 100.917255 
L 279.773925 99.563094 
L 281.890998 97.939046 
L 284.008072 105.754201 
L 286.125145 114.930817 
L 288.242218 113.833097 
" style="fill:none;stroke:#cc78bc;stroke-linecap:round;stroke-width:1.5;"/>
   </g>
   <g id="patch_3">
    <path d="M 34.193438 209.974341 
L 34.193438 11.379141 
" style="fill:none;stroke:#cccccc;stroke-linecap:square;stroke-linejoin:miter;stroke-width:1.25;"/>
   </g>
   <g id="patch_4">
    <path d="M 34.193438 209.974341 
L 294.593438 209.974341 
" style="fill:none;stroke:#cccccc;stroke-linecap:square;stroke-linejoin:miter;stroke-width:1.25;"/>
   </g>
  </g>
 </g>
 <defs>
  <clipPath id="p77705ce79f">
   <rect height="198.5952" width="260.4" x="34.193438" y="11.379141"/>
  </clipPath>
 </defs>
</svg>
