<?xml version="1.0" encoding="utf-8" standalone="no"?>
<!DOCTYPE svg PUBLIC "-//W3C//DTD SVG 1.1//EN"
  "http://www.w3.org/Graphics/SVG/1.1/DTD/svg11.dtd">
<!-- Created with matplotlib (https://matplotlib.org/) -->
<svg height="237.320278pt" version="1.1" viewBox="0 0 301.793438 237.320278" width="301.793438pt" xmlns="http://www.w3.org/2000/svg" xmlns:xlink="http://www.w3.org/1999/xlink">
 <defs>
  <style type="text/css">
*{stroke-linecap:butt;stroke-linejoin:round;}
  </style>
 </defs>
 <g id="figure_1">
  <g id="patch_1">
   <path d="M 0 237.320278 
L 301.793438 237.320278 
L 301.793438 0 
L 0 0 
z
" style="fill:#ffffff;"/>
  </g>
  <g id="axes_1">
   <g id="patch_2">
    <path d="M 34.193438 209.974341 
L 294.593438 209.974341 
L 294.593438 11.379141 
L 34.193438 11.379141 
z
" style="fill:#ffffff;"/>
   </g>
   <g id="matplotlib.axis_1">
    <g id="xtick_1">
     <g id="line2d_1">
      <defs>
       <path d="M 0 0 
L 0 6 
" id="m40f1b97eff" style="stroke:#262626;stroke-width:1.25;"/>
      </defs>
      <g>
       <use style="fill:#262626;stroke:#262626;stroke-width:1.25;" x="57.481242" xlink:href="#m40f1b97eff" y="209.974341"/>
      </g>
     </g>
     <g id="text_1">
      <!-- 03/01 -->
      <defs>
       <path d="M 31.78125 66.40625 
Q 24.171875 66.40625 20.328125 58.90625 
Q 16.5 51.421875 16.5 36.375 
Q 16.5 21.390625 20.328125 13.890625 
Q 24.171875 6.390625 31.78125 6.390625 
Q 39.453125 6.390625 43.28125 13.890625 
Q 47.125 21.390625 47.125 36.375 
Q 47.125 51.421875 43.28125 58.90625 
Q 39.453125 66.40625 31.78125 66.40625 
z
M 31.78125 74.21875 
Q 44.046875 74.21875 50.515625 64.515625 
Q 56.984375 54.828125 56.984375 36.375 
Q 56.984375 17.96875 50.515625 8.265625 
Q 44.046875 -1.421875 31.78125 -1.421875 
Q 19.53125 -1.421875 13.0625 8.265625 
Q 6.59375 17.96875 6.59375 36.375 
Q 6.59375 54.828125 13.0625 64.515625 
Q 19.53125 74.21875 31.78125 74.21875 
z
" id="DejaVuSans-48"/>
       <path d="M 40.578125 39.3125 
Q 47.65625 37.796875 51.625 33 
Q 55.609375 28.21875 55.609375 21.1875 
Q 55.609375 10.40625 48.1875 4.484375 
Q 40.765625 -1.421875 27.09375 -1.421875 
Q 22.515625 -1.421875 17.65625 -0.515625 
Q 12.796875 0.390625 7.625 2.203125 
L 7.625 11.71875 
Q 11.71875 9.328125 16.59375 8.109375 
Q 21.484375 6.890625 26.8125 6.890625 
Q 36.078125 6.890625 40.9375 10.546875 
Q 45.796875 14.203125 45.796875 21.1875 
Q 45.796875 27.640625 41.28125 31.265625 
Q 36.765625 34.90625 28.71875 34.90625 
L 20.21875 34.90625 
L 20.21875 43.015625 
L 29.109375 43.015625 
Q 36.375 43.015625 40.234375 45.921875 
Q 44.09375 48.828125 44.09375 54.296875 
Q 44.09375 59.90625 40.109375 62.90625 
Q 36.140625 65.921875 28.71875 65.921875 
Q 24.65625 65.921875 20.015625 65.03125 
Q 15.375 64.15625 9.8125 62.3125 
L 9.8125 71.09375 
Q 15.4375 72.65625 20.34375 73.4375 
Q 25.25 74.21875 29.59375 74.21875 
Q 40.828125 74.21875 47.359375 69.109375 
Q 53.90625 64.015625 53.90625 55.328125 
Q 53.90625 49.265625 50.4375 45.09375 
Q 46.96875 40.921875 40.578125 39.3125 
z
" id="DejaVuSans-51"/>
       <path d="M 25.390625 72.90625 
L 33.6875 72.90625 
L 8.296875 -9.28125 
L 0 -9.28125 
z
" id="DejaVuSans-47"/>
       <path d="M 12.40625 8.296875 
L 28.515625 8.296875 
L 28.515625 63.921875 
L 10.984375 60.40625 
L 10.984375 69.390625 
L 28.421875 72.90625 
L 38.28125 72.90625 
L 38.28125 8.296875 
L 54.390625 8.296875 
L 54.390625 0 
L 12.40625 0 
z
" id="DejaVuSans-49"/>
      </defs>
      <g style="fill:#262626;" transform="translate(41.63093 227.832622)scale(0.11 -0.11)">
       <use xlink:href="#DejaVuSans-48"/>
       <use x="63.623047" xlink:href="#DejaVuSans-51"/>
       <use x="127.246094" xlink:href="#DejaVuSans-47"/>
       <use x="160.9375" xlink:href="#DejaVuSans-48"/>
       <use x="224.560547" xlink:href="#DejaVuSans-49"/>
      </g>
     </g>
    </g>
    <g id="xtick_2">
     <g id="line2d_2">
      <g>
       <use style="fill:#262626;stroke:#262626;stroke-width:1.25;" x="123.110511" xlink:href="#m40f1b97eff" y="209.974341"/>
      </g>
     </g>
     <g id="text_2">
      <!-- 04/01 -->
      <defs>
       <path d="M 37.796875 64.3125 
L 12.890625 25.390625 
L 37.796875 25.390625 
z
M 35.203125 72.90625 
L 47.609375 72.90625 
L 47.609375 25.390625 
L 58.015625 25.390625 
L 58.015625 17.1875 
L 47.609375 17.1875 
L 47.609375 0 
L 37.796875 0 
L 37.796875 17.1875 
L 4.890625 17.1875 
L 4.890625 26.703125 
z
" id="DejaVuSans-52"/>
      </defs>
      <g style="fill:#262626;" transform="translate(107.260198 227.832622)scale(0.11 -0.11)">
       <use xlink:href="#DejaVuSans-48"/>
       <use x="63.623047" xlink:href="#DejaVuSans-52"/>
       <use x="127.246094" xlink:href="#DejaVuSans-47"/>
       <use x="160.9375" xlink:href="#DejaVuSans-48"/>
       <use x="224.560547" xlink:href="#DejaVuSans-49"/>
      </g>
     </g>
    </g>
    <g id="xtick_3">
     <g id="line2d_3">
      <g>
       <use style="fill:#262626;stroke:#262626;stroke-width:1.25;" x="186.622706" xlink:href="#m40f1b97eff" y="209.974341"/>
      </g>
     </g>
     <g id="text_3">
      <!-- 05/01 -->
      <defs>
       <path d="M 10.796875 72.90625 
L 49.515625 72.90625 
L 49.515625 64.59375 
L 19.828125 64.59375 
L 19.828125 46.734375 
Q 21.96875 47.46875 24.109375 47.828125 
Q 26.265625 48.1875 28.421875 48.1875 
Q 40.625 48.1875 47.75 41.5 
Q 54.890625 34.8125 54.890625 23.390625 
Q 54.890625 11.625 47.5625 5.09375 
Q 40.234375 -1.421875 26.90625 -1.421875 
Q 22.3125 -1.421875 17.546875 -0.640625 
Q 12.796875 0.140625 7.71875 1.703125 
L 7.71875 11.625 
Q 12.109375 9.234375 16.796875 8.0625 
Q 21.484375 6.890625 26.703125 6.890625 
Q 35.15625 6.890625 40.078125 11.328125 
Q 45.015625 15.765625 45.015625 23.390625 
Q 45.015625 31 40.078125 35.4375 
Q 35.15625 39.890625 26.703125 39.890625 
Q 22.75 39.890625 18.8125 39.015625 
Q 14.890625 38.140625 10.796875 36.28125 
z
" id="DejaVuSans-53"/>
      </defs>
      <g style="fill:#262626;" transform="translate(170.772393 227.832622)scale(0.11 -0.11)">
       <use xlink:href="#DejaVuSans-48"/>
       <use x="63.623047" xlink:href="#DejaVuSans-53"/>
       <use x="127.246094" xlink:href="#DejaVuSans-47"/>
       <use x="160.9375" xlink:href="#DejaVuSans-48"/>
       <use x="224.560547" xlink:href="#DejaVuSans-49"/>
      </g>
     </g>
    </g>
    <g id="xtick_4">
     <g id="line2d_4">
      <g>
       <use style="fill:#262626;stroke:#262626;stroke-width:1.25;" x="252.251974" xlink:href="#m40f1b97eff" y="209.974341"/>
      </g>
     </g>
     <g id="text_4">
      <!-- 06/01 -->
      <defs>
       <path d="M 33.015625 40.375 
Q 26.375 40.375 22.484375 35.828125 
Q 18.609375 31.296875 18.609375 23.390625 
Q 18.609375 15.53125 22.484375 10.953125 
Q 26.375 6.390625 33.015625 6.390625 
Q 39.65625 6.390625 43.53125 10.953125 
Q 47.40625 15.53125 47.40625 23.390625 
Q 47.40625 31.296875 43.53125 35.828125 
Q 39.65625 40.375 33.015625 40.375 
z
M 52.59375 71.296875 
L 52.59375 62.3125 
Q 48.875 64.0625 45.09375 64.984375 
Q 41.3125 65.921875 37.59375 65.921875 
Q 27.828125 65.921875 22.671875 59.328125 
Q 17.53125 52.734375 16.796875 39.40625 
Q 19.671875 43.65625 24.015625 45.921875 
Q 28.375 48.1875 33.59375 48.1875 
Q 44.578125 48.1875 50.953125 41.515625 
Q 57.328125 34.859375 57.328125 23.390625 
Q 57.328125 12.15625 50.6875 5.359375 
Q 44.046875 -1.421875 33.015625 -1.421875 
Q 20.359375 -1.421875 13.671875 8.265625 
Q 6.984375 17.96875 6.984375 36.375 
Q 6.984375 53.65625 15.1875 63.9375 
Q 23.390625 74.21875 37.203125 74.21875 
Q 40.921875 74.21875 44.703125 73.484375 
Q 48.484375 72.75 52.59375 71.296875 
z
" id="DejaVuSans-54"/>
      </defs>
      <g style="fill:#262626;" transform="translate(236.401662 227.832622)scale(0.11 -0.11)">
       <use xlink:href="#DejaVuSans-48"/>
       <use x="63.623047" xlink:href="#DejaVuSans-54"/>
       <use x="127.246094" xlink:href="#DejaVuSans-47"/>
       <use x="160.9375" xlink:href="#DejaVuSans-48"/>
       <use x="224.560547" xlink:href="#DejaVuSans-49"/>
      </g>
     </g>
    </g>
    <g id="xtick_5">
     <g id="line2d_5">
      <path clip-path="url(#pce77c64f88)" d="M 46.895877 209.974341 
L 46.895877 11.379141 
" style="fill:none;stroke:#1a1a1a;stroke-dasharray:1.85,0.8;stroke-dashoffset:0;stroke-opacity:0.3;stroke-width:0.5;"/>
     </g>
     <g id="line2d_6"/>
    </g>
    <g id="xtick_6">
     <g id="line2d_7">
      <path clip-path="url(#pce77c64f88)" d="M 61.715389 209.974341 
L 61.715389 11.379141 
" style="fill:none;stroke:#1a1a1a;stroke-dasharray:1.85,0.8;stroke-dashoffset:0;stroke-opacity:0.3;stroke-width:0.5;"/>
     </g>
     <g id="line2d_8"/>
    </g>
    <g id="xtick_7">
     <g id="line2d_9">
      <path clip-path="url(#pce77c64f88)" d="M 76.534901 209.974341 
L 76.534901 11.379141 
" style="fill:none;stroke:#1a1a1a;stroke-dasharray:1.85,0.8;stroke-dashoffset:0;stroke-opacity:0.3;stroke-width:0.5;"/>
     </g>
     <g id="line2d_10"/>
    </g>
    <g id="xtick_8">
     <g id="line2d_11">
      <path clip-path="url(#pce77c64f88)" d="M 91.354413 209.974341 
L 91.354413 11.379141 
" style="fill:none;stroke:#1a1a1a;stroke-dasharray:1.85,0.8;stroke-dashoffset:0;stroke-opacity:0.3;stroke-width:0.5;"/>
     </g>
     <g id="line2d_12"/>
    </g>
    <g id="xtick_9">
     <g id="line2d_13">
      <path clip-path="url(#pce77c64f88)" d="M 106.173925 209.974341 
L 106.173925 11.379141 
" style="fill:none;stroke:#1a1a1a;stroke-dasharray:1.85,0.8;stroke-dashoffset:0;stroke-opacity:0.3;stroke-width:0.5;"/>
     </g>
     <g id="line2d_14"/>
    </g>
    <g id="xtick_10">
     <g id="line2d_15">
      <path clip-path="url(#pce77c64f88)" d="M 120.993438 209.974341 
L 120.993438 11.379141 
" style="fill:none;stroke:#1a1a1a;stroke-dasharray:1.85,0.8;stroke-dashoffset:0;stroke-opacity:0.3;stroke-width:0.5;"/>
     </g>
     <g id="line2d_16"/>
    </g>
    <g id="xtick_11">
     <g id="line2d_17">
      <path clip-path="url(#pce77c64f88)" d="M 135.81295 209.974341 
L 135.81295 11.379141 
" style="fill:none;stroke:#1a1a1a;stroke-dasharray:1.85,0.8;stroke-dashoffset:0;stroke-opacity:0.3;stroke-width:0.5;"/>
     </g>
     <g id="line2d_18"/>
    </g>
    <g id="xtick_12">
     <g id="line2d_19">
      <path clip-path="url(#pce77c64f88)" d="M 150.632462 209.974341 
L 150.632462 11.379141 
" style="fill:none;stroke:#1a1a1a;stroke-dasharray:1.85,0.8;stroke-dashoffset:0;stroke-opacity:0.3;stroke-width:0.5;"/>
     </g>
     <g id="line2d_20"/>
    </g>
    <g id="xtick_13">
     <g id="line2d_21">
      <path clip-path="url(#pce77c64f88)" d="M 165.451974 209.974341 
L 165.451974 11.379141 
" style="fill:none;stroke:#1a1a1a;stroke-dasharray:1.85,0.8;stroke-dashoffset:0;stroke-opacity:0.3;stroke-width:0.5;"/>
     </g>
     <g id="line2d_22"/>
    </g>
    <g id="xtick_14">
     <g id="line2d_23">
      <path clip-path="url(#pce77c64f88)" d="M 180.271486 209.974341 
L 180.271486 11.379141 
" style="fill:none;stroke:#1a1a1a;stroke-dasharray:1.85,0.8;stroke-dashoffset:0;stroke-opacity:0.3;stroke-width:0.5;"/>
     </g>
     <g id="line2d_24"/>
    </g>
    <g id="xtick_15">
     <g id="line2d_25">
      <path clip-path="url(#pce77c64f88)" d="M 195.090998 209.974341 
L 195.090998 11.379141 
" style="fill:none;stroke:#1a1a1a;stroke-dasharray:1.85,0.8;stroke-dashoffset:0;stroke-opacity:0.3;stroke-width:0.5;"/>
     </g>
     <g id="line2d_26"/>
    </g>
    <g id="xtick_16">
     <g id="line2d_27">
      <path clip-path="url(#pce77c64f88)" d="M 209.910511 209.974341 
L 209.910511 11.379141 
" style="fill:none;stroke:#1a1a1a;stroke-dasharray:1.85,0.8;stroke-dashoffset:0;stroke-opacity:0.3;stroke-width:0.5;"/>
     </g>
     <g id="line2d_28"/>
    </g>
    <g id="xtick_17">
     <g id="line2d_29">
      <path clip-path="url(#pce77c64f88)" d="M 224.730023 209.974341 
L 224.730023 11.379141 
" style="fill:none;stroke:#1a1a1a;stroke-dasharray:1.85,0.8;stroke-dashoffset:0;stroke-opacity:0.3;stroke-width:0.5;"/>
     </g>
     <g id="line2d_30"/>
    </g>
    <g id="xtick_18">
     <g id="line2d_31">
      <path clip-path="url(#pce77c64f88)" d="M 239.549535 209.974341 
L 239.549535 11.379141 
" style="fill:none;stroke:#1a1a1a;stroke-dasharray:1.85,0.8;stroke-dashoffset:0;stroke-opacity:0.3;stroke-width:0.5;"/>
     </g>
     <g id="line2d_32"/>
    </g>
    <g id="xtick_19">
     <g id="line2d_33">
      <path clip-path="url(#pce77c64f88)" d="M 254.369047 209.974341 
L 254.369047 11.379141 
" style="fill:none;stroke:#1a1a1a;stroke-dasharray:1.85,0.8;stroke-dashoffset:0;stroke-opacity:0.3;stroke-width:0.5;"/>
     </g>
     <g id="line2d_34"/>
    </g>
    <g id="xtick_20">
     <g id="line2d_35">
      <path clip-path="url(#pce77c64f88)" d="M 269.188559 209.974341 
L 269.188559 11.379141 
" style="fill:none;stroke:#1a1a1a;stroke-dasharray:1.85,0.8;stroke-dashoffset:0;stroke-opacity:0.3;stroke-width:0.5;"/>
     </g>
     <g id="line2d_36"/>
    </g>
    <g id="xtick_21">
     <g id="line2d_37">
      <path clip-path="url(#pce77c64f88)" d="M 284.008072 209.974341 
L 284.008072 11.379141 
" style="fill:none;stroke:#1a1a1a;stroke-dasharray:1.85,0.8;stroke-dashoffset:0;stroke-opacity:0.3;stroke-width:0.5;"/>
     </g>
     <g id="line2d_38"/>
    </g>
   </g>
   <g id="matplotlib.axis_2">
    <g id="ytick_1">
     <g id="line2d_39">
      <defs>
       <path d="M 0 0 
L -6 0 
" id="m121bda90ca" style="stroke:#262626;stroke-width:1.25;"/>
      </defs>
      <g>
       <use style="fill:#262626;stroke:#262626;stroke-width:1.25;" x="34.193438" xlink:href="#m121bda90ca" y="209.974341"/>
      </g>
     </g>
     <g id="text_5">
      <!-- 0.1 -->
      <defs>
       <path d="M 10.6875 12.40625 
L 21 12.40625 
L 21 0 
L 10.6875 0 
z
" id="DejaVuSans-46"/>
      </defs>
      <g style="fill:#262626;" transform="translate(7.2 214.153481)scale(0.11 -0.11)">
       <use xlink:href="#DejaVuSans-48"/>
       <use x="63.623047" xlink:href="#DejaVuSans-46"/>
       <use x="95.410156" xlink:href="#DejaVuSans-49"/>
      </g>
     </g>
    </g>
    <g id="ytick_2">
     <g id="line2d_40">
      <g>
       <use style="fill:#262626;stroke:#262626;stroke-width:1.25;" x="34.193438" xlink:href="#m121bda90ca" y="176.875141"/>
      </g>
     </g>
     <g id="text_6">
      <!-- 0.2 -->
      <defs>
       <path d="M 19.1875 8.296875 
L 53.609375 8.296875 
L 53.609375 0 
L 7.328125 0 
L 7.328125 8.296875 
Q 12.9375 14.109375 22.625 23.890625 
Q 32.328125 33.6875 34.8125 36.53125 
Q 39.546875 41.84375 41.421875 45.53125 
Q 43.3125 49.21875 43.3125 52.78125 
Q 43.3125 58.59375 39.234375 62.25 
Q 35.15625 65.921875 28.609375 65.921875 
Q 23.96875 65.921875 18.8125 64.3125 
Q 13.671875 62.703125 7.8125 59.421875 
L 7.8125 69.390625 
Q 13.765625 71.78125 18.9375 73 
Q 24.125 74.21875 28.421875 74.21875 
Q 39.75 74.21875 46.484375 68.546875 
Q 53.21875 62.890625 53.21875 53.421875 
Q 53.21875 48.921875 51.53125 44.890625 
Q 49.859375 40.875 45.40625 35.40625 
Q 44.1875 33.984375 37.640625 27.21875 
Q 31.109375 20.453125 19.1875 8.296875 
z
" id="DejaVuSans-50"/>
      </defs>
      <g style="fill:#262626;" transform="translate(7.2 181.054281)scale(0.11 -0.11)">
       <use xlink:href="#DejaVuSans-48"/>
       <use x="63.623047" xlink:href="#DejaVuSans-46"/>
       <use x="95.410156" xlink:href="#DejaVuSans-50"/>
      </g>
     </g>
    </g>
    <g id="ytick_3">
     <g id="line2d_41">
      <g>
       <use style="fill:#262626;stroke:#262626;stroke-width:1.25;" x="34.193438" xlink:href="#m121bda90ca" y="143.775941"/>
      </g>
     </g>
     <g id="text_7">
      <!-- 0.3 -->
      <g style="fill:#262626;" transform="translate(7.2 147.955081)scale(0.11 -0.11)">
       <use xlink:href="#DejaVuSans-48"/>
       <use x="63.623047" xlink:href="#DejaVuSans-46"/>
       <use x="95.410156" xlink:href="#DejaVuSans-51"/>
      </g>
     </g>
    </g>
    <g id="ytick_4">
     <g id="line2d_42">
      <g>
       <use style="fill:#262626;stroke:#262626;stroke-width:1.25;" x="34.193438" xlink:href="#m121bda90ca" y="110.676741"/>
      </g>
     </g>
     <g id="text_8">
      <!-- 0.4 -->
      <g style="fill:#262626;" transform="translate(7.2 114.855881)scale(0.11 -0.11)">
       <use xlink:href="#DejaVuSans-48"/>
       <use x="63.623047" xlink:href="#DejaVuSans-46"/>
       <use x="95.410156" xlink:href="#DejaVuSans-52"/>
      </g>
     </g>
    </g>
    <g id="ytick_5">
     <g id="line2d_43">
      <g>
       <use style="fill:#262626;stroke:#262626;stroke-width:1.25;" x="34.193438" xlink:href="#m121bda90ca" y="77.577541"/>
      </g>
     </g>
     <g id="text_9">
      <!-- 0.5 -->
      <g style="fill:#262626;" transform="translate(7.2 81.756681)scale(0.11 -0.11)">
       <use xlink:href="#DejaVuSans-48"/>
       <use x="63.623047" xlink:href="#DejaVuSans-46"/>
       <use x="95.410156" xlink:href="#DejaVuSans-53"/>
      </g>
     </g>
    </g>
    <g id="ytick_6">
     <g id="line2d_44">
      <g>
       <use style="fill:#262626;stroke:#262626;stroke-width:1.25;" x="34.193438" xlink:href="#m121bda90ca" y="44.478341"/>
      </g>
     </g>
     <g id="text_10">
      <!-- 0.6 -->
      <g style="fill:#262626;" transform="translate(7.2 48.657481)scale(0.11 -0.11)">
       <use xlink:href="#DejaVuSans-48"/>
       <use x="63.623047" xlink:href="#DejaVuSans-46"/>
       <use x="95.410156" xlink:href="#DejaVuSans-54"/>
      </g>
     </g>
    </g>
    <g id="ytick_7">
     <g id="line2d_45">
      <g>
       <use style="fill:#262626;stroke:#262626;stroke-width:1.25;" x="34.193438" xlink:href="#m121bda90ca" y="11.379141"/>
      </g>
     </g>
     <g id="text_11">
      <!-- 0.7 -->
      <defs>
       <path d="M 8.203125 72.90625 
L 55.078125 72.90625 
L 55.078125 68.703125 
L 28.609375 0 
L 18.3125 0 
L 43.21875 64.59375 
L 8.203125 64.59375 
z
" id="DejaVuSans-55"/>
      </defs>
      <g style="fill:#262626;" transform="translate(7.2 15.558281)scale(0.11 -0.11)">
       <use xlink:href="#DejaVuSans-48"/>
       <use x="63.623047" xlink:href="#DejaVuSans-46"/>
       <use x="95.410156" xlink:href="#DejaVuSans-55"/>
      </g>
     </g>
    </g>
   </g>
   <g id="line2d_46">
    <path clip-path="url(#pce77c64f88)" d="M 42.66173 163.218948 
L 44.778803 182.299582 
L 46.895877 138.827225 
L 49.01295 188.186374 
L 51.130023 190.748651 
L 53.247096 190.593053 
L 55.364169 180.628912 
L 57.481242 158.381657 
L 59.598316 176.686217 
L 61.715389 187.195536 
L 63.832462 178.011658 
L 65.949535 187.575766 
L 68.066608 192.079786 
L 70.183681 184.099935 
L 72.300755 169.614735 
L 74.417828 185.227519 
L 76.534901 187.309931 
L 78.651974 190.251776 
L 80.769047 179.330611 
L 82.88612 186.167178 
L 85.003194 171.839215 
L 87.120267 160.232861 
L 89.23734 170.347909 
L 91.354413 167.05312 
L 93.471486 167.516277 
L 95.588559 165.63482 
L 97.705633 155.456062 
L 99.822706 129.449735 
L 101.939779 132.661359 
L 104.056852 163.21106 
L 106.173925 160.784473 
L 108.290998 168.197284 
L 110.408072 158.986609 
L 112.525145 157.874853 
L 114.642218 143.908963 
L 116.759291 134.498212 
L 118.876364 145.585711 
L 120.993438 151.711655 
L 123.110511 143.606094 
L 125.227584 140.185988 
L 127.344657 138.635855 
L 129.46173 117.672585 
L 131.578803 113.324144 
L 133.695877 139.448067 
L 135.81295 141.922324 
L 137.930023 144.575214 
L 140.047096 145.242237 
L 142.164169 146.471395 
L 144.281242 134.261148 
L 146.398316 117.695681 
L 148.515389 139.947071 
L 150.632462 147.051122 
L 152.749535 154.604852 
L 154.866608 153.749114 
L 156.983681 155.074343 
L 159.100755 145.308029 
L 161.217828 129.480263 
L 163.334901 148.230293 
L 165.451974 155.674677 
L 167.569047 152.522873 
L 169.68612 163.26717 
L 171.803194 165.391999 
L 173.920267 156.752773 
L 176.03734 149.173324 
L 178.154413 160.184929 
L 180.271486 153.89484 
L 182.388559 158.193055 
L 184.505633 166.054987 
L 186.622706 164.586863 
L 188.739779 159.876161 
L 190.856852 142.541357 
L 192.973925 157.230749 
L 195.090998 158.075095 
L 197.208072 164.824906 
L 199.325145 162.265303 
L 201.442218 162.170498 
L 203.559291 167.912687 
L 205.676364 160.102547 
L 207.793438 160.796594 
L 209.910511 161.615627 
L 212.027584 165.333181 
L 214.144657 166.275203 
L 216.26173 163.922943 
L 218.378803 153.451909 
L 220.495877 154.815164 
L 222.61295 170.321917 
L 224.730023 165.931429 
L 226.847096 169.096915 
L 228.964169 171.56309 
L 231.081242 175.169752 
L 233.198316 166.917961 
L 235.315389 149.329206 
L 237.432462 144.682893 
L 239.549535 169.235581 
L 241.666608 170.692115 
L 243.783681 170.878161 
L 245.900755 179.546921 
L 248.017828 179.080753 
L 250.134901 157.653224 
L 252.251974 170.63878 
L 254.369047 172.428037 
L 256.48612 176.18662 
L 258.603194 180.748985 
L 260.720267 181.075827 
L 262.83734 172.92554 
L 264.954413 162.28007 
L 267.071486 177.193243 
L 269.188559 175.976818 
L 271.305633 173.502075 
L 273.422706 175.081368 
L 275.539779 173.047787 
L 277.656852 173.124367 
L 279.773925 162.834668 
L 281.890998 171.752458 
L 284.008072 164.951577 
L 286.125145 174.493178 
L 288.242218 175.600844 
" style="fill:none;stroke:#0173b2;stroke-linecap:round;stroke-width:1.5;"/>
   </g>
   <g id="line2d_47">
    <path clip-path="url(#pce77c64f88)" d="M 42.66173 155.624373 
L 44.778803 173.943772 
L 46.895877 135.508717 
L 49.01295 181.613711 
L 51.130023 183.297909 
L 53.247096 181.841924 
L 55.364169 172.132105 
L 57.481242 148.65134 
L 59.598316 169.577124 
L 61.715389 176.778352 
L 63.832462 166.300361 
L 65.949535 176.589379 
L 68.066608 181.112078 
L 70.183681 172.083493 
L 72.300755 157.659689 
L 74.417828 172.979024 
L 76.534901 174.345579 
L 78.651974 176.389933 
L 80.769047 164.961687 
L 82.88612 173.609828 
L 85.003194 157.389536 
L 87.120267 145.974456 
L 89.23734 154.544607 
L 91.354413 150.559573 
L 93.471486 149.649118 
L 95.588559 147.996759 
L 97.705633 138.34211 
L 99.822706 112.480825 
L 101.939779 113.788473 
L 104.056852 143.61849 
L 106.173925 139.416235 
L 108.290998 143.105599 
L 110.408072 132.999818 
L 112.525145 132.221914 
L 114.642218 123.014733 
L 116.759291 111.649641 
L 118.876364 122.571063 
L 120.993438 129.882312 
L 123.110511 120.687651 
L 125.227584 117.897345 
L 127.344657 118.412366 
L 129.46173 97.889158 
L 131.578803 93.549068 
L 133.695877 116.124615 
L 135.81295 118.714975 
L 137.930023 121.136534 
L 140.047096 122.920226 
L 142.164169 124.283568 
L 144.281242 114.603046 
L 146.398316 96.733062 
L 148.515389 117.96024 
L 150.632462 123.62264 
L 152.749535 129.023983 
L 154.866608 129.811031 
L 156.983681 133.03612 
L 159.100755 123.62374 
L 161.217828 109.107121 
L 163.334901 123.693127 
L 165.451974 133.676908 
L 167.569047 132.111282 
L 169.68612 140.603459 
L 171.803194 144.30407 
L 173.920267 135.277708 
L 176.03734 127.930983 
L 178.154413 137.489739 
L 180.271486 131.942982 
L 182.388559 137.494307 
L 184.505633 144.573832 
L 186.622706 144.70135 
L 188.739779 142.198901 
L 190.856852 123.600111 
L 192.973925 135.980247 
L 195.090998 137.859899 
L 197.208072 144.954888 
L 199.325145 143.32445 
L 201.442218 143.923886 
L 203.559291 150.929659 
L 205.676364 144.280525 
L 207.793438 141.742186 
L 209.910511 142.016331 
L 212.027584 146.42654 
L 214.144657 146.294519 
L 216.26173 146.982694 
L 218.378803 137.039041 
L 220.495877 137.116989 
L 222.61295 148.824359 
L 224.730023 145.969523 
L 226.847096 150.221313 
L 228.964169 153.40301 
L 231.081242 158.059766 
L 233.198316 151.344601 
L 235.315389 132.18394 
L 237.432462 128.839775 
L 239.549535 152.21673 
L 241.666608 150.970126 
L 243.783681 152.577715 
L 245.900755 161.534489 
L 248.017828 163.958069 
L 250.134901 139.785557 
L 252.251974 152.15128 
L 254.369047 153.232364 
L 256.48612 158.382533 
L 258.603194 162.721843 
L 260.720267 164.386295 
L 262.83734 157.850554 
L 264.954413 145.97669 
L 267.071486 158.881302 
L 269.188559 158.194069 
L 271.305633 156.808323 
L 273.422706 156.955764 
L 275.539779 156.439335 
L 277.656852 157.715253 
L 279.773925 146.394132 
L 281.890998 153.937777 
L 284.008072 147.203543 
L 286.125145 157.506447 
L 288.242218 158.32014 
" style="fill:none;stroke:#de8f05;stroke-linecap:round;stroke-width:1.5;"/>
   </g>
   <g id="line2d_48">
    <path clip-path="url(#pce77c64f88)" d="M 42.66173 152.702121 
L 44.778803 171.073212 
L 46.895877 133.108038 
L 49.01295 179.520132 
L 51.130023 181.484971 
L 53.247096 179.399143 
L 55.364169 168.309169 
L 57.481242 144.541459 
L 59.598316 166.844061 
L 61.715389 173.379218 
L 63.832462 164.045916 
L 65.949535 173.940591 
L 68.066608 177.586565 
L 70.183681 166.356489 
L 72.300755 151.416472 
L 74.417828 167.194838 
L 76.534901 169.098012 
L 78.651974 170.181896 
L 80.769047 160.510841 
L 82.88612 166.991283 
L 85.003194 149.148874 
L 87.120267 135.528822 
L 89.23734 144.668783 
L 91.354413 138.451092 
L 93.471486 135.847854 
L 95.588559 133.284206 
L 97.705633 124.142082 
L 99.822706 98.863565 
L 101.939779 99.164324 
L 104.056852 126.845934 
L 106.173925 121.917699 
L 108.290998 119.49697 
L 110.408072 110.343126 
L 112.525145 110.355067 
L 114.642218 104.903533 
L 116.759291 92.952866 
L 118.876364 102.231286 
L 120.993438 110.502183 
L 123.110511 102.74314 
L 125.227584 98.393278 
L 127.344657 101.092612 
L 129.46173 82.135475 
L 131.578803 77.057512 
L 133.695877 95.649923 
L 135.81295 99.049826 
L 137.930023 100.767292 
L 140.047096 102.761334 
L 142.164169 107.857444 
L 144.281242 97.866678 
L 146.398316 80.106988 
L 148.515389 98.645322 
L 150.632462 103.582335 
L 152.749535 108.175761 
L 154.866608 109.175908 
L 156.983681 113.457759 
L 159.100755 106.337634 
L 161.217828 90.321144 
L 163.334901 104.459342 
L 165.451974 113.583055 
L 167.569047 113.070849 
L 169.68612 120.989972 
L 171.803194 125.859196 
L 173.920267 118.881607 
L 176.03734 110.794678 
L 178.154413 118.015865 
L 180.271486 112.596029 
L 182.388559 118.246683 
L 184.505633 126.087687 
L 186.622706 128.043803 
L 188.739779 126.886405 
L 190.856852 108.03027 
L 192.973925 118.421741 
L 195.090998 120.64915 
L 197.208072 127.613656 
L 199.325145 125.505644 
L 201.442218 129.045804 
L 203.559291 137.169213 
L 205.676364 130.76467 
L 207.793438 124.559453 
L 209.910511 125.075782 
L 212.027584 130.239258 
L 214.144657 130.67035 
L 216.26173 131.842324 
L 218.378803 122.534773 
L 220.495877 122.658454 
L 222.61295 131.997062 
L 224.730023 130.433711 
L 226.847096 134.866625 
L 228.964169 138.143381 
L 231.081242 145.443248 
L 233.198316 139.805889 
L 235.315389 119.264074 
L 237.432462 116.489315 
L 239.549535 137.410291 
L 241.666608 136.668949 
L 243.783681 139.341315 
L 245.900755 148.191281 
L 248.017828 152.877838 
L 250.134901 127.792564 
L 252.251974 139.460406 
L 254.369047 138.699288 
L 256.48612 144.529936 
L 258.603194 149.500064 
L 260.720267 152.916816 
L 262.83734 147.200275 
L 264.954413 134.077996 
L 267.071486 145.093549 
L 269.188559 144.37372 
L 271.305633 142.921847 
L 273.422706 143.691121 
L 275.539779 145.344484 
L 277.656852 147.955001 
L 279.773925 134.793674 
L 281.890998 140.505068 
L 284.008072 135.262844 
L 286.125145 145.435749 
L 288.242218 145.79264 
" style="fill:none;stroke:#029e73;stroke-linecap:round;stroke-width:1.5;"/>
   </g>
   <g id="line2d_49">
    <path clip-path="url(#pce77c64f88)" d="M 42.66173 147.892079 
L 44.778803 168.680192 
L 46.895877 127.177853 
L 49.01295 176.516499 
L 51.130023 178.613927 
L 53.247096 177.145511 
L 55.364169 164.499078 
L 57.481242 140.336491 
L 59.598316 163.686283 
L 61.715389 169.798422 
L 63.832462 160.135853 
L 65.949535 169.498032 
L 68.066608 173.798674 
L 70.183681 161.1634 
L 72.300755 145.270122 
L 74.417828 162.311327 
L 76.534901 164.727096 
L 78.651974 165.593895 
L 80.769047 155.492677 
L 82.88612 157.817399 
L 85.003194 138.347449 
L 87.120267 121.612795 
L 89.23734 131.775036 
L 91.354413 121.074026 
L 93.471486 118.100566 
L 95.588559 114.021258 
L 97.705633 104.559073 
L 99.822706 83.096044 
L 101.939779 83.623572 
L 104.056852 106.952534 
L 106.173925 101.976276 
L 108.290998 97.62187 
L 110.408072 88.882302 
L 112.525145 89.985791 
L 114.642218 87.160265 
L 116.759291 76.029429 
L 118.876364 79.844074 
L 120.993438 90.007664 
L 123.110511 81.156401 
L 125.227584 76.291371 
L 127.344657 78.683366 
L 129.46173 64.415981 
L 131.578803 60.786912 
L 133.695877 73.416639 
L 135.81295 77.191938 
L 137.930023 78.487501 
L 140.047096 80.619127 
L 142.164169 88.941653 
L 144.281242 78.803986 
L 146.398316 60.882475 
L 148.515389 77.197864 
L 150.632462 80.750325 
L 152.749535 84.768626 
L 154.866608 85.980348 
L 156.983681 90.827665 
L 159.100755 85.465439 
L 161.217828 70.86311 
L 163.334901 82.720773 
L 165.451974 90.695239 
L 167.569047 88.455057 
L 169.68612 97.826483 
L 171.803194 102.63057 
L 173.920267 98.666509 
L 176.03734 90.202976 
L 178.154413 93.31259 
L 180.271486 89.017835 
L 182.388559 95.932248 
L 184.505633 102.233323 
L 186.622706 105.877688 
L 188.739779 107.773753 
L 190.856852 87.590597 
L 192.973925 95.722502 
L 195.090998 98.645338 
L 197.208072 106.526034 
L 199.325145 101.887191 
L 201.442218 108.511568 
L 203.559291 119.518956 
L 205.676364 110.921648 
L 207.793438 101.826525 
L 209.910511 101.48893 
L 212.027584 108.426755 
L 214.144657 109.293988 
L 216.26173 110.962934 
L 218.378803 103.213726 
L 220.495877 104.057925 
L 222.61295 110.920565 
L 224.730023 110.411298 
L 226.847096 115.370693 
L 228.964169 118.923292 
L 231.081242 126.688155 
L 233.198316 123.334719 
L 235.315389 103.630992 
L 237.432462 98.943615 
L 239.549535 118.299764 
L 241.666608 118.300864 
L 243.783681 121.78086 
L 245.900755 132.383835 
L 248.017828 138.232042 
L 250.134901 113.435716 
L 252.251974 122.197323 
L 254.369047 121.752951 
L 256.48612 127.430776 
L 258.603194 132.24186 
L 260.720267 136.772403 
L 262.83734 133.391024 
L 264.954413 120.509184 
L 267.071486 128.531059 
L 269.188559 128.162226 
L 271.305633 129.501098 
L 273.422706 128.275005 
L 275.539779 132.103648 
L 277.656852 135.505777 
L 279.773925 121.050931 
L 281.890998 125.320378 
L 284.008072 120.893639 
L 286.125145 130.502523 
L 288.242218 131.455273 
" style="fill:none;stroke:#d55e00;stroke-linecap:round;stroke-width:1.5;"/>
   </g>
   <g id="line2d_50">
    <path clip-path="url(#pce77c64f88)" d="M 42.66173 155.920521 
L 44.778803 167.848266 
L 46.895877 143.38433 
L 49.01295 173.746131 
L 51.130023 176.555785 
L 53.247096 173.902295 
L 55.364169 167.005561 
L 57.481242 143.07794 
L 59.598316 156.442463 
L 61.715389 176.610114 
L 63.832462 170.287095 
L 65.949535 175.098415 
L 68.066608 178.75787 
L 70.183681 173.92805 
L 72.300755 163.659167 
L 74.417828 174.182633 
L 76.534901 173.322634 
L 78.651974 174.681704 
L 80.769047 168.664899 
L 82.88612 173.590573 
L 85.003194 164.272095 
L 87.120267 157.49028 
L 89.23734 161.549215 
L 91.354413 154.952558 
L 93.471486 156.191204 
L 95.588559 156.993694 
L 97.705633 149.864986 
L 99.822706 135.514757 
L 101.939779 136.065076 
L 104.056852 153.275504 
L 106.173925 149.632344 
L 108.290998 152.052756 
L 110.408072 143.851423 
L 112.525145 144.647262 
L 114.642218 139.445034 
L 116.759291 132.067914 
L 118.876364 138.542417 
L 120.993438 143.630373 
L 123.110511 117.553297 
L 125.227584 117.839348 
L 127.344657 119.832693 
L 129.46173 106.213662 
L 131.578803 103.223897 
L 133.695877 117.584 
L 135.81295 122.458958 
L 137.930023 125.154346 
L 140.047096 129.268221 
L 142.164169 131.627893 
L 144.281242 126.599004 
L 146.398316 112.793264 
L 148.515389 123.948244 
L 150.632462 127.919381 
L 152.749535 131.221504 
L 154.866608 134.62559 
L 156.983681 137.587593 
L 159.100755 132.811484 
L 161.217828 121.460948 
L 163.334901 130.081411 
L 165.451974 136.404279 
L 167.569047 137.173791 
L 169.68612 142.086891 
L 171.803194 145.22781 
L 173.920267 140.07678 
L 176.03734 135.706655 
L 178.154413 140.705093 
L 180.271486 137.130688 
L 182.388559 141.634275 
L 184.505633 145.483409 
L 186.622706 127.529313 
L 188.739779 126.396659 
L 190.856852 111.913252 
L 192.973925 120.522673 
L 195.090998 121.606472 
L 197.208072 129.875205 
L 199.325145 129.661101 
L 201.442218 129.691385 
L 203.559291 135.110805 
L 205.676364 130.303237 
L 207.793438 129.446428 
L 209.910511 130.678111 
L 212.027584 134.71478 
L 214.144657 134.045814 
L 216.26173 137.199319 
L 218.378803 131.077381 
L 220.495877 124.620084 
L 222.61295 132.308779 
L 224.730023 130.782786 
L 226.847096 133.834319 
L 228.964169 136.869984 
L 231.081242 141.659079 
L 233.198316 137.533063 
L 235.315389 123.608639 
L 237.432462 121.066795 
L 239.549535 137.372072 
L 241.666608 137.366693 
L 243.783681 136.740487 
L 245.900755 143.06044 
L 248.017828 145.37601 
L 250.134901 122.969531 
L 252.251974 131.331794 
L 254.369047 132.775178 
L 256.48612 136.930493 
L 258.603194 142.295619 
L 260.720267 143.196726 
L 262.83734 138.318738 
L 264.954413 128.767227 
L 267.071486 135.898566 
L 269.188559 133.535459 
L 271.305633 129.583725 
L 273.422706 127.184958 
L 275.539779 129.112948 
L 277.656852 130.376675 
L 279.773925 121.411811 
L 281.890998 123.49975 
L 284.008072 123.192975 
L 286.125145 133.065977 
L 288.242218 135.423762 
" style="fill:none;stroke:#cc78bc;stroke-linecap:round;stroke-width:1.5;"/>
   </g>
   <g id="patch_3">
    <path d="M 34.193438 209.974341 
L 34.193438 11.379141 
" style="fill:none;stroke:#cccccc;stroke-linecap:square;stroke-linejoin:miter;stroke-width:1.25;"/>
   </g>
   <g id="patch_4">
    <path d="M 34.193438 209.974341 
L 294.593438 209.974341 
" style="fill:none;stroke:#cccccc;stroke-linecap:square;stroke-linejoin:miter;stroke-width:1.25;"/>
   </g>
  </g>
 </g>
 <defs>
  <clipPath id="pce77c64f88">
   <rect height="198.5952" width="260.4" x="34.193438" y="11.379141"/>
  </clipPath>
 </defs>
</svg>
